<svg xmlns="http://www.w3.org/2000/svg" xmlns:xlink="http://www.w3.org/1999/xlink" width="500" zoomAndPan="magnify" viewBox="0 0 375 374.999991" height="500" preserveAspectRatio="xMidYMid meet" version="1.0"><defs><g/><clipPath id="id1"><path d="M 135.339844 106.546875 L 239.523438 106.546875 L 239.523438 210.703125 L 135.339844 210.703125 Z M 135.339844 106.546875 " clip-rule="nonzero"/></clipPath></defs><g clip-path="url(#id1)"><path fill="#03989e" d="M 233.800781 204.988281 L 160.613281 204.988281 L 160.613281 131.804688 L 233.800781 131.804688 Z M 222.058594 126.089844 L 208.226562 112.257812 L 215.921875 112.257812 L 229.753906 126.089844 Z M 206.289062 126.089844 L 192.449219 112.257812 L 200.136719 112.257812 L 213.96875 126.089844 Z M 190.503906 126.089844 L 176.660156 112.257812 L 184.359375 112.257812 L 198.199219 126.089844 Z M 174.722656 126.089844 L 160.882812 112.257812 L 168.578125 112.257812 L 182.421875 126.089844 Z M 158.945312 126.089844 L 156.917969 124.0625 L 145.097656 112.257812 L 152.792969 112.257812 L 166.632812 126.089844 Z M 154.902344 130.136719 L 154.902344 137.832031 L 141.050781 123.984375 L 141.050781 116.296875 Z M 141.050781 163.636719 L 154.902344 177.476562 L 154.902344 185.175781 L 141.050781 171.332031 Z M 154.902344 161.699219 L 154.902344 169.394531 L 141.050781 155.546875 L 141.050781 147.851562 Z M 141.050781 139.769531 L 141.050781 132.074219 L 154.902344 145.914062 L 154.902344 153.609375 Z M 141.050781 187.113281 L 141.050781 179.414062 L 154.902344 193.265625 L 154.902344 200.953125 Z M 238.679688 126.925781 L 219.132812 107.378906 C 218.585938 106.851562 217.859375 106.546875 217.105469 106.546875 L 138.199219 106.546875 C 138.003906 106.546875 137.847656 106.671875 137.660156 106.707031 C 137.472656 106.742188 137.285156 106.6875 137.105469 106.769531 C 137.023438 106.804688 136.980469 106.894531 136.898438 106.941406 C 136.640625 107.074219 136.449219 107.261719 136.242188 107.46875 C 136.046875 107.667969 135.867188 107.855469 135.734375 108.097656 C 135.6875 108.1875 135.597656 108.222656 135.5625 108.3125 C 135.492188 108.484375 135.542969 108.664062 135.507812 108.839844 C 135.464844 109.039062 135.339844 109.199219 135.339844 109.398438 L 135.339844 188.296875 C 135.339844 189.050781 135.644531 189.777344 136.171875 190.324219 L 155.734375 209.867188 C 156.28125 210.414062 157.019531 210.703125 157.753906 210.703125 L 236.652344 210.703125 C 238.230469 210.703125 239.511719 209.417969 239.511719 207.851562 L 239.511719 128.953125 C 239.511719 128.863281 239.433594 128.808594 239.421875 128.726562 C 239.371094 128.0625 239.164062 127.417969 238.679688 126.925781 " fill-opacity="1" fill-rule="nonzero"/></g><g fill="#000000" fill-opacity="1"><g transform="translate(118.376745, 244.172747)"><g><path d="M 1.828125 -16.9375 L 7.265625 -16.9375 L 7.265625 -4.328125 L 15.953125 -4.328125 L 15.953125 0 L 1.828125 0 Z M 1.828125 -16.9375 "/></g></g></g><g fill="#000000" fill-opacity="1"><g transform="translate(134.804582, 244.172747)"><g><path d="M 8.203125 -13.296875 C 10.578125 -13.296875 12.390625 -12.738281 13.640625 -11.625 C 14.898438 -10.507812 15.53125 -8.800781 15.53125 -6.5 L 15.53125 -5.65625 L 5.78125 -5.65625 C 5.78125 -4.726562 5.988281 -4.023438 6.40625 -3.546875 C 6.832031 -3.066406 7.492188 -2.828125 8.390625 -2.828125 C 9.210938 -2.828125 9.816406 -3 10.203125 -3.34375 C 10.585938 -3.6875 10.78125 -4.148438 10.78125 -4.734375 L 15.53125 -4.734375 C 15.53125 -3.148438 14.929688 -1.914062 13.734375 -1.03125 C 12.535156 -0.144531 10.789062 0.296875 8.5 0.296875 C 6.082031 0.296875 4.207031 -0.265625 2.875 -1.390625 C 1.550781 -2.515625 0.890625 -4.21875 0.890625 -6.5 C 0.890625 -8.726562 1.535156 -10.414062 2.828125 -11.5625 C 4.128906 -12.71875 5.921875 -13.296875 8.203125 -13.296875 Z M 8.390625 -10.171875 C 6.847656 -10.171875 5.988281 -9.441406 5.8125 -7.984375 L 10.59375 -7.984375 C 10.59375 -8.648438 10.398438 -9.179688 10.015625 -9.578125 C 9.628906 -9.972656 9.085938 -10.171875 8.390625 -10.171875 Z M 8.390625 -10.171875 "/></g></g></g><g fill="#000000" fill-opacity="1"><g transform="translate(151.23242, 244.172747)"><g><path d="M 16.109375 -15.4375 C 16.109375 -14.4375 15.859375 -13.664062 15.359375 -13.125 C 14.859375 -12.582031 14.101562 -12.179688 13.09375 -11.921875 C 13.570312 -11.554688 13.945312 -11.128906 14.21875 -10.640625 C 14.488281 -10.160156 14.625 -9.648438 14.625 -9.109375 C 14.625 -7.734375 14.101562 -6.691406 13.0625 -5.984375 C 12.019531 -5.273438 10.71875 -4.921875 9.15625 -4.921875 L 7.28125 -4.921875 C 6.25 -4.921875 5.734375 -4.679688 5.734375 -4.203125 C 5.734375 -3.972656 5.847656 -3.789062 6.078125 -3.65625 C 6.304688 -3.519531 6.707031 -3.453125 7.28125 -3.453125 L 11.71875 -3.453125 C 13.164062 -3.453125 14.257812 -3.070312 15 -2.3125 C 15.738281 -1.5625 16.109375 -0.550781 16.109375 0.71875 C 16.109375 1.65625 15.859375 2.457031 15.359375 3.125 C 14.867188 3.800781 14.203125 4.3125 13.359375 4.65625 C 12.523438 5 11.617188 5.171875 10.640625 5.171875 L 3.390625 5.171875 C 2.804688 5.171875 2.265625 5.03125 1.765625 4.75 C 1.265625 4.46875 0.863281 4.082031 0.5625 3.59375 C 0.269531 3.113281 0.125 2.582031 0.125 2 C 0.125 1.351562 0.320312 0.769531 0.71875 0.25 C 1.113281 -0.257812 1.601562 -0.644531 2.1875 -0.90625 C 1.789062 -1.1875 1.476562 -1.523438 1.25 -1.921875 C 1.019531 -2.316406 0.90625 -2.742188 0.90625 -3.203125 C 0.90625 -3.835938 1.144531 -4.414062 1.625 -4.9375 C 2.101562 -5.457031 2.691406 -5.804688 3.390625 -5.984375 C 2.753906 -6.390625 2.25 -6.859375 1.875 -7.390625 C 1.5 -7.929688 1.3125 -8.5 1.3125 -9.09375 C 1.3125 -10.601562 1.921875 -11.679688 3.140625 -12.328125 C 4.359375 -12.972656 5.976562 -13.296875 8 -13.296875 C 8.882812 -13.296875 9.597656 -13.25 10.140625 -13.15625 C 10.953125 -13.65625 11.472656 -14.113281 11.703125 -14.53125 C 11.941406 -14.957031 12.0625 -15.257812 12.0625 -15.4375 Z M 7.953125 -10.734375 C 7.410156 -10.734375 6.96875 -10.59375 6.625 -10.3125 C 6.28125 -10.039062 6.109375 -9.640625 6.109375 -9.109375 C 6.109375 -8.566406 6.265625 -8.160156 6.578125 -7.890625 C 6.898438 -7.617188 7.359375 -7.484375 7.953125 -7.484375 C 8.546875 -7.484375 9.007812 -7.617188 9.34375 -7.890625 C 9.675781 -8.160156 9.84375 -8.566406 9.84375 -9.109375 C 9.84375 -9.648438 9.675781 -10.054688 9.34375 -10.328125 C 9.007812 -10.597656 8.546875 -10.734375 7.953125 -10.734375 Z M 6.0625 0 C 5.675781 0 5.363281 0.0976562 5.125 0.296875 C 4.894531 0.503906 4.78125 0.800781 4.78125 1.1875 C 4.78125 1.5625 4.898438 1.863281 5.140625 2.09375 C 5.390625 2.320312 5.695312 2.4375 6.0625 2.4375 L 9.90625 2.4375 C 10.257812 2.4375 10.5625 2.320312 10.8125 2.09375 C 11.070312 1.875 11.203125 1.578125 11.203125 1.203125 C 11.203125 0.828125 11.078125 0.53125 10.828125 0.3125 C 10.585938 0.101562 10.28125 0 9.90625 0 Z M 6.0625 0 "/></g></g></g><g fill="#000000" fill-opacity="1"><g transform="translate(167.660257, 244.172747)"><g><path d="M 8.203125 -13.296875 C 10.578125 -13.296875 12.390625 -12.738281 13.640625 -11.625 C 14.898438 -10.507812 15.53125 -8.800781 15.53125 -6.5 L 15.53125 -5.65625 L 5.78125 -5.65625 C 5.78125 -4.726562 5.988281 -4.023438 6.40625 -3.546875 C 6.832031 -3.066406 7.492188 -2.828125 8.390625 -2.828125 C 9.210938 -2.828125 9.816406 -3 10.203125 -3.34375 C 10.585938 -3.6875 10.78125 -4.148438 10.78125 -4.734375 L 15.53125 -4.734375 C 15.53125 -3.148438 14.929688 -1.914062 13.734375 -1.03125 C 12.535156 -0.144531 10.789062 0.296875 8.5 0.296875 C 6.082031 0.296875 4.207031 -0.265625 2.875 -1.390625 C 1.550781 -2.515625 0.890625 -4.21875 0.890625 -6.5 C 0.890625 -8.726562 1.535156 -10.414062 2.828125 -11.5625 C 4.128906 -12.71875 5.921875 -13.296875 8.203125 -13.296875 Z M 8.390625 -10.171875 C 6.847656 -10.171875 5.988281 -9.441406 5.8125 -7.984375 L 10.59375 -7.984375 C 10.59375 -8.648438 10.398438 -9.179688 10.015625 -9.578125 C 9.628906 -9.972656 9.085938 -10.171875 8.390625 -10.171875 Z M 8.390625 -10.171875 "/></g></g></g><g fill="#000000" fill-opacity="1"><g transform="translate(184.088095, 244.172747)"><g><path d="M 10.4375 -13.296875 C 11.945312 -13.296875 13.078125 -12.875 13.828125 -12.03125 C 14.585938 -11.195312 14.96875 -9.992188 14.96875 -8.421875 L 14.96875 0 L 10.078125 0 L 10.078125 -7.828125 C 10.078125 -8.390625 9.929688 -8.835938 9.640625 -9.171875 C 9.347656 -9.503906 8.941406 -9.671875 8.421875 -9.671875 C 7.816406 -9.671875 7.320312 -9.472656 6.9375 -9.078125 C 6.5625 -8.691406 6.375 -8.210938 6.375 -7.640625 L 6.375 0 L 1.484375 0 L 1.484375 -13 L 5.484375 -13 L 5.8125 -11.03125 C 6.320312 -11.71875 6.988281 -12.265625 7.8125 -12.671875 C 8.644531 -13.085938 9.519531 -13.296875 10.4375 -13.296875 Z M 10.4375 -13.296875 "/></g></g></g><g fill="#000000" fill-opacity="1"><g transform="translate(200.515932, 244.172747)"><g><path d="M 10.9375 0 L 10.515625 -1.84375 C 9.566406 -0.414062 8.1875 0.296875 6.375 0.296875 C 4.625 0.296875 3.269531 -0.273438 2.3125 -1.421875 C 1.363281 -2.578125 0.890625 -4.28125 0.890625 -6.53125 C 0.890625 -8.757812 1.363281 -10.441406 2.3125 -11.578125 C 3.269531 -12.722656 4.625 -13.296875 6.375 -13.296875 C 7.875 -13.296875 9.085938 -12.796875 10.015625 -11.796875 L 10.015625 -17.859375 L 14.921875 -17.859375 L 14.921875 0 Z M 7.90625 -9.671875 C 6.488281 -9.671875 5.78125 -8.828125 5.78125 -7.140625 L 5.78125 -5.84375 C 5.78125 -4.164062 6.488281 -3.328125 7.90625 -3.328125 C 8.625 -3.328125 9.164062 -3.578125 9.53125 -4.078125 C 9.894531 -4.585938 10.078125 -5.253906 10.078125 -6.078125 L 10.078125 -6.890625 C 10.078125 -7.710938 9.894531 -8.378906 9.53125 -8.890625 C 9.164062 -9.410156 8.625 -9.671875 7.90625 -9.671875 Z M 7.90625 -9.671875 "/></g></g></g><g fill="#000000" fill-opacity="1"><g transform="translate(216.94377, 244.172747)"><g><path d="M 13.296875 -16.9375 L 20.046875 -16.9375 L 13.96875 -9.96875 L 20.171875 0 L 13.734375 0 L 10.21875 -6.203125 L 7.265625 -3.796875 L 7.265625 0 L 1.828125 0 L 1.828125 -16.9375 L 7.265625 -16.9375 L 7.265625 -9.703125 Z M 13.296875 -16.9375 "/></g></g></g><g fill="#000000" fill-opacity="1"><g transform="translate(237.460093, 244.172747)"><g><path d="M 1.65625 -14.53125 L 1.65625 -17.859375 L 6.546875 -17.859375 L 6.546875 -14.53125 Z M 1.65625 0 L 1.65625 -13 L 6.546875 -13 L 6.546875 0 Z M 1.65625 0 "/></g></g></g><g fill="#000000" fill-opacity="1"><g transform="translate(245.661704, 244.172747)"><g><path d="M 10.140625 -13 L 10.140625 -9.671875 L 7.390625 -9.671875 L 7.390625 -4.734375 C 7.390625 -4.140625 7.488281 -3.707031 7.6875 -3.4375 C 7.882812 -3.164062 8.242188 -3.03125 8.765625 -3.03125 L 10.140625 -3.03125 L 10.140625 -0.140625 C 9.742188 -0.015625 9.234375 0.0859375 8.609375 0.171875 C 7.992188 0.253906 7.457031 0.296875 7 0.296875 C 5.550781 0.296875 4.4375 0.0351562 3.65625 -0.484375 C 2.875 -1.015625 2.484375 -1.910156 2.484375 -3.171875 L 2.484375 -9.671875 L 0.671875 -9.671875 L 0.671875 -13 L 2.6875 -13 L 3.75 -16.9375 L 7.390625 -16.9375 L 7.390625 -13 Z M 10.140625 -13 "/></g></g></g><g fill="#000000" fill-opacity="1"><g transform="translate(29.83233, 274.004035)"><g/></g></g><g fill="#000000" fill-opacity="1"><g transform="translate(44.335163, 274.004035)"><g><path d="M 0.859375 0 L 0.859375 -8.796875 L 2.703125 -8.796875 L 2.703125 -1.421875 L 7.421875 -1.421875 L 7.421875 0 Z M 0.859375 0 "/></g></g></g><g fill="#000000" fill-opacity="1"><g transform="translate(53.861374, 274.004035)"><g><path d="M 0.859375 0 L 0.859375 -8.796875 L 7.78125 -8.796875 L 7.78125 -7.375 L 2.703125 -7.375 L 2.703125 -5.171875 L 7.390625 -5.171875 L 7.390625 -3.75 L 2.703125 -3.75 L 2.703125 -1.421875 L 8.03125 -1.421875 L 8.03125 0 Z M 0.859375 0 "/></g></g></g><g fill="#000000" fill-opacity="1"><g transform="translate(64.105658, 274.004035)"><g><path d="M 5.03125 -1.3125 C 5.507812 -1.3125 5.972656 -1.378906 6.421875 -1.515625 C 6.878906 -1.660156 7.226562 -1.84375 7.46875 -2.0625 L 7.46875 -3.28125 L 5.328125 -3.28125 L 5.328125 -4.640625 L 9.15625 -4.640625 L 9.15625 -1.40625 C 8.6875 -0.925781 8.078125 -0.550781 7.328125 -0.28125 C 6.585938 -0.0078125 5.804688 0.125 4.984375 0.125 C 3.554688 0.125 2.457031 -0.269531 1.6875 -1.0625 C 0.914062 -1.851562 0.53125 -2.976562 0.53125 -4.4375 C 0.53125 -5.882812 0.914062 -6.992188 1.6875 -7.765625 C 2.457031 -8.546875 3.570312 -8.9375 5.03125 -8.9375 C 7.09375 -8.9375 8.40625 -8.171875 8.96875 -6.640625 L 7.265625 -6.125 C 7.085938 -6.570312 6.800781 -6.910156 6.40625 -7.140625 C 6.019531 -7.367188 5.5625 -7.484375 5.03125 -7.484375 C 4.164062 -7.484375 3.503906 -7.21875 3.046875 -6.6875 C 2.597656 -6.164062 2.375 -5.414062 2.375 -4.4375 C 2.375 -3.445312 2.609375 -2.675781 3.078125 -2.125 C 3.546875 -1.582031 4.195312 -1.3125 5.03125 -1.3125 Z M 5.03125 -1.3125 "/></g></g></g><g fill="#000000" fill-opacity="1"><g transform="translate(75.767362, 274.004035)"><g><path d="M 0.859375 0 L 0.859375 -8.796875 L 7.78125 -8.796875 L 7.78125 -7.375 L 2.703125 -7.375 L 2.703125 -5.171875 L 7.390625 -5.171875 L 7.390625 -3.75 L 2.703125 -3.75 L 2.703125 -1.421875 L 8.03125 -1.421875 L 8.03125 0 Z M 0.859375 0 "/></g></g></g><g fill="#000000" fill-opacity="1"><g transform="translate(86.01165, 274.004035)"><g><path d="M 6.21875 0 L 2.375 -6.78125 C 2.457031 -6.125 2.5 -5.59375 2.5 -5.1875 L 2.5 0 L 0.859375 0 L 0.859375 -8.796875 L 2.96875 -8.796875 L 6.859375 -1.96875 C 6.773438 -2.59375 6.734375 -3.164062 6.734375 -3.6875 L 6.734375 -8.796875 L 8.375 -8.796875 L 8.375 0 Z M 6.21875 0 "/></g></g></g><g fill="#000000" fill-opacity="1"><g transform="translate(96.961524, 274.004035)"><g><path d="M 8.703125 -4.46875 C 8.703125 -3.5625 8.523438 -2.769531 8.171875 -2.09375 C 7.816406 -1.414062 7.3125 -0.894531 6.65625 -0.53125 C 6.007812 -0.175781 5.265625 0 4.421875 0 L 0.859375 0 L 0.859375 -8.796875 L 4.046875 -8.796875 C 5.523438 -8.796875 6.671875 -8.421875 7.484375 -7.671875 C 8.296875 -6.929688 8.703125 -5.863281 8.703125 -4.46875 Z M 6.84375 -4.46875 C 6.84375 -5.414062 6.597656 -6.132812 6.109375 -6.625 C 5.617188 -7.125 4.914062 -7.375 4 -7.375 L 2.703125 -7.375 L 2.703125 -1.421875 L 4.265625 -1.421875 C 5.054688 -1.421875 5.679688 -1.691406 6.140625 -2.234375 C 6.609375 -2.785156 6.84375 -3.53125 6.84375 -4.46875 Z M 6.84375 -4.46875 "/></g></g></g><g fill="#000000" fill-opacity="1"><g transform="translate(107.911397, 274.004035)"><g/></g></g><g fill="#000000" fill-opacity="1"><g transform="translate(113.179116, 274.004035)"><g><path d="M 8.171875 0 L 8.171875 -5.34375 C 8.171875 -5.457031 8.171875 -5.570312 8.171875 -5.6875 C 8.171875 -5.8125 8.191406 -6.332031 8.234375 -7.25 C 7.929688 -6.132812 7.710938 -5.351562 7.578125 -4.90625 L 5.984375 0 L 4.671875 0 L 3.09375 -4.90625 L 2.421875 -7.25 C 2.472656 -6.289062 2.5 -5.65625 2.5 -5.34375 L 2.5 0 L 0.859375 0 L 0.859375 -8.796875 L 3.328125 -8.796875 L 4.90625 -3.875 L 5.03125 -3.40625 L 5.34375 -2.21875 L 5.734375 -3.640625 L 7.34375 -8.796875 L 9.796875 -8.796875 L 9.796875 0 Z M 8.171875 0 "/></g></g></g><g fill="#000000" fill-opacity="1"><g transform="translate(125.546407, 274.004035)"><g><path d="M 7.078125 0 L 6.296875 -2.25 L 2.9375 -2.25 L 2.15625 0 L 0.3125 0 L 3.53125 -8.796875 L 5.703125 -8.796875 L 8.90625 0 Z M 4.625 -7.453125 L 4.578125 -7.3125 C 4.535156 -7.15625 4.484375 -6.984375 4.421875 -6.796875 C 4.367188 -6.609375 4.015625 -5.554688 3.359375 -3.640625 L 5.890625 -3.640625 L 5.015625 -6.171875 L 4.75 -7.015625 Z M 4.625 -7.453125 "/></g></g></g><g fill="#000000" fill-opacity="1"><g transform="translate(136.49628, 274.004035)"><g><path d="M 8.703125 -4.46875 C 8.703125 -3.5625 8.523438 -2.769531 8.171875 -2.09375 C 7.816406 -1.414062 7.3125 -0.894531 6.65625 -0.53125 C 6.007812 -0.175781 5.265625 0 4.421875 0 L 0.859375 0 L 0.859375 -8.796875 L 4.046875 -8.796875 C 5.523438 -8.796875 6.671875 -8.421875 7.484375 -7.671875 C 8.296875 -6.929688 8.703125 -5.863281 8.703125 -4.46875 Z M 6.84375 -4.46875 C 6.84375 -5.414062 6.597656 -6.132812 6.109375 -6.625 C 5.617188 -7.125 4.914062 -7.375 4 -7.375 L 2.703125 -7.375 L 2.703125 -1.421875 L 4.265625 -1.421875 C 5.054688 -1.421875 5.679688 -1.691406 6.140625 -2.234375 C 6.609375 -2.785156 6.84375 -3.53125 6.84375 -4.46875 Z M 6.84375 -4.46875 "/></g></g></g><g fill="#000000" fill-opacity="1"><g transform="translate(147.446154, 274.004035)"><g><path d="M 0.859375 0 L 0.859375 -8.796875 L 7.78125 -8.796875 L 7.78125 -7.375 L 2.703125 -7.375 L 2.703125 -5.171875 L 7.390625 -5.171875 L 7.390625 -3.75 L 2.703125 -3.75 L 2.703125 -1.421875 L 8.03125 -1.421875 L 8.03125 0 Z M 0.859375 0 "/></g></g></g><g fill="#000000" fill-opacity="1"><g transform="translate(157.690435, 274.004035)"><g/></g></g><g fill="#000000" fill-opacity="1"><g transform="translate(162.958147, 274.004035)"><g><path d="M 0.859375 0 L 0.859375 -8.796875 L 7.78125 -8.796875 L 7.78125 -7.375 L 2.703125 -7.375 L 2.703125 -5.171875 L 7.390625 -5.171875 L 7.390625 -3.75 L 2.703125 -3.75 L 2.703125 -1.421875 L 8.03125 -1.421875 L 8.03125 0 Z M 0.859375 0 "/></g></g></g><g fill="#000000" fill-opacity="1"><g transform="translate(173.202428, 274.004035)"><g><path d="M 7.078125 0 L 6.296875 -2.25 L 2.9375 -2.25 L 2.15625 0 L 0.3125 0 L 3.53125 -8.796875 L 5.703125 -8.796875 L 8.90625 0 Z M 4.625 -7.453125 L 4.578125 -7.3125 C 4.535156 -7.15625 4.484375 -6.984375 4.421875 -6.796875 C 4.367188 -6.609375 4.015625 -5.554688 3.359375 -3.640625 L 5.890625 -3.640625 L 5.015625 -6.171875 L 4.75 -7.015625 Z M 4.625 -7.453125 "/></g></g></g><g fill="#000000" fill-opacity="1"><g transform="translate(184.152295, 274.004035)"><g><path d="M 8.03125 -2.53125 C 8.03125 -1.675781 7.710938 -1.019531 7.078125 -0.5625 C 6.441406 -0.101562 5.503906 0.125 4.265625 0.125 C 3.128906 0.125 2.238281 -0.0703125 1.59375 -0.46875 C 0.957031 -0.875 0.550781 -1.484375 0.375 -2.296875 L 2.15625 -2.59375 C 2.269531 -2.125 2.5 -1.78125 2.84375 -1.5625 C 3.195312 -1.351562 3.6875 -1.25 4.3125 -1.25 C 5.601562 -1.25 6.25 -1.644531 6.25 -2.4375 C 6.25 -2.6875 6.171875 -2.890625 6.015625 -3.046875 C 5.867188 -3.210938 5.660156 -3.347656 5.390625 -3.453125 C 5.128906 -3.566406 4.613281 -3.695312 3.84375 -3.84375 C 3.1875 -4 2.726562 -4.125 2.46875 -4.21875 C 2.21875 -4.3125 1.988281 -4.421875 1.78125 -4.546875 C 1.570312 -4.679688 1.394531 -4.835938 1.25 -5.015625 C 1.101562 -5.191406 0.988281 -5.398438 0.90625 -5.640625 C 0.820312 -5.878906 0.78125 -6.15625 0.78125 -6.46875 C 0.78125 -7.269531 1.078125 -7.878906 1.671875 -8.296875 C 2.273438 -8.722656 3.144531 -8.9375 4.28125 -8.9375 C 5.375 -8.9375 6.191406 -8.765625 6.734375 -8.421875 C 7.285156 -8.078125 7.640625 -7.515625 7.796875 -6.734375 L 6.015625 -6.484375 C 5.921875 -6.859375 5.734375 -7.140625 5.453125 -7.328125 C 5.171875 -7.523438 4.769531 -7.625 4.25 -7.625 C 3.132812 -7.625 2.578125 -7.273438 2.578125 -6.578125 C 2.578125 -6.347656 2.632812 -6.160156 2.75 -6.015625 C 2.875 -5.867188 3.050781 -5.742188 3.28125 -5.640625 C 3.507812 -5.546875 3.984375 -5.421875 4.703125 -5.265625 C 5.546875 -5.085938 6.148438 -4.921875 6.515625 -4.765625 C 6.878906 -4.609375 7.164062 -4.429688 7.375 -4.234375 C 7.59375 -4.035156 7.753906 -3.796875 7.859375 -3.515625 C 7.972656 -3.234375 8.03125 -2.90625 8.03125 -2.53125 Z M 8.03125 -2.53125 "/></g></g></g><g fill="#000000" fill-opacity="1"><g transform="translate(194.396576, 274.004035)"><g><path d="M 5.1875 -3.609375 L 5.1875 0 L 3.359375 0 L 3.359375 -3.609375 L 0.21875 -8.796875 L 2.15625 -8.796875 L 4.265625 -5.078125 L 6.40625 -8.796875 L 8.328125 -8.796875 Z M 5.1875 -3.609375 "/></g></g></g><g fill="#000000" fill-opacity="1"><g transform="translate(204.640857, 274.004035)"><g/></g></g><g fill="#000000" fill-opacity="1"><g transform="translate(209.908569, 274.004035)"><g><path d="M 2.703125 -7.375 L 2.703125 -4.65625 L 7.203125 -4.65625 L 7.203125 -3.234375 L 2.703125 -3.234375 L 2.703125 0 L 0.859375 0 L 0.859375 -8.796875 L 7.34375 -8.796875 L 7.34375 -7.375 Z M 2.703125 -7.375 "/></g></g></g><g fill="#000000" fill-opacity="1"><g transform="translate(219.434775, 274.004035)"><g><path d="M 9.421875 -4.4375 C 9.421875 -3.519531 9.238281 -2.710938 8.875 -2.015625 C 8.507812 -1.328125 7.988281 -0.796875 7.3125 -0.421875 C 6.644531 -0.0546875 5.859375 0.125 4.953125 0.125 C 3.566406 0.125 2.484375 -0.28125 1.703125 -1.09375 C 0.921875 -1.90625 0.53125 -3.019531 0.53125 -4.4375 C 0.53125 -5.851562 0.921875 -6.957031 1.703125 -7.75 C 2.484375 -8.539062 3.570312 -8.9375 4.96875 -8.9375 C 6.363281 -8.9375 7.453125 -8.535156 8.234375 -7.734375 C 9.023438 -6.929688 9.421875 -5.832031 9.421875 -4.4375 Z M 7.53125 -4.4375 C 7.53125 -5.394531 7.304688 -6.140625 6.859375 -6.671875 C 6.410156 -7.210938 5.78125 -7.484375 4.96875 -7.484375 C 4.144531 -7.484375 3.503906 -7.210938 3.046875 -6.671875 C 2.597656 -6.140625 2.375 -5.394531 2.375 -4.4375 C 2.375 -3.476562 2.601562 -2.71875 3.0625 -2.15625 C 3.53125 -1.601562 4.160156 -1.328125 4.953125 -1.328125 C 5.773438 -1.328125 6.410156 -1.597656 6.859375 -2.140625 C 7.304688 -2.679688 7.53125 -3.445312 7.53125 -4.4375 Z M 7.53125 -4.4375 "/></g></g></g><g fill="#000000" fill-opacity="1"><g transform="translate(231.096473, 274.004035)"><g><path d="M 6.90625 0 L 4.859375 -3.34375 L 2.703125 -3.34375 L 2.703125 0 L 0.859375 0 L 0.859375 -8.796875 L 5.25 -8.796875 C 6.300781 -8.796875 7.113281 -8.570312 7.6875 -8.125 C 8.257812 -7.675781 8.546875 -7.03125 8.546875 -6.1875 C 8.546875 -5.5625 8.367188 -5.023438 8.015625 -4.578125 C 7.660156 -4.128906 7.1875 -3.835938 6.59375 -3.703125 L 8.984375 0 Z M 6.6875 -6.109375 C 6.6875 -6.953125 6.144531 -7.375 5.0625 -7.375 L 2.703125 -7.375 L 2.703125 -4.78125 L 5.109375 -4.78125 C 5.628906 -4.78125 6.019531 -4.894531 6.28125 -5.125 C 6.550781 -5.351562 6.6875 -5.679688 6.6875 -6.109375 Z M 6.6875 -6.109375 "/></g></g></g><g fill="#000000" fill-opacity="1"><g transform="translate(242.04634, 274.004035)"><g/></g></g><g fill="#000000" fill-opacity="1"><g transform="translate(247.314052, 274.004035)"><g><path d="M 8.171875 0 L 8.171875 -5.34375 C 8.171875 -5.457031 8.171875 -5.570312 8.171875 -5.6875 C 8.171875 -5.8125 8.191406 -6.332031 8.234375 -7.25 C 7.929688 -6.132812 7.710938 -5.351562 7.578125 -4.90625 L 5.984375 0 L 4.671875 0 L 3.09375 -4.90625 L 2.421875 -7.25 C 2.472656 -6.289062 2.5 -5.65625 2.5 -5.34375 L 2.5 0 L 0.859375 0 L 0.859375 -8.796875 L 3.328125 -8.796875 L 4.90625 -3.875 L 5.03125 -3.40625 L 5.34375 -2.21875 L 5.734375 -3.640625 L 7.34375 -8.796875 L 9.796875 -8.796875 L 9.796875 0 Z M 8.171875 0 "/></g></g></g><g fill="#000000" fill-opacity="1"><g transform="translate(259.681349, 274.004035)"><g><path d="M 7.078125 0 L 6.296875 -2.25 L 2.9375 -2.25 L 2.15625 0 L 0.3125 0 L 3.53125 -8.796875 L 5.703125 -8.796875 L 8.90625 0 Z M 4.625 -7.453125 L 4.578125 -7.3125 C 4.535156 -7.15625 4.484375 -6.984375 4.421875 -6.796875 C 4.367188 -6.609375 4.015625 -5.554688 3.359375 -3.640625 L 5.890625 -3.640625 L 5.015625 -6.171875 L 4.75 -7.015625 Z M 4.625 -7.453125 "/></g></g></g><g fill="#000000" fill-opacity="1"><g transform="translate(270.631229, 274.004035)"><g><path d="M 4.828125 -7.375 L 4.828125 0 L 2.984375 0 L 2.984375 -7.375 L 0.140625 -7.375 L 0.140625 -8.796875 L 7.671875 -8.796875 L 7.671875 -7.375 Z M 4.828125 -7.375 "/></g></g></g><g fill="#000000" fill-opacity="1"><g transform="translate(280.157449, 274.004035)"><g><path d="M 8.09375 -6.015625 C 8.09375 -5.453125 7.960938 -4.945312 7.703125 -4.5 C 7.453125 -4.050781 7.082031 -3.703125 6.59375 -3.453125 C 6.113281 -3.210938 5.546875 -3.09375 4.890625 -3.09375 L 2.703125 -3.09375 L 2.703125 0 L 0.859375 0 L 0.859375 -8.796875 L 4.8125 -8.796875 C 5.863281 -8.796875 6.671875 -8.550781 7.234375 -8.0625 C 7.804688 -7.582031 8.09375 -6.898438 8.09375 -6.015625 Z M 6.25 -5.984375 C 6.25 -6.910156 5.703125 -7.375 4.609375 -7.375 L 2.703125 -7.375 L 2.703125 -4.515625 L 4.65625 -4.515625 C 5.164062 -4.515625 5.554688 -4.640625 5.828125 -4.890625 C 6.109375 -5.148438 6.25 -5.515625 6.25 -5.984375 Z M 6.25 -5.984375 "/></g></g></g><g fill="#000000" fill-opacity="1"><g transform="translate(290.40173, 274.004035)"><g><path d="M 0.859375 0 L 0.859375 -8.796875 L 2.703125 -8.796875 L 2.703125 -1.421875 L 7.421875 -1.421875 L 7.421875 0 Z M 0.859375 0 "/></g></g></g><g fill="#000000" fill-opacity="1"><g transform="translate(299.92795, 274.004035)"><g><path d="M 9.421875 -4.4375 C 9.421875 -3.519531 9.238281 -2.710938 8.875 -2.015625 C 8.507812 -1.328125 7.988281 -0.796875 7.3125 -0.421875 C 6.644531 -0.0546875 5.859375 0.125 4.953125 0.125 C 3.566406 0.125 2.484375 -0.28125 1.703125 -1.09375 C 0.921875 -1.90625 0.53125 -3.019531 0.53125 -4.4375 C 0.53125 -5.851562 0.921875 -6.957031 1.703125 -7.75 C 2.484375 -8.539062 3.570312 -8.9375 4.96875 -8.9375 C 6.363281 -8.9375 7.453125 -8.535156 8.234375 -7.734375 C 9.023438 -6.929688 9.421875 -5.832031 9.421875 -4.4375 Z M 7.53125 -4.4375 C 7.53125 -5.394531 7.304688 -6.140625 6.859375 -6.671875 C 6.410156 -7.210938 5.78125 -7.484375 4.96875 -7.484375 C 4.144531 -7.484375 3.503906 -7.210938 3.046875 -6.671875 C 2.597656 -6.140625 2.375 -5.394531 2.375 -4.4375 C 2.375 -3.476562 2.601562 -2.71875 3.0625 -2.15625 C 3.53125 -1.601562 4.160156 -1.328125 4.953125 -1.328125 C 5.773438 -1.328125 6.410156 -1.597656 6.859375 -2.140625 C 7.304688 -2.679688 7.53125 -3.445312 7.53125 -4.4375 Z M 7.53125 -4.4375 "/></g></g></g><g fill="#000000" fill-opacity="1"><g transform="translate(311.58966, 274.004035)"><g><path d="M 4.828125 -7.375 L 4.828125 0 L 2.984375 0 L 2.984375 -7.375 L 0.140625 -7.375 L 0.140625 -8.796875 L 7.671875 -8.796875 L 7.671875 -7.375 Z M 4.828125 -7.375 "/></g></g></g><g fill="#000000" fill-opacity="1"><g transform="translate(321.11588, 274.004035)"><g><path d="M 0.859375 0 L 0.859375 -8.796875 L 2.703125 -8.796875 L 2.703125 -1.421875 L 7.421875 -1.421875 L 7.421875 0 Z M 0.859375 0 "/></g></g></g><g fill="#000000" fill-opacity="1"><g transform="translate(330.6421, 274.004035)"><g><path d="M 0.859375 0 L 0.859375 -8.796875 L 2.703125 -8.796875 L 2.703125 0 Z M 0.859375 0 "/></g></g></g><g fill="#000000" fill-opacity="1"><g transform="translate(335.909825, 274.004035)"><g><path d="M 8.65625 -2.515625 C 8.65625 -1.710938 8.351562 -1.09375 7.75 -0.65625 C 7.15625 -0.21875 6.328125 0 5.265625 0 L 0.859375 0 L 0.859375 -8.796875 L 4.890625 -8.796875 C 5.960938 -8.796875 6.773438 -8.609375 7.328125 -8.234375 C 7.878906 -7.867188 8.15625 -7.320312 8.15625 -6.59375 C 8.15625 -6.09375 8.015625 -5.671875 7.734375 -5.328125 C 7.460938 -4.984375 7.039062 -4.75 6.46875 -4.625 C 7.1875 -4.539062 7.726562 -4.316406 8.09375 -3.953125 C 8.46875 -3.585938 8.65625 -3.109375 8.65625 -2.515625 Z M 6.296875 -6.34375 C 6.296875 -6.738281 6.171875 -7.019531 5.921875 -7.1875 C 5.671875 -7.351562 5.296875 -7.4375 4.796875 -7.4375 L 2.703125 -7.4375 L 2.703125 -5.25 L 4.8125 -5.25 C 5.332031 -5.25 5.707031 -5.335938 5.9375 -5.515625 C 6.175781 -5.703125 6.296875 -5.976562 6.296875 -6.34375 Z M 6.8125 -2.65625 C 6.8125 -3.476562 6.21875 -3.890625 5.03125 -3.890625 L 2.703125 -3.890625 L 2.703125 -1.375 L 5.109375 -1.375 C 5.703125 -1.375 6.132812 -1.476562 6.40625 -1.6875 C 6.675781 -1.90625 6.8125 -2.226562 6.8125 -2.65625 Z M 6.8125 -2.65625 "/></g></g></g></svg>