<?xml version="1.0" encoding="utf-8" standalone="no"?>
<!DOCTYPE svg PUBLIC "-//W3C//DTD SVG 1.1//EN"
  "http://www.w3.org/Graphics/SVG/1.1/DTD/svg11.dtd">
<svg xmlns:xlink="http://www.w3.org/1999/xlink" width="78.185937pt" height="97.56pt" viewBox="0 0 78.185937 97.56" xmlns="http://www.w3.org/2000/svg" version="1.1">
 <metadata>
  <rdf:RDF xmlns:dc="http://purl.org/dc/elements/1.1/" xmlns:cc="http://creativecommons.org/ns#" xmlns:rdf="http://www.w3.org/1999/02/22-rdf-syntax-ns#">
   <cc:Work>
    <dc:type rdf:resource="http://purl.org/dc/dcmitype/StillImage"/>
    <dc:date>2022-05-26T16:00:52.324324</dc:date>
    <dc:format>image/svg+xml</dc:format>
    <dc:creator>
     <cc:Agent>
      <dc:title>Matplotlib v3.5.2, https://matplotlib.org/</dc:title>
     </cc:Agent>
    </dc:creator>
   </cc:Work>
  </rdf:RDF>
 </metadata>
 <defs>
  <style type="text/css">*{stroke-linejoin: round; stroke-linecap: butt}</style>
 </defs>
 <g id="figure_1">
  <g id="patch_1">
   <path d="M 0 97.56 
L 78.185937 97.56 
L 78.185937 0 
L 0 0 
z
" style="fill: #ffffff"/>
  </g>
  <g id="axes_1">
   <g id="legend_1">
    <g id="patch_2">
     <path d="M 17.7 29.937813 
L 24.7 29.937813 
L 24.7 22.937813 
L 17.7 22.937813 
z
" style="fill: #01949a; stroke: #01949a; stroke-linejoin: miter"/>
    </g>
    <g id="text_1">
     <!-- Item 1 -->
     <g style="fill: #262626" transform="translate(39.2 29.937813)scale(0.1 -0.1)">
      <defs>
       <path id="Helvetica-49" d="M 628 4591 
L 1256 4591 
L 1256 0 
L 628 0 
L 628 4591 
z
" transform="scale(0.015625)"/>
       <path id="Helvetica-74" d="M 525 4281 
L 1094 4281 
L 1094 3347 
L 1628 3347 
L 1628 2888 
L 1094 2888 
L 1094 703 
Q 1094 528 1213 469 
Q 1278 434 1431 434 
Q 1472 434 1519 436 
Q 1566 438 1628 444 
L 1628 0 
Q 1531 -28 1426 -40 
Q 1322 -53 1200 -53 
Q 806 -53 665 148 
Q 525 350 525 672 
L 525 2888 
L 72 2888 
L 72 3347 
L 525 3347 
L 525 4281 
z
" transform="scale(0.015625)"/>
       <path id="Helvetica-65" d="M 1806 3422 
Q 2163 3422 2497 3255 
Q 2831 3088 3006 2822 
Q 3175 2569 3231 2231 
Q 3281 2000 3281 1494 
L 828 1494 
Q 844 984 1069 676 
Q 1294 369 1766 369 
Q 2206 369 2469 659 
Q 2619 828 2681 1050 
L 3234 1050 
Q 3213 866 3089 639 
Q 2966 413 2813 269 
Q 2556 19 2178 -69 
Q 1975 -119 1719 -119 
Q 1094 -119 659 336 
Q 225 791 225 1609 
Q 225 2416 662 2919 
Q 1100 3422 1806 3422 
z
M 2703 1941 
Q 2669 2306 2544 2525 
Q 2313 2931 1772 2931 
Q 1384 2931 1121 2651 
Q 859 2372 844 1941 
L 2703 1941 
z
M 1753 3428 
L 1753 3428 
z
" transform="scale(0.015625)"/>
       <path id="Helvetica-6d" d="M 413 3347 
L 969 3347 
L 969 2872 
Q 1169 3119 1331 3231 
Q 1609 3422 1963 3422 
Q 2363 3422 2606 3225 
Q 2744 3113 2856 2894 
Q 3044 3163 3297 3292 
Q 3550 3422 3866 3422 
Q 4541 3422 4784 2934 
Q 4916 2672 4916 2228 
L 4916 0 
L 4331 0 
L 4331 2325 
Q 4331 2659 4164 2784 
Q 3997 2909 3756 2909 
Q 3425 2909 3186 2687 
Q 2947 2466 2947 1947 
L 2947 0 
L 2375 0 
L 2375 2184 
Q 2375 2525 2294 2681 
Q 2166 2916 1816 2916 
Q 1497 2916 1236 2669 
Q 975 2422 975 1775 
L 975 0 
L 413 0 
L 413 3347 
z
" transform="scale(0.015625)"/>
       <path id="Helvetica-20" transform="scale(0.015625)"/>
       <path id="Helvetica-31" d="M 613 3169 
L 613 3600 
Q 1222 3659 1462 3798 
Q 1703 3938 1822 4456 
L 2266 4456 
L 2266 0 
L 1666 0 
L 1666 3169 
L 613 3169 
z
" transform="scale(0.015625)"/>
      </defs>
      <use xlink:href="#Helvetica-49"/>
      <use xlink:href="#Helvetica-74" x="27.783203"/>
      <use xlink:href="#Helvetica-65" x="55.566406"/>
      <use xlink:href="#Helvetica-6d" x="111.181641"/>
      <use xlink:href="#Helvetica-20" x="194.482422"/>
      <use xlink:href="#Helvetica-31" x="222.265625"/>
     </g>
    </g>
    <g id="patch_3">
     <path d="M 21.2 44.195625 
C 22.128211 44.195625 23.01853 43.826843 23.674874 43.170499 
C 24.331218 42.514155 24.7 41.623836 24.7 40.695625 
C 24.7 39.767414 24.331218 38.877095 23.674874 38.220751 
C 23.01853 37.564407 22.128211 37.195625 21.2 37.195625 
C 20.271789 37.195625 19.38147 37.564407 18.725126 38.220751 
C 18.068782 38.877095 17.7 39.767414 17.7 40.695625 
C 17.7 41.623836 18.068782 42.514155 18.725126 43.170499 
C 19.38147 43.826843 20.271789 44.195625 21.2 44.195625 
z
" style="fill: #004369; stroke: #db1f48; stroke-width: 0.5; stroke-linejoin: miter"/>
    </g>
    <g id="text_2">
     <!-- Item 2 -->
     <g style="fill: #262626" transform="translate(39.2 44.195625)scale(0.1 -0.1)">
      <defs>
       <path id="Helvetica-32" d="M 200 0 
Q 231 578 439 1006 
Q 647 1434 1250 1784 
L 1850 2131 
Q 2253 2366 2416 2531 
Q 2672 2791 2672 3125 
Q 2672 3516 2437 3745 
Q 2203 3975 1813 3975 
Q 1234 3975 1013 3538 
Q 894 3303 881 2888 
L 309 2888 
Q 319 3472 525 3841 
Q 891 4491 1816 4491 
Q 2584 4491 2939 4075 
Q 3294 3659 3294 3150 
Q 3294 2613 2916 2231 
Q 2697 2009 2131 1694 
L 1703 1456 
Q 1397 1288 1222 1134 
Q 909 863 828 531 
L 3272 531 
L 3272 0 
L 200 0 
z
" transform="scale(0.015625)"/>
      </defs>
      <use xlink:href="#Helvetica-49"/>
      <use xlink:href="#Helvetica-74" x="27.783203"/>
      <use xlink:href="#Helvetica-65" x="55.566406"/>
      <use xlink:href="#Helvetica-6d" x="111.181641"/>
      <use xlink:href="#Helvetica-20" x="194.482422"/>
      <use xlink:href="#Helvetica-32" x="222.265625"/>
     </g>
    </g>
    <g id="patch_4">
     <path d="M 11.2 58.453438 
L 31.2 58.453438 
L 31.2 51.453438 
L 11.2 51.453438 
z
" style="fill: #e5ddc8; stroke: #e5ddc8; stroke-linejoin: miter"/>
    </g>
    <g id="text_3">
     <!-- Item 3 -->
     <g style="fill: #262626" transform="translate(39.2 58.453438)scale(0.1 -0.1)">
      <defs>
       <path id="Helvetica-33" d="M 1663 -122 
Q 869 -122 511 314 
Q 153 750 153 1375 
L 741 1375 
Q 778 941 903 744 
Q 1122 391 1694 391 
Q 2138 391 2406 628 
Q 2675 866 2675 1241 
Q 2675 1703 2392 1887 
Q 2109 2072 1606 2072 
Q 1550 2072 1492 2070 
Q 1434 2069 1375 2066 
L 1375 2563 
Q 1463 2553 1522 2550 
Q 1581 2547 1650 2547 
Q 1966 2547 2169 2647 
Q 2525 2822 2525 3272 
Q 2525 3606 2287 3787 
Q 2050 3969 1734 3969 
Q 1172 3969 956 3594 
Q 838 3388 822 3006 
L 266 3006 
Q 266 3506 466 3856 
Q 809 4481 1675 4481 
Q 2359 4481 2734 4176 
Q 3109 3872 3109 3294 
Q 3109 2881 2888 2625 
Q 2750 2466 2531 2375 
Q 2884 2278 3082 2001 
Q 3281 1725 3281 1325 
Q 3281 684 2859 281 
Q 2438 -122 1663 -122 
z
" transform="scale(0.015625)"/>
      </defs>
      <use xlink:href="#Helvetica-49"/>
      <use xlink:href="#Helvetica-74" x="27.783203"/>
      <use xlink:href="#Helvetica-65" x="55.566406"/>
      <use xlink:href="#Helvetica-6d" x="111.181641"/>
      <use xlink:href="#Helvetica-20" x="194.482422"/>
      <use xlink:href="#Helvetica-33" x="222.265625"/>
     </g>
    </g>
    <g id="line2d_1">
     <path d="M 11.2 69.21125 
L 21.2 69.21125 
L 31.2 69.21125 
" style="fill: none; stroke: #5a5b9f; stroke-width: 1.5; stroke-linecap: round"/>
    </g>
    <g id="text_4">
     <!-- Item 4 -->
     <g style="fill: #262626" transform="translate(39.2 72.71125)scale(0.1 -0.1)">
      <defs>
       <path id="Helvetica-34" d="M 2116 1584 
L 2116 3613 
L 681 1584 
L 2116 1584 
z
M 2125 0 
L 2125 1094 
L 163 1094 
L 163 1644 
L 2213 4488 
L 2688 4488 
L 2688 1584 
L 3347 1584 
L 3347 1094 
L 2688 1094 
L 2688 0 
L 2125 0 
z
" transform="scale(0.015625)"/>
      </defs>
      <use xlink:href="#Helvetica-49"/>
      <use xlink:href="#Helvetica-74" x="27.783203"/>
      <use xlink:href="#Helvetica-65" x="55.566406"/>
      <use xlink:href="#Helvetica-6d" x="111.181641"/>
      <use xlink:href="#Helvetica-20" x="194.482422"/>
      <use xlink:href="#Helvetica-34" x="222.265625"/>
     </g>
    </g>
   </g>
  </g>
 </g>
</svg>
