<?xml version="1.0" encoding="utf-8" standalone="no"?>
<!DOCTYPE svg PUBLIC "-//W3C//DTD SVG 1.1//EN"
  "http://www.w3.org/Graphics/SVG/1.1/DTD/svg11.dtd">
<svg xmlns:xlink="http://www.w3.org/1999/xlink" width="600.511903pt" height="208.108438pt" viewBox="0 0 600.511903 208.108438" xmlns="http://www.w3.org/2000/svg" version="1.1">
 <metadata>
  <rdf:RDF xmlns:dc="http://purl.org/dc/elements/1.1/" xmlns:cc="http://creativecommons.org/ns#" xmlns:rdf="http://www.w3.org/1999/02/22-rdf-syntax-ns#">
   <cc:Work>
    <dc:type rdf:resource="http://purl.org/dc/dcmitype/StillImage"/>
    <dc:date>2022-09-01T17:24:59.570729</dc:date>
    <dc:format>image/svg+xml</dc:format>
    <dc:creator>
     <cc:Agent>
      <dc:title>Matplotlib v3.5.3, https://matplotlib.org/</dc:title>
     </cc:Agent>
    </dc:creator>
   </cc:Work>
  </rdf:RDF>
 </metadata>
 <defs>
  <style type="text/css">*{stroke-linejoin: round; stroke-linecap: butt}</style>
 </defs>
 <g id="figure_1">
  <g id="patch_1">
   <path d="M 0 208.108438 
L 600.511903 208.108438 
L 600.511903 -0 
L 0 -0 
z
" style="fill: #ffffff"/>
  </g>
  <g id="axes_1">
   <g id="patch_2">
    <path d="M 30.440625 188.263125 
L 233.349716 188.263125 
L 233.349716 21.943125 
L 30.440625 21.943125 
z
" style="fill: #eaeaf2"/>
   </g>
   <g id="matplotlib.axis_1">
    <g id="xtick_1">
     <g id="line2d_1">
      <path d="M 39.663765 188.263125 
L 39.663765 21.943125 
" clip-path="url(#pc9ea14c854)" style="fill: none; stroke: #ffffff; stroke-width: 0.8; stroke-linecap: round"/>
     </g>
     <g id="line2d_2"/>
     <g id="text_1">
      <!-- 0 -->
      <g style="fill: #262626" transform="translate(36.883297 198.920938)scale(0.1 -0.1)">
       <defs>
        <path id="ArialMT-30" d="M 266 2259 
Q 266 3072 433 3567 
Q 600 4063 929 4331 
Q 1259 4600 1759 4600 
Q 2128 4600 2406 4451 
Q 2684 4303 2865 4023 
Q 3047 3744 3150 3342 
Q 3253 2941 3253 2259 
Q 3253 1453 3087 958 
Q 2922 463 2592 192 
Q 2263 -78 1759 -78 
Q 1097 -78 719 397 
Q 266 969 266 2259 
z
M 844 2259 
Q 844 1131 1108 757 
Q 1372 384 1759 384 
Q 2147 384 2411 759 
Q 2675 1134 2675 2259 
Q 2675 3391 2411 3762 
Q 2147 4134 1753 4134 
Q 1366 4134 1134 3806 
Q 844 3388 844 2259 
z
" transform="scale(0.015625)"/>
       </defs>
       <use xlink:href="#ArialMT-30"/>
      </g>
     </g>
    </g>
    <g id="xtick_2">
     <g id="line2d_3">
      <path d="M 76.92898 188.263125 
L 76.92898 21.943125 
" clip-path="url(#pc9ea14c854)" style="fill: none; stroke: #ffffff; stroke-width: 0.8; stroke-linecap: round"/>
     </g>
     <g id="line2d_4"/>
     <g id="text_2">
      <!-- 2 -->
      <g style="fill: #262626" transform="translate(74.148511 198.920938)scale(0.1 -0.1)">
       <defs>
        <path id="ArialMT-32" d="M 3222 541 
L 3222 0 
L 194 0 
Q 188 203 259 391 
Q 375 700 629 1000 
Q 884 1300 1366 1694 
Q 2113 2306 2375 2664 
Q 2638 3022 2638 3341 
Q 2638 3675 2398 3904 
Q 2159 4134 1775 4134 
Q 1369 4134 1125 3890 
Q 881 3647 878 3216 
L 300 3275 
Q 359 3922 746 4261 
Q 1134 4600 1788 4600 
Q 2447 4600 2831 4234 
Q 3216 3869 3216 3328 
Q 3216 3053 3103 2787 
Q 2991 2522 2730 2228 
Q 2469 1934 1863 1422 
Q 1356 997 1212 845 
Q 1069 694 975 541 
L 3222 541 
z
" transform="scale(0.015625)"/>
       </defs>
       <use xlink:href="#ArialMT-32"/>
      </g>
     </g>
    </g>
    <g id="xtick_3">
     <g id="line2d_5">
      <path d="M 114.194194 188.263125 
L 114.194194 21.943125 
" clip-path="url(#pc9ea14c854)" style="fill: none; stroke: #ffffff; stroke-width: 0.8; stroke-linecap: round"/>
     </g>
     <g id="line2d_6"/>
     <g id="text_3">
      <!-- 4 -->
      <g style="fill: #262626" transform="translate(111.413725 198.920938)scale(0.1 -0.1)">
       <defs>
        <path id="ArialMT-34" d="M 2069 0 
L 2069 1097 
L 81 1097 
L 81 1613 
L 2172 4581 
L 2631 4581 
L 2631 1613 
L 3250 1613 
L 3250 1097 
L 2631 1097 
L 2631 0 
L 2069 0 
z
M 2069 1613 
L 2069 3678 
L 634 1613 
L 2069 1613 
z
" transform="scale(0.015625)"/>
       </defs>
       <use xlink:href="#ArialMT-34"/>
      </g>
     </g>
    </g>
    <g id="xtick_4">
     <g id="line2d_7">
      <path d="M 151.459408 188.263125 
L 151.459408 21.943125 
" clip-path="url(#pc9ea14c854)" style="fill: none; stroke: #ffffff; stroke-width: 0.8; stroke-linecap: round"/>
     </g>
     <g id="line2d_8"/>
     <g id="text_4">
      <!-- 6 -->
      <g style="fill: #262626" transform="translate(148.678939 198.920938)scale(0.1 -0.1)">
       <defs>
        <path id="ArialMT-36" d="M 3184 3459 
L 2625 3416 
Q 2550 3747 2413 3897 
Q 2184 4138 1850 4138 
Q 1581 4138 1378 3988 
Q 1113 3794 959 3422 
Q 806 3050 800 2363 
Q 1003 2672 1297 2822 
Q 1591 2972 1913 2972 
Q 2475 2972 2870 2558 
Q 3266 2144 3266 1488 
Q 3266 1056 3080 686 
Q 2894 316 2569 119 
Q 2244 -78 1831 -78 
Q 1128 -78 684 439 
Q 241 956 241 2144 
Q 241 3472 731 4075 
Q 1159 4600 1884 4600 
Q 2425 4600 2770 4297 
Q 3116 3994 3184 3459 
z
M 888 1484 
Q 888 1194 1011 928 
Q 1134 663 1356 523 
Q 1578 384 1822 384 
Q 2178 384 2434 671 
Q 2691 959 2691 1453 
Q 2691 1928 2437 2201 
Q 2184 2475 1800 2475 
Q 1419 2475 1153 2201 
Q 888 1928 888 1484 
z
" transform="scale(0.015625)"/>
       </defs>
       <use xlink:href="#ArialMT-36"/>
      </g>
     </g>
    </g>
    <g id="xtick_5">
     <g id="line2d_9">
      <path d="M 188.724622 188.263125 
L 188.724622 21.943125 
" clip-path="url(#pc9ea14c854)" style="fill: none; stroke: #ffffff; stroke-width: 0.8; stroke-linecap: round"/>
     </g>
     <g id="line2d_10"/>
     <g id="text_5">
      <!-- 8 -->
      <g style="fill: #262626" transform="translate(185.944153 198.920938)scale(0.1 -0.1)">
       <defs>
        <path id="ArialMT-38" d="M 1131 2484 
Q 781 2613 612 2850 
Q 444 3088 444 3419 
Q 444 3919 803 4259 
Q 1163 4600 1759 4600 
Q 2359 4600 2725 4251 
Q 3091 3903 3091 3403 
Q 3091 3084 2923 2848 
Q 2756 2613 2416 2484 
Q 2838 2347 3058 2040 
Q 3278 1734 3278 1309 
Q 3278 722 2862 322 
Q 2447 -78 1769 -78 
Q 1091 -78 675 323 
Q 259 725 259 1325 
Q 259 1772 486 2073 
Q 713 2375 1131 2484 
z
M 1019 3438 
Q 1019 3113 1228 2906 
Q 1438 2700 1772 2700 
Q 2097 2700 2305 2904 
Q 2513 3109 2513 3406 
Q 2513 3716 2298 3927 
Q 2084 4138 1766 4138 
Q 1444 4138 1231 3931 
Q 1019 3725 1019 3438 
z
M 838 1322 
Q 838 1081 952 856 
Q 1066 631 1291 507 
Q 1516 384 1775 384 
Q 2178 384 2440 643 
Q 2703 903 2703 1303 
Q 2703 1709 2433 1975 
Q 2163 2241 1756 2241 
Q 1359 2241 1098 1978 
Q 838 1716 838 1322 
z
" transform="scale(0.015625)"/>
       </defs>
       <use xlink:href="#ArialMT-38"/>
      </g>
     </g>
    </g>
    <g id="xtick_6">
     <g id="line2d_11">
      <path d="M 225.989836 188.263125 
L 225.989836 21.943125 
" clip-path="url(#pc9ea14c854)" style="fill: none; stroke: #ffffff; stroke-width: 0.8; stroke-linecap: round"/>
     </g>
     <g id="line2d_12"/>
     <g id="text_6">
      <!-- 10 -->
      <g style="fill: #262626" transform="translate(220.428899 198.920938)scale(0.1 -0.1)">
       <defs>
        <path id="ArialMT-31" d="M 2384 0 
L 1822 0 
L 1822 3584 
Q 1619 3391 1289 3197 
Q 959 3003 697 2906 
L 697 3450 
Q 1169 3672 1522 3987 
Q 1875 4303 2022 4600 
L 2384 4600 
L 2384 0 
z
" transform="scale(0.015625)"/>
       </defs>
       <use xlink:href="#ArialMT-31"/>
       <use xlink:href="#ArialMT-30" x="55.615234"/>
      </g>
     </g>
    </g>
   </g>
   <g id="matplotlib.axis_2">
    <g id="ytick_1">
     <g id="line2d_13">
      <path d="M 30.440625 180.708927 
L 233.349716 180.708927 
" clip-path="url(#pc9ea14c854)" style="fill: none; stroke: #ffffff; stroke-width: 0.8; stroke-linecap: round"/>
     </g>
     <g id="line2d_14"/>
     <g id="text_7">
      <!-- −1.0 -->
      <g style="fill: #262626" transform="translate(7.2 184.287833)scale(0.1 -0.1)">
       <defs>
        <path id="ArialMT-2212" d="M 3381 1997 
L 356 1997 
L 356 2522 
L 3381 2522 
L 3381 1997 
z
" transform="scale(0.015625)"/>
        <path id="ArialMT-2e" d="M 581 0 
L 581 641 
L 1222 641 
L 1222 0 
L 581 0 
z
" transform="scale(0.015625)"/>
       </defs>
       <use xlink:href="#ArialMT-2212"/>
       <use xlink:href="#ArialMT-31" x="58.398438"/>
       <use xlink:href="#ArialMT-2e" x="114.013672"/>
       <use xlink:href="#ArialMT-30" x="141.796875"/>
      </g>
     </g>
    </g>
    <g id="ytick_2">
     <g id="line2d_15">
      <path d="M 30.440625 142.907476 
L 233.349716 142.907476 
" clip-path="url(#pc9ea14c854)" style="fill: none; stroke: #ffffff; stroke-width: 0.8; stroke-linecap: round"/>
     </g>
     <g id="line2d_16"/>
     <g id="text_8">
      <!-- −0.5 -->
      <g style="fill: #262626" transform="translate(7.2 146.486383)scale(0.1 -0.1)">
       <defs>
        <path id="ArialMT-35" d="M 266 1200 
L 856 1250 
Q 922 819 1161 601 
Q 1400 384 1738 384 
Q 2144 384 2425 690 
Q 2706 997 2706 1503 
Q 2706 1984 2436 2262 
Q 2166 2541 1728 2541 
Q 1456 2541 1237 2417 
Q 1019 2294 894 2097 
L 366 2166 
L 809 4519 
L 3088 4519 
L 3088 3981 
L 1259 3981 
L 1013 2750 
Q 1425 3038 1878 3038 
Q 2478 3038 2890 2622 
Q 3303 2206 3303 1553 
Q 3303 931 2941 478 
Q 2500 -78 1738 -78 
Q 1113 -78 717 272 
Q 322 622 266 1200 
z
" transform="scale(0.015625)"/>
       </defs>
       <use xlink:href="#ArialMT-2212"/>
       <use xlink:href="#ArialMT-30" x="58.398438"/>
       <use xlink:href="#ArialMT-2e" x="114.013672"/>
       <use xlink:href="#ArialMT-35" x="141.796875"/>
      </g>
     </g>
    </g>
    <g id="ytick_3">
     <g id="line2d_17">
      <path d="M 30.440625 105.106026 
L 233.349716 105.106026 
" clip-path="url(#pc9ea14c854)" style="fill: none; stroke: #ffffff; stroke-width: 0.8; stroke-linecap: round"/>
     </g>
     <g id="line2d_18"/>
     <g id="text_9">
      <!-- 0.0 -->
      <g style="fill: #262626" transform="translate(13.040625 108.684932)scale(0.1 -0.1)">
       <use xlink:href="#ArialMT-30"/>
       <use xlink:href="#ArialMT-2e" x="55.615234"/>
       <use xlink:href="#ArialMT-30" x="83.398438"/>
      </g>
     </g>
    </g>
    <g id="ytick_4">
     <g id="line2d_19">
      <path d="M 30.440625 67.304575 
L 233.349716 67.304575 
" clip-path="url(#pc9ea14c854)" style="fill: none; stroke: #ffffff; stroke-width: 0.8; stroke-linecap: round"/>
     </g>
     <g id="line2d_20"/>
     <g id="text_10">
      <!-- 0.5 -->
      <g style="fill: #262626" transform="translate(13.040625 70.883482)scale(0.1 -0.1)">
       <use xlink:href="#ArialMT-30"/>
       <use xlink:href="#ArialMT-2e" x="55.615234"/>
       <use xlink:href="#ArialMT-35" x="83.398438"/>
      </g>
     </g>
    </g>
    <g id="ytick_5">
     <g id="line2d_21">
      <path d="M 30.440625 29.503125 
L 233.349716 29.503125 
" clip-path="url(#pc9ea14c854)" style="fill: none; stroke: #ffffff; stroke-width: 0.8; stroke-linecap: round"/>
     </g>
     <g id="line2d_22"/>
     <g id="text_11">
      <!-- 1.0 -->
      <g style="fill: #262626" transform="translate(13.040625 33.082031)scale(0.1 -0.1)">
       <use xlink:href="#ArialMT-31"/>
       <use xlink:href="#ArialMT-2e" x="55.615234"/>
       <use xlink:href="#ArialMT-30" x="83.398438"/>
      </g>
     </g>
    </g>
   </g>
   <g id="line2d_23">
    <path d="M 39.663765 105.106026 
L 41.527026 97.55833 
L 43.390287 90.086048 
L 45.253548 82.763841 
L 47.116808 75.66487 
L 48.980069 68.860064 
L 50.84333 62.417417 
L 52.70659 56.4013 
L 54.569851 50.871824 
L 56.433112 45.884239 
L 58.296373 41.488378 
L 60.159633 37.728164 
L 62.022894 34.641167 
L 63.886155 32.258232 
L 65.749415 30.603168 
L 67.612676 29.692511 
L 69.475937 29.535362 
L 71.339198 30.13329 
L 73.202458 31.48032 
L 75.065719 33.562994 
L 76.92898 36.360503 
L 78.79224 39.844894 
L 80.655501 43.981352 
L 82.518762 48.728549 
L 84.382022 54.03905 
L 86.245283 59.859796 
L 88.108544 66.132627 
L 89.971805 72.794867 
L 91.835065 79.77995 
L 93.698326 87.018083 
L 95.561587 94.436944 
L 97.424847 101.962407 
L 99.288108 109.519281 
L 101.151369 117.032058 
L 103.01463 124.425675 
L 104.87789 131.626256 
L 106.741151 138.561855 
L 108.604412 145.163175 
L 110.467672 151.364258 
L 112.330933 157.103143 
L 114.194194 162.32249 
L 116.057454 166.970149 
L 117.920715 170.999683 
L 119.783976 174.370829 
L 121.647237 177.049903 
L 123.510497 179.010139 
L 125.373758 180.231949 
L 127.237019 180.703125 
L 129.100279 180.41896 
L 130.96354 179.382294 
L 132.826801 177.603483 
L 134.690062 175.100302 
L 136.553322 171.897761 
L 138.416583 168.027859 
L 140.279844 163.529263 
L 142.143104 158.446921 
L 144.006365 152.831615 
L 145.869626 146.739451 
L 147.732886 140.231299 
L 149.596147 133.372186 
L 151.459408 126.230648 
L 153.322669 118.87804 
L 155.185929 111.387826 
L 157.04919 103.834846 
L 158.912451 96.294568 
L 160.775711 88.842331 
L 162.638972 81.552595 
L 164.502233 74.498198 
L 166.365494 67.749623 
L 168.228754 61.374302 
L 170.092015 55.435933 
L 171.955276 49.993852 
L 173.818536 45.102433 
L 175.681797 40.81055 
L 177.545058 37.161087 
L 179.408318 34.190507 
L 181.271579 31.928491 
L 183.13484 30.397641 
L 184.998101 29.613252 
L 186.861361 29.583163 
L 188.724622 30.307672 
L 190.587883 31.779543 
L 192.451143 33.984067 
L 194.314404 36.899218 
L 196.177665 40.495869 
L 198.040926 44.738084 
L 199.904186 49.583475 
L 201.767447 54.983629 
L 203.630708 60.884589 
L 205.493968 67.227396 
L 207.357229 73.948673 
L 209.22049 80.981264 
L 211.08375 88.254902 
L 212.947011 95.696911 
L 214.810272 103.232932 
L 216.673533 110.787669 
L 218.536793 118.285636 
L 220.400054 125.651918 
L 222.263315 132.812911 
L 224.126575 139.697067 
" clip-path="url(#pc9ea14c854)" style="fill: none; stroke: #5a5b9f; stroke-width: 1.5; stroke-linecap: round"/>
   </g>
   <g id="line2d_24">
    <path d="M 39.663765 29.503125 
L 41.527026 29.880825 
L 43.390287 31.01015 
L 45.253548 32.879816 
L 47.116808 35.471143 
L 48.980069 38.758238 
L 50.84333 42.708259 
L 52.70659 47.281738 
L 54.569851 52.432978 
L 56.433112 58.110509 
L 58.296373 64.257604 
L 60.159633 70.812843 
L 62.022894 77.710729 
L 63.886155 84.882339 
L 65.749415 92.256017 
L 67.612676 99.758088 
L 69.475937 107.313595 
L 71.339198 114.847044 
L 73.202458 122.283163 
L 75.065719 129.547655 
L 76.92898 136.567934 
L 78.79224 143.273856 
L 80.655501 149.598418 
L 82.518762 155.478426 
L 84.382022 160.85513 
L 86.245283 165.674807 
L 88.108544 169.889302 
L 89.971805 173.456503 
L 91.835065 176.340768 
L 93.698326 178.51328 
L 95.561587 179.952331 
L 97.424847 180.643542 
L 99.288108 180.580007 
L 101.151369 179.762361 
L 103.01463 178.198774 
L 104.87789 175.904868 
L 106.741151 172.903564 
L 108.604412 169.224849 
L 110.467672 164.90548 
L 112.330933 159.988614 
L 114.194194 154.52338 
L 116.057454 148.564384 
L 117.920715 142.171166 
L 119.783976 135.407606 
L 121.647237 128.341283 
L 123.510497 121.0428 
L 125.373758 113.585082 
L 127.237019 106.042645 
L 129.100279 98.490849 
L 130.96354 91.00515 
L 132.826801 83.660342 
L 134.690062 76.529812 
L 136.553322 69.684806 
L 138.416583 63.193718 
L 140.279844 57.121403 
L 142.143104 51.528535 
L 144.006365 46.470996 
L 145.869626 41.999318 
L 147.732886 38.158182 
L 149.596147 34.985966 
L 151.459408 32.514367 
L 153.322669 30.76808 
L 155.185929 29.764552 
L 157.04919 29.513812 
L 158.912451 30.018365 
L 160.775711 31.273168 
L 162.638972 33.265685 
L 164.502233 35.976007 
L 166.365494 39.377054 
L 168.228754 43.434842 
L 170.092015 48.108828 
L 171.955276 53.352312 
L 173.818536 59.112902 
L 175.681797 65.33304 
L 177.545058 71.950576 
L 179.408318 78.89939 
L 181.271579 86.110053 
L 183.13484 93.510517 
L 184.998101 101.02684 
L 186.861361 108.58392 
L 188.724622 116.106251 
L 190.587883 123.518671 
L 192.451143 130.747117 
L 194.314404 137.719367 
L 196.177665 144.365755 
L 198.040926 150.619872 
L 199.904186 156.419231 
L 201.767447 161.705884 
L 203.630708 166.427011 
L 205.493968 170.535438 
L 207.357229 173.990117 
L 209.22049 176.756528 
L 211.08375 178.807032 
L 212.947011 180.121139 
L 214.810272 180.68572 
L 216.673533 180.495134 
L 218.536793 179.551284 
L 220.400054 177.863603 
L 222.263315 175.448951 
L 224.126575 172.331457 
" clip-path="url(#pc9ea14c854)" style="fill: none; stroke: #d94f70; stroke-width: 1.5; stroke-linecap: round"/>
   </g>
   <g id="patch_3">
    <path d="M 30.440625 188.263125 
L 30.440625 21.943125 
" style="fill: none"/>
   </g>
   <g id="patch_4">
    <path d="M 233.349716 188.263125 
L 233.349716 21.943125 
" style="fill: none"/>
   </g>
   <g id="patch_5">
    <path d="M 30.440625 188.263125 
L 233.349716 188.263125 
" style="fill: none"/>
   </g>
   <g id="patch_6">
    <path d="M 30.440625 21.943125 
L 233.349716 21.943125 
" style="fill: none"/>
   </g>
   <g id="text_12">
    <!-- Old way -->
    <g style="fill: #262626" transform="translate(110.222045 15.943125)scale(0.12 -0.12)">
     <defs>
      <path id="ArialMT-4f" d="M 309 2231 
Q 309 3372 921 4017 
Q 1534 4663 2503 4663 
Q 3138 4663 3647 4359 
Q 4156 4056 4423 3514 
Q 4691 2972 4691 2284 
Q 4691 1588 4409 1038 
Q 4128 488 3612 205 
Q 3097 -78 2500 -78 
Q 1853 -78 1343 234 
Q 834 547 571 1087 
Q 309 1628 309 2231 
z
M 934 2222 
Q 934 1394 1379 917 
Q 1825 441 2497 441 
Q 3181 441 3623 922 
Q 4066 1403 4066 2288 
Q 4066 2847 3877 3264 
Q 3688 3681 3323 3911 
Q 2959 4141 2506 4141 
Q 1863 4141 1398 3698 
Q 934 3256 934 2222 
z
" transform="scale(0.015625)"/>
      <path id="ArialMT-6c" d="M 409 0 
L 409 4581 
L 972 4581 
L 972 0 
L 409 0 
z
" transform="scale(0.015625)"/>
      <path id="ArialMT-64" d="M 2575 0 
L 2575 419 
Q 2259 -75 1647 -75 
Q 1250 -75 917 144 
Q 584 363 401 755 
Q 219 1147 219 1656 
Q 219 2153 384 2558 
Q 550 2963 881 3178 
Q 1213 3394 1622 3394 
Q 1922 3394 2156 3267 
Q 2391 3141 2538 2938 
L 2538 4581 
L 3097 4581 
L 3097 0 
L 2575 0 
z
M 797 1656 
Q 797 1019 1065 703 
Q 1334 388 1700 388 
Q 2069 388 2326 689 
Q 2584 991 2584 1609 
Q 2584 2291 2321 2609 
Q 2059 2928 1675 2928 
Q 1300 2928 1048 2622 
Q 797 2316 797 1656 
z
" transform="scale(0.015625)"/>
      <path id="ArialMT-20" transform="scale(0.015625)"/>
      <path id="ArialMT-77" d="M 1034 0 
L 19 3319 
L 600 3319 
L 1128 1403 
L 1325 691 
Q 1338 744 1497 1375 
L 2025 3319 
L 2603 3319 
L 3100 1394 
L 3266 759 
L 3456 1400 
L 4025 3319 
L 4572 3319 
L 3534 0 
L 2950 0 
L 2422 1988 
L 2294 2553 
L 1622 0 
L 1034 0 
z
" transform="scale(0.015625)"/>
      <path id="ArialMT-61" d="M 2588 409 
Q 2275 144 1986 34 
Q 1697 -75 1366 -75 
Q 819 -75 525 192 
Q 231 459 231 875 
Q 231 1119 342 1320 
Q 453 1522 633 1644 
Q 813 1766 1038 1828 
Q 1203 1872 1538 1913 
Q 2219 1994 2541 2106 
Q 2544 2222 2544 2253 
Q 2544 2597 2384 2738 
Q 2169 2928 1744 2928 
Q 1347 2928 1158 2789 
Q 969 2650 878 2297 
L 328 2372 
Q 403 2725 575 2942 
Q 747 3159 1072 3276 
Q 1397 3394 1825 3394 
Q 2250 3394 2515 3294 
Q 2781 3194 2906 3042 
Q 3031 2891 3081 2659 
Q 3109 2516 3109 2141 
L 3109 1391 
Q 3109 606 3145 398 
Q 3181 191 3288 0 
L 2700 0 
Q 2613 175 2588 409 
z
M 2541 1666 
Q 2234 1541 1622 1453 
Q 1275 1403 1131 1340 
Q 988 1278 909 1158 
Q 831 1038 831 891 
Q 831 666 1001 516 
Q 1172 366 1500 366 
Q 1825 366 2078 508 
Q 2331 650 2450 897 
Q 2541 1088 2541 1459 
L 2541 1666 
z
" transform="scale(0.015625)"/>
      <path id="ArialMT-79" d="M 397 -1278 
L 334 -750 
Q 519 -800 656 -800 
Q 844 -800 956 -737 
Q 1069 -675 1141 -563 
Q 1194 -478 1313 -144 
Q 1328 -97 1363 -6 
L 103 3319 
L 709 3319 
L 1400 1397 
Q 1534 1031 1641 628 
Q 1738 1016 1872 1384 
L 2581 3319 
L 3144 3319 
L 1881 -56 
Q 1678 -603 1566 -809 
Q 1416 -1088 1222 -1217 
Q 1028 -1347 759 -1347 
Q 597 -1347 397 -1278 
z
" transform="scale(0.015625)"/>
     </defs>
     <use xlink:href="#ArialMT-4f"/>
     <use xlink:href="#ArialMT-6c" x="77.783203"/>
     <use xlink:href="#ArialMT-64" x="100"/>
     <use xlink:href="#ArialMT-20" x="155.615234"/>
     <use xlink:href="#ArialMT-77" x="183.398438"/>
     <use xlink:href="#ArialMT-61" x="255.615234"/>
     <use xlink:href="#ArialMT-79" x="311.230469"/>
    </g>
   </g>
   <g id="legend_1">
    <g id="text_13">
     <!-- Trigonometry Functions -->
     <g style="fill: #262626" transform="translate(235.378807 29.100937)scale(0.1 -0.1)">
      <defs>
       <path id="ArialMT-54" d="M 1659 0 
L 1659 4041 
L 150 4041 
L 150 4581 
L 3781 4581 
L 3781 4041 
L 2266 4041 
L 2266 0 
L 1659 0 
z
" transform="scale(0.015625)"/>
       <path id="ArialMT-72" d="M 416 0 
L 416 3319 
L 922 3319 
L 922 2816 
Q 1116 3169 1280 3281 
Q 1444 3394 1641 3394 
Q 1925 3394 2219 3213 
L 2025 2691 
Q 1819 2813 1613 2813 
Q 1428 2813 1281 2702 
Q 1134 2591 1072 2394 
Q 978 2094 978 1738 
L 978 0 
L 416 0 
z
" transform="scale(0.015625)"/>
       <path id="ArialMT-69" d="M 425 3934 
L 425 4581 
L 988 4581 
L 988 3934 
L 425 3934 
z
M 425 0 
L 425 3319 
L 988 3319 
L 988 0 
L 425 0 
z
" transform="scale(0.015625)"/>
       <path id="ArialMT-67" d="M 319 -275 
L 866 -356 
Q 900 -609 1056 -725 
Q 1266 -881 1628 -881 
Q 2019 -881 2231 -725 
Q 2444 -569 2519 -288 
Q 2563 -116 2559 434 
Q 2191 0 1641 0 
Q 956 0 581 494 
Q 206 988 206 1678 
Q 206 2153 378 2554 
Q 550 2956 876 3175 
Q 1203 3394 1644 3394 
Q 2231 3394 2613 2919 
L 2613 3319 
L 3131 3319 
L 3131 450 
Q 3131 -325 2973 -648 
Q 2816 -972 2473 -1159 
Q 2131 -1347 1631 -1347 
Q 1038 -1347 672 -1080 
Q 306 -813 319 -275 
z
M 784 1719 
Q 784 1066 1043 766 
Q 1303 466 1694 466 
Q 2081 466 2343 764 
Q 2606 1063 2606 1700 
Q 2606 2309 2336 2618 
Q 2066 2928 1684 2928 
Q 1309 2928 1046 2623 
Q 784 2319 784 1719 
z
" transform="scale(0.015625)"/>
       <path id="ArialMT-6f" d="M 213 1659 
Q 213 2581 725 3025 
Q 1153 3394 1769 3394 
Q 2453 3394 2887 2945 
Q 3322 2497 3322 1706 
Q 3322 1066 3130 698 
Q 2938 331 2570 128 
Q 2203 -75 1769 -75 
Q 1072 -75 642 372 
Q 213 819 213 1659 
z
M 791 1659 
Q 791 1022 1069 705 
Q 1347 388 1769 388 
Q 2188 388 2466 706 
Q 2744 1025 2744 1678 
Q 2744 2294 2464 2611 
Q 2184 2928 1769 2928 
Q 1347 2928 1069 2612 
Q 791 2297 791 1659 
z
" transform="scale(0.015625)"/>
       <path id="ArialMT-6e" d="M 422 0 
L 422 3319 
L 928 3319 
L 928 2847 
Q 1294 3394 1984 3394 
Q 2284 3394 2536 3286 
Q 2788 3178 2913 3003 
Q 3038 2828 3088 2588 
Q 3119 2431 3119 2041 
L 3119 0 
L 2556 0 
L 2556 2019 
Q 2556 2363 2490 2533 
Q 2425 2703 2258 2804 
Q 2091 2906 1866 2906 
Q 1506 2906 1245 2678 
Q 984 2450 984 1813 
L 984 0 
L 422 0 
z
" transform="scale(0.015625)"/>
       <path id="ArialMT-6d" d="M 422 0 
L 422 3319 
L 925 3319 
L 925 2853 
Q 1081 3097 1340 3245 
Q 1600 3394 1931 3394 
Q 2300 3394 2536 3241 
Q 2772 3088 2869 2813 
Q 3263 3394 3894 3394 
Q 4388 3394 4653 3120 
Q 4919 2847 4919 2278 
L 4919 0 
L 4359 0 
L 4359 2091 
Q 4359 2428 4304 2576 
Q 4250 2725 4106 2815 
Q 3963 2906 3769 2906 
Q 3419 2906 3187 2673 
Q 2956 2441 2956 1928 
L 2956 0 
L 2394 0 
L 2394 2156 
Q 2394 2531 2256 2718 
Q 2119 2906 1806 2906 
Q 1569 2906 1367 2781 
Q 1166 2656 1075 2415 
Q 984 2175 984 1722 
L 984 0 
L 422 0 
z
" transform="scale(0.015625)"/>
       <path id="ArialMT-65" d="M 2694 1069 
L 3275 997 
Q 3138 488 2766 206 
Q 2394 -75 1816 -75 
Q 1088 -75 661 373 
Q 234 822 234 1631 
Q 234 2469 665 2931 
Q 1097 3394 1784 3394 
Q 2450 3394 2872 2941 
Q 3294 2488 3294 1666 
Q 3294 1616 3291 1516 
L 816 1516 
Q 847 969 1125 678 
Q 1403 388 1819 388 
Q 2128 388 2347 550 
Q 2566 713 2694 1069 
z
M 847 1978 
L 2700 1978 
Q 2663 2397 2488 2606 
Q 2219 2931 1791 2931 
Q 1403 2931 1139 2672 
Q 875 2413 847 1978 
z
" transform="scale(0.015625)"/>
       <path id="ArialMT-74" d="M 1650 503 
L 1731 6 
Q 1494 -44 1306 -44 
Q 1000 -44 831 53 
Q 663 150 594 308 
Q 525 466 525 972 
L 525 2881 
L 113 2881 
L 113 3319 
L 525 3319 
L 525 4141 
L 1084 4478 
L 1084 3319 
L 1650 3319 
L 1650 2881 
L 1084 2881 
L 1084 941 
Q 1084 700 1114 631 
Q 1144 563 1211 522 
Q 1278 481 1403 481 
Q 1497 481 1650 503 
z
" transform="scale(0.015625)"/>
       <path id="ArialMT-46" d="M 525 0 
L 525 4581 
L 3616 4581 
L 3616 4041 
L 1131 4041 
L 1131 2622 
L 3281 2622 
L 3281 2081 
L 1131 2081 
L 1131 0 
L 525 0 
z
" transform="scale(0.015625)"/>
       <path id="ArialMT-75" d="M 2597 0 
L 2597 488 
Q 2209 -75 1544 -75 
Q 1250 -75 995 37 
Q 741 150 617 320 
Q 494 491 444 738 
Q 409 903 409 1263 
L 409 3319 
L 972 3319 
L 972 1478 
Q 972 1038 1006 884 
Q 1059 663 1231 536 
Q 1403 409 1656 409 
Q 1909 409 2131 539 
Q 2353 669 2445 892 
Q 2538 1116 2538 1541 
L 2538 3319 
L 3100 3319 
L 3100 0 
L 2597 0 
z
" transform="scale(0.015625)"/>
       <path id="ArialMT-63" d="M 2588 1216 
L 3141 1144 
Q 3050 572 2676 248 
Q 2303 -75 1759 -75 
Q 1078 -75 664 370 
Q 250 816 250 1647 
Q 250 2184 428 2587 
Q 606 2991 970 3192 
Q 1334 3394 1763 3394 
Q 2303 3394 2647 3120 
Q 2991 2847 3088 2344 
L 2541 2259 
Q 2463 2594 2264 2762 
Q 2066 2931 1784 2931 
Q 1359 2931 1093 2626 
Q 828 2322 828 1663 
Q 828 994 1084 691 
Q 1341 388 1753 388 
Q 2084 388 2306 591 
Q 2528 794 2588 1216 
z
" transform="scale(0.015625)"/>
       <path id="ArialMT-73" d="M 197 991 
L 753 1078 
Q 800 744 1014 566 
Q 1228 388 1613 388 
Q 2000 388 2187 545 
Q 2375 703 2375 916 
Q 2375 1106 2209 1216 
Q 2094 1291 1634 1406 
Q 1016 1563 777 1677 
Q 538 1791 414 1992 
Q 291 2194 291 2438 
Q 291 2659 392 2848 
Q 494 3038 669 3163 
Q 800 3259 1026 3326 
Q 1253 3394 1513 3394 
Q 1903 3394 2198 3281 
Q 2494 3169 2634 2976 
Q 2775 2784 2828 2463 
L 2278 2388 
Q 2241 2644 2061 2787 
Q 1881 2931 1553 2931 
Q 1166 2931 1000 2803 
Q 834 2675 834 2503 
Q 834 2394 903 2306 
Q 972 2216 1119 2156 
Q 1203 2125 1616 2013 
Q 2213 1853 2448 1751 
Q 2684 1650 2818 1456 
Q 2953 1263 2953 975 
Q 2953 694 2789 445 
Q 2625 197 2315 61 
Q 2006 -75 1616 -75 
Q 969 -75 630 194 
Q 291 463 197 991 
z
" transform="scale(0.015625)"/>
      </defs>
      <use xlink:href="#ArialMT-54"/>
      <use xlink:href="#ArialMT-72" x="57.333984"/>
      <use xlink:href="#ArialMT-69" x="90.634766"/>
      <use xlink:href="#ArialMT-67" x="112.851562"/>
      <use xlink:href="#ArialMT-6f" x="168.466797"/>
      <use xlink:href="#ArialMT-6e" x="224.082031"/>
      <use xlink:href="#ArialMT-6f" x="279.697266"/>
      <use xlink:href="#ArialMT-6d" x="335.3125"/>
      <use xlink:href="#ArialMT-65" x="418.613281"/>
      <use xlink:href="#ArialMT-74" x="474.228516"/>
      <use xlink:href="#ArialMT-72" x="502.011719"/>
      <use xlink:href="#ArialMT-79" x="535.3125"/>
      <use xlink:href="#ArialMT-20" x="585.3125"/>
      <use xlink:href="#ArialMT-46" x="613.095703"/>
      <use xlink:href="#ArialMT-75" x="674.179688"/>
      <use xlink:href="#ArialMT-6e" x="729.794922"/>
      <use xlink:href="#ArialMT-63" x="785.410156"/>
      <use xlink:href="#ArialMT-74" x="835.410156"/>
      <use xlink:href="#ArialMT-69" x="863.193359"/>
      <use xlink:href="#ArialMT-6f" x="885.410156"/>
      <use xlink:href="#ArialMT-6e" x="941.025391"/>
      <use xlink:href="#ArialMT-73" x="996.640625"/>
     </g>
    </g>
    <g id="line2d_25">
     <path d="M 268.426463 39.655625 
L 278.426463 39.655625 
L 288.426463 39.655625 
" style="fill: none; stroke: #5a5b9f; stroke-width: 1.5; stroke-linecap: round"/>
    </g>
    <g id="text_14">
     <!-- sin -->
     <g style="fill: #262626" transform="translate(291.426463 45.105625)scale(0.1 -0.1)">
      <use xlink:href="#ArialMT-73"/>
      <use xlink:href="#ArialMT-69" x="50"/>
      <use xlink:href="#ArialMT-6e" x="72.216797"/>
     </g>
    </g>
    <g id="line2d_26">
     <path d="M 268.426463 58.105625 
L 278.426463 58.105625 
L 288.426463 58.105625 
" style="fill: none; stroke: #d94f70; stroke-width: 1.5; stroke-linecap: round"/>
    </g>
    <g id="text_15">
     <!-- cos -->
     <g style="fill: #262626" transform="translate(291.426463 63.555625)scale(0.1 -0.1)">
      <use xlink:href="#ArialMT-63"/>
      <use xlink:href="#ArialMT-6f" x="50"/>
      <use xlink:href="#ArialMT-73" x="105.615234"/>
     </g>
    </g>
   </g>
  </g>
  <g id="axes_2">
   <g id="patch_7">
    <path d="M 273.931534 188.263125 
L 476.840625 188.263125 
L 476.840625 21.943125 
L 273.931534 21.943125 
z
" style="fill: #eaeaf2"/>
   </g>
   <g id="matplotlib.axis_3">
    <g id="xtick_7">
     <g id="line2d_27">
      <path d="M 283.154675 188.263125 
L 283.154675 21.943125 
" clip-path="url(#p4967a632d5)" style="fill: none; stroke: #ffffff; stroke-width: 0.8; stroke-linecap: round"/>
     </g>
     <g id="line2d_28"/>
     <g id="text_16">
      <!-- 0 -->
      <g style="fill: #262626" transform="translate(280.374206 198.920938)scale(0.1 -0.1)">
       <use xlink:href="#ArialMT-30"/>
      </g>
     </g>
    </g>
    <g id="xtick_8">
     <g id="line2d_29">
      <path d="M 320.419889 188.263125 
L 320.419889 21.943125 
" clip-path="url(#p4967a632d5)" style="fill: none; stroke: #ffffff; stroke-width: 0.8; stroke-linecap: round"/>
     </g>
     <g id="line2d_30"/>
     <g id="text_17">
      <!-- 2 -->
      <g style="fill: #262626" transform="translate(317.63942 198.920938)scale(0.1 -0.1)">
       <use xlink:href="#ArialMT-32"/>
      </g>
     </g>
    </g>
    <g id="xtick_9">
     <g id="line2d_31">
      <path d="M 357.685103 188.263125 
L 357.685103 21.943125 
" clip-path="url(#p4967a632d5)" style="fill: none; stroke: #ffffff; stroke-width: 0.8; stroke-linecap: round"/>
     </g>
     <g id="line2d_32"/>
     <g id="text_18">
      <!-- 4 -->
      <g style="fill: #262626" transform="translate(354.904634 198.920938)scale(0.1 -0.1)">
       <use xlink:href="#ArialMT-34"/>
      </g>
     </g>
    </g>
    <g id="xtick_10">
     <g id="line2d_33">
      <path d="M 394.950317 188.263125 
L 394.950317 21.943125 
" clip-path="url(#p4967a632d5)" style="fill: none; stroke: #ffffff; stroke-width: 0.8; stroke-linecap: round"/>
     </g>
     <g id="line2d_34"/>
     <g id="text_19">
      <!-- 6 -->
      <g style="fill: #262626" transform="translate(392.169848 198.920938)scale(0.1 -0.1)">
       <use xlink:href="#ArialMT-36"/>
      </g>
     </g>
    </g>
    <g id="xtick_11">
     <g id="line2d_35">
      <path d="M 432.215531 188.263125 
L 432.215531 21.943125 
" clip-path="url(#p4967a632d5)" style="fill: none; stroke: #ffffff; stroke-width: 0.8; stroke-linecap: round"/>
     </g>
     <g id="line2d_36"/>
     <g id="text_20">
      <!-- 8 -->
      <g style="fill: #262626" transform="translate(429.435062 198.920938)scale(0.1 -0.1)">
       <use xlink:href="#ArialMT-38"/>
      </g>
     </g>
    </g>
    <g id="xtick_12">
     <g id="line2d_37">
      <path d="M 469.480745 188.263125 
L 469.480745 21.943125 
" clip-path="url(#p4967a632d5)" style="fill: none; stroke: #ffffff; stroke-width: 0.8; stroke-linecap: round"/>
     </g>
     <g id="line2d_38"/>
     <g id="text_21">
      <!-- 10 -->
      <g style="fill: #262626" transform="translate(463.919808 198.920938)scale(0.1 -0.1)">
       <use xlink:href="#ArialMT-31"/>
       <use xlink:href="#ArialMT-30" x="55.615234"/>
      </g>
     </g>
    </g>
   </g>
   <g id="matplotlib.axis_4">
    <g id="ytick_6">
     <g id="line2d_39">
      <path d="M 273.931534 180.708927 
L 476.840625 180.708927 
" clip-path="url(#p4967a632d5)" style="fill: none; stroke: #ffffff; stroke-width: 0.8; stroke-linecap: round"/>
     </g>
     <g id="line2d_40"/>
     <g id="text_22">
      <!-- −1.0 -->
      <g style="fill: #262626" transform="translate(250.690909 184.287833)scale(0.1 -0.1)">
       <use xlink:href="#ArialMT-2212"/>
       <use xlink:href="#ArialMT-31" x="58.398438"/>
       <use xlink:href="#ArialMT-2e" x="114.013672"/>
       <use xlink:href="#ArialMT-30" x="141.796875"/>
      </g>
     </g>
    </g>
    <g id="ytick_7">
     <g id="line2d_41">
      <path d="M 273.931534 142.907476 
L 476.840625 142.907476 
" clip-path="url(#p4967a632d5)" style="fill: none; stroke: #ffffff; stroke-width: 0.8; stroke-linecap: round"/>
     </g>
     <g id="line2d_42"/>
     <g id="text_23">
      <!-- −0.5 -->
      <g style="fill: #262626" transform="translate(250.690909 146.486383)scale(0.1 -0.1)">
       <use xlink:href="#ArialMT-2212"/>
       <use xlink:href="#ArialMT-30" x="58.398438"/>
       <use xlink:href="#ArialMT-2e" x="114.013672"/>
       <use xlink:href="#ArialMT-35" x="141.796875"/>
      </g>
     </g>
    </g>
    <g id="ytick_8">
     <g id="line2d_43">
      <path d="M 273.931534 105.106026 
L 476.840625 105.106026 
" clip-path="url(#p4967a632d5)" style="fill: none; stroke: #ffffff; stroke-width: 0.8; stroke-linecap: round"/>
     </g>
     <g id="line2d_44"/>
     <g id="text_24">
      <!-- 0.0 -->
      <g style="fill: #262626" transform="translate(256.531534 108.684932)scale(0.1 -0.1)">
       <use xlink:href="#ArialMT-30"/>
       <use xlink:href="#ArialMT-2e" x="55.615234"/>
       <use xlink:href="#ArialMT-30" x="83.398438"/>
      </g>
     </g>
    </g>
    <g id="ytick_9">
     <g id="line2d_45">
      <path d="M 273.931534 67.304575 
L 476.840625 67.304575 
" clip-path="url(#p4967a632d5)" style="fill: none; stroke: #ffffff; stroke-width: 0.8; stroke-linecap: round"/>
     </g>
     <g id="line2d_46"/>
     <g id="text_25">
      <!-- 0.5 -->
      <g style="fill: #262626" transform="translate(256.531534 70.883482)scale(0.1 -0.1)">
       <use xlink:href="#ArialMT-30"/>
       <use xlink:href="#ArialMT-2e" x="55.615234"/>
       <use xlink:href="#ArialMT-35" x="83.398438"/>
      </g>
     </g>
    </g>
    <g id="ytick_10">
     <g id="line2d_47">
      <path d="M 273.931534 29.503125 
L 476.840625 29.503125 
" clip-path="url(#p4967a632d5)" style="fill: none; stroke: #ffffff; stroke-width: 0.8; stroke-linecap: round"/>
     </g>
     <g id="line2d_48"/>
     <g id="text_26">
      <!-- 1.0 -->
      <g style="fill: #262626" transform="translate(256.531534 33.082031)scale(0.1 -0.1)">
       <use xlink:href="#ArialMT-31"/>
       <use xlink:href="#ArialMT-2e" x="55.615234"/>
       <use xlink:href="#ArialMT-30" x="83.398438"/>
      </g>
     </g>
    </g>
   </g>
   <g id="line2d_49">
    <path d="M 283.154675 105.106026 
L 285.017935 97.55833 
L 286.881196 90.086048 
L 288.744457 82.763841 
L 290.607717 75.66487 
L 292.470978 68.860064 
L 294.334239 62.417417 
L 296.1975 56.4013 
L 298.06076 50.871824 
L 299.924021 45.884239 
L 301.787282 41.488378 
L 303.650542 37.728164 
L 305.513803 34.641167 
L 307.377064 32.258232 
L 309.240324 30.603168 
L 311.103585 29.692511 
L 312.966846 29.535362 
L 314.830107 30.13329 
L 316.693367 31.48032 
L 318.556628 33.562994 
L 320.419889 36.360503 
L 322.283149 39.844894 
L 324.14641 43.981352 
L 326.009671 48.728549 
L 327.872932 54.03905 
L 329.736192 59.859796 
L 331.599453 66.132627 
L 333.462714 72.794867 
L 335.325974 79.77995 
L 337.189235 87.018083 
L 339.052496 94.436944 
L 340.915756 101.962407 
L 342.779017 109.519281 
L 344.642278 117.032058 
L 346.505539 124.425675 
L 348.368799 131.626256 
L 350.23206 138.561855 
L 352.095321 145.163175 
L 353.958581 151.364258 
L 355.821842 157.103143 
L 357.685103 162.32249 
L 359.548364 166.970149 
L 361.411624 170.999683 
L 363.274885 174.370829 
L 365.138146 177.049903 
L 367.001406 179.010139 
L 368.864667 180.231949 
L 370.727928 180.703125 
L 372.591188 180.41896 
L 374.454449 179.382294 
L 376.31771 177.603483 
L 378.180971 175.100302 
L 380.044231 171.897761 
L 381.907492 168.027859 
L 383.770753 163.529263 
L 385.634013 158.446921 
L 387.497274 152.831615 
L 389.360535 146.739451 
L 391.223796 140.231299 
L 393.087056 133.372186 
L 394.950317 126.230648 
L 396.813578 118.87804 
L 398.676838 111.387826 
L 400.540099 103.834846 
L 402.40336 96.294568 
L 404.26662 88.842331 
L 406.129881 81.552595 
L 407.993142 74.498198 
L 409.856403 67.749623 
L 411.719663 61.374302 
L 413.582924 55.435933 
L 415.446185 49.993852 
L 417.309445 45.102433 
L 419.172706 40.81055 
L 421.035967 37.161087 
L 422.899228 34.190507 
L 424.762488 31.928491 
L 426.625749 30.397641 
L 428.48901 29.613252 
L 430.35227 29.583163 
L 432.215531 30.307672 
L 434.078792 31.779543 
L 435.942052 33.984067 
L 437.805313 36.899218 
L 439.668574 40.495869 
L 441.531835 44.738084 
L 443.395095 49.583475 
L 445.258356 54.983629 
L 447.121617 60.884589 
L 448.984877 67.227396 
L 450.848138 73.948673 
L 452.711399 80.981264 
L 454.57466 88.254902 
L 456.43792 95.696911 
L 458.301181 103.232932 
L 460.164442 110.787669 
L 462.027702 118.285636 
L 463.890963 125.651918 
L 465.754224 132.812911 
L 467.617485 139.697067 
" clip-path="url(#p4967a632d5)" style="fill: none; stroke: #5a5b9f; stroke-width: 1.5; stroke-linecap: round"/>
   </g>
   <g id="line2d_50">
    <path d="M 283.154675 29.503125 
L 285.017935 29.880825 
L 286.881196 31.01015 
L 288.744457 32.879816 
L 290.607717 35.471143 
L 292.470978 38.758238 
L 294.334239 42.708259 
L 296.1975 47.281738 
L 298.06076 52.432978 
L 299.924021 58.110509 
L 301.787282 64.257604 
L 303.650542 70.812843 
L 305.513803 77.710729 
L 307.377064 84.882339 
L 309.240324 92.256017 
L 311.103585 99.758088 
L 312.966846 107.313595 
L 314.830107 114.847044 
L 316.693367 122.283163 
L 318.556628 129.547655 
L 320.419889 136.567934 
L 322.283149 143.273856 
L 324.14641 149.598418 
L 326.009671 155.478426 
L 327.872932 160.85513 
L 329.736192 165.674807 
L 331.599453 169.889302 
L 333.462714 173.456503 
L 335.325974 176.340768 
L 337.189235 178.51328 
L 339.052496 179.952331 
L 340.915756 180.643542 
L 342.779017 180.580007 
L 344.642278 179.762361 
L 346.505539 178.198774 
L 348.368799 175.904868 
L 350.23206 172.903564 
L 352.095321 169.224849 
L 353.958581 164.90548 
L 355.821842 159.988614 
L 357.685103 154.52338 
L 359.548364 148.564384 
L 361.411624 142.171166 
L 363.274885 135.407606 
L 365.138146 128.341283 
L 367.001406 121.0428 
L 368.864667 113.585082 
L 370.727928 106.042645 
L 372.591188 98.490849 
L 374.454449 91.00515 
L 376.31771 83.660342 
L 378.180971 76.529812 
L 380.044231 69.684806 
L 381.907492 63.193718 
L 383.770753 57.121403 
L 385.634013 51.528535 
L 387.497274 46.470996 
L 389.360535 41.999318 
L 391.223796 38.158182 
L 393.087056 34.985966 
L 394.950317 32.514367 
L 396.813578 30.76808 
L 398.676838 29.764552 
L 400.540099 29.513812 
L 402.40336 30.018365 
L 404.26662 31.273168 
L 406.129881 33.265685 
L 407.993142 35.976007 
L 409.856403 39.377054 
L 411.719663 43.434842 
L 413.582924 48.108828 
L 415.446185 53.352312 
L 417.309445 59.112902 
L 419.172706 65.33304 
L 421.035967 71.950576 
L 422.899228 78.89939 
L 424.762488 86.110053 
L 426.625749 93.510517 
L 428.48901 101.02684 
L 430.35227 108.58392 
L 432.215531 116.106251 
L 434.078792 123.518671 
L 435.942052 130.747117 
L 437.805313 137.719367 
L 439.668574 144.365755 
L 441.531835 150.619872 
L 443.395095 156.419231 
L 445.258356 161.705884 
L 447.121617 166.427011 
L 448.984877 170.535438 
L 450.848138 173.990117 
L 452.711399 176.756528 
L 454.57466 178.807032 
L 456.43792 180.121139 
L 458.301181 180.68572 
L 460.164442 180.495134 
L 462.027702 179.551284 
L 463.890963 177.863603 
L 465.754224 175.448951 
L 467.617485 172.331457 
" clip-path="url(#p4967a632d5)" style="fill: none; stroke: #d94f70; stroke-width: 1.5; stroke-linecap: round"/>
   </g>
   <g id="patch_8">
    <path d="M 273.931534 188.263125 
L 273.931534 21.943125 
" style="fill: none"/>
   </g>
   <g id="patch_9">
    <path d="M 476.840625 188.263125 
L 476.840625 21.943125 
" style="fill: none"/>
   </g>
   <g id="patch_10">
    <path d="M 273.931534 188.263125 
L 476.840625 188.263125 
" style="fill: none"/>
   </g>
   <g id="patch_11">
    <path d="M 273.931534 21.943125 
L 476.840625 21.943125 
" style="fill: none"/>
   </g>
   <g id="text_27">
    <!-- With LegendKit -->
    <g style="fill: #262626" transform="translate(334.697642 15.943125)scale(0.12 -0.12)">
     <defs>
      <path id="ArialMT-57" d="M 1294 0 
L 78 4581 
L 700 4581 
L 1397 1578 
Q 1509 1106 1591 641 
Q 1766 1375 1797 1488 
L 2669 4581 
L 3400 4581 
L 4056 2263 
Q 4303 1400 4413 641 
Q 4500 1075 4641 1638 
L 5359 4581 
L 5969 4581 
L 4713 0 
L 4128 0 
L 3163 3491 
Q 3041 3928 3019 4028 
Q 2947 3713 2884 3491 
L 1913 0 
L 1294 0 
z
" transform="scale(0.015625)"/>
      <path id="ArialMT-68" d="M 422 0 
L 422 4581 
L 984 4581 
L 984 2938 
Q 1378 3394 1978 3394 
Q 2347 3394 2619 3248 
Q 2891 3103 3008 2847 
Q 3125 2591 3125 2103 
L 3125 0 
L 2563 0 
L 2563 2103 
Q 2563 2525 2380 2717 
Q 2197 2909 1863 2909 
Q 1613 2909 1392 2779 
Q 1172 2650 1078 2428 
Q 984 2206 984 1816 
L 984 0 
L 422 0 
z
" transform="scale(0.015625)"/>
      <path id="ArialMT-4c" d="M 469 0 
L 469 4581 
L 1075 4581 
L 1075 541 
L 3331 541 
L 3331 0 
L 469 0 
z
" transform="scale(0.015625)"/>
      <path id="ArialMT-4b" d="M 469 0 
L 469 4581 
L 1075 4581 
L 1075 2309 
L 3350 4581 
L 4172 4581 
L 2250 2725 
L 4256 0 
L 3456 0 
L 1825 2319 
L 1075 1588 
L 1075 0 
L 469 0 
z
" transform="scale(0.015625)"/>
     </defs>
     <use xlink:href="#ArialMT-57"/>
     <use xlink:href="#ArialMT-69" x="94.384766"/>
     <use xlink:href="#ArialMT-74" x="116.601562"/>
     <use xlink:href="#ArialMT-68" x="144.384766"/>
     <use xlink:href="#ArialMT-20" x="200"/>
     <use xlink:href="#ArialMT-4c" x="227.783203"/>
     <use xlink:href="#ArialMT-65" x="283.398438"/>
     <use xlink:href="#ArialMT-67" x="339.013672"/>
     <use xlink:href="#ArialMT-65" x="394.628906"/>
     <use xlink:href="#ArialMT-6e" x="450.244141"/>
     <use xlink:href="#ArialMT-64" x="505.859375"/>
     <use xlink:href="#ArialMT-4b" x="561.474609"/>
     <use xlink:href="#ArialMT-69" x="628.173828"/>
     <use xlink:href="#ArialMT-74" x="650.390625"/>
    </g>
   </g>
   <g id="legend_2">
    <g id="text_28">
     <!-- Trigonometry Functions -->
     <g style="fill: #262626" transform="translate(478.869716 29.100937)scale(0.1 -0.1)">
      <defs>
       <path id="Arial-BoldMT-54" d="M 1497 0 
L 1497 3806 
L 138 3806 
L 138 4581 
L 3778 4581 
L 3778 3806 
L 2422 3806 
L 2422 0 
L 1497 0 
z
" transform="scale(0.015625)"/>
       <path id="Arial-BoldMT-72" d="M 1300 0 
L 422 0 
L 422 3319 
L 1238 3319 
L 1238 2847 
Q 1447 3181 1614 3287 
Q 1781 3394 1994 3394 
Q 2294 3394 2572 3228 
L 2300 2463 
Q 2078 2606 1888 2606 
Q 1703 2606 1575 2504 
Q 1447 2403 1373 2137 
Q 1300 1872 1300 1025 
L 1300 0 
z
" transform="scale(0.015625)"/>
       <path id="Arial-BoldMT-69" d="M 459 3769 
L 459 4581 
L 1338 4581 
L 1338 3769 
L 459 3769 
z
M 459 0 
L 459 3319 
L 1338 3319 
L 1338 0 
L 459 0 
z
" transform="scale(0.015625)"/>
       <path id="Arial-BoldMT-67" d="M 378 -219 
L 1381 -341 
Q 1406 -516 1497 -581 
Q 1622 -675 1891 -675 
Q 2234 -675 2406 -572 
Q 2522 -503 2581 -350 
Q 2622 -241 2622 53 
L 2622 538 
Q 2228 0 1628 0 
Q 959 0 569 566 
Q 263 1013 263 1678 
Q 263 2513 664 2953 
Q 1066 3394 1663 3394 
Q 2278 3394 2678 2853 
L 2678 3319 
L 3500 3319 
L 3500 341 
Q 3500 -247 3403 -537 
Q 3306 -828 3131 -993 
Q 2956 -1159 2664 -1253 
Q 2372 -1347 1925 -1347 
Q 1081 -1347 728 -1058 
Q 375 -769 375 -325 
Q 375 -281 378 -219 
z
M 1163 1728 
Q 1163 1200 1367 954 
Q 1572 709 1872 709 
Q 2194 709 2416 961 
Q 2638 1213 2638 1706 
Q 2638 2222 2425 2472 
Q 2213 2722 1888 2722 
Q 1572 2722 1367 2476 
Q 1163 2231 1163 1728 
z
" transform="scale(0.015625)"/>
       <path id="Arial-BoldMT-6f" d="M 256 1706 
Q 256 2144 472 2553 
Q 688 2963 1083 3178 
Q 1478 3394 1966 3394 
Q 2719 3394 3200 2905 
Q 3681 2416 3681 1669 
Q 3681 916 3195 420 
Q 2709 -75 1972 -75 
Q 1516 -75 1102 131 
Q 688 338 472 736 
Q 256 1134 256 1706 
z
M 1156 1659 
Q 1156 1166 1390 903 
Q 1625 641 1969 641 
Q 2313 641 2545 903 
Q 2778 1166 2778 1666 
Q 2778 2153 2545 2415 
Q 2313 2678 1969 2678 
Q 1625 2678 1390 2415 
Q 1156 2153 1156 1659 
z
" transform="scale(0.015625)"/>
       <path id="Arial-BoldMT-6e" d="M 3478 0 
L 2600 0 
L 2600 1694 
Q 2600 2231 2544 2389 
Q 2488 2547 2361 2634 
Q 2234 2722 2056 2722 
Q 1828 2722 1647 2597 
Q 1466 2472 1398 2265 
Q 1331 2059 1331 1503 
L 1331 0 
L 453 0 
L 453 3319 
L 1269 3319 
L 1269 2831 
Q 1703 3394 2363 3394 
Q 2653 3394 2893 3289 
Q 3134 3184 3257 3021 
Q 3381 2859 3429 2653 
Q 3478 2447 3478 2063 
L 3478 0 
z
" transform="scale(0.015625)"/>
       <path id="Arial-BoldMT-6d" d="M 394 3319 
L 1203 3319 
L 1203 2866 
Q 1638 3394 2238 3394 
Q 2556 3394 2790 3262 
Q 3025 3131 3175 2866 
Q 3394 3131 3647 3262 
Q 3900 3394 4188 3394 
Q 4553 3394 4806 3245 
Q 5059 3097 5184 2809 
Q 5275 2597 5275 2122 
L 5275 0 
L 4397 0 
L 4397 1897 
Q 4397 2391 4306 2534 
Q 4184 2722 3931 2722 
Q 3747 2722 3584 2609 
Q 3422 2497 3350 2280 
Q 3278 2063 3278 1594 
L 3278 0 
L 2400 0 
L 2400 1819 
Q 2400 2303 2353 2443 
Q 2306 2584 2207 2653 
Q 2109 2722 1941 2722 
Q 1738 2722 1575 2612 
Q 1413 2503 1342 2297 
Q 1272 2091 1272 1613 
L 1272 0 
L 394 0 
L 394 3319 
z
" transform="scale(0.015625)"/>
       <path id="Arial-BoldMT-65" d="M 2381 1056 
L 3256 909 
Q 3088 428 2723 176 
Q 2359 -75 1813 -75 
Q 947 -75 531 491 
Q 203 944 203 1634 
Q 203 2459 634 2926 
Q 1066 3394 1725 3394 
Q 2466 3394 2894 2905 
Q 3322 2416 3303 1406 
L 1103 1406 
Q 1113 1016 1316 798 
Q 1519 581 1822 581 
Q 2028 581 2168 693 
Q 2309 806 2381 1056 
z
M 2431 1944 
Q 2422 2325 2234 2523 
Q 2047 2722 1778 2722 
Q 1491 2722 1303 2513 
Q 1116 2303 1119 1944 
L 2431 1944 
z
" transform="scale(0.015625)"/>
       <path id="Arial-BoldMT-74" d="M 1981 3319 
L 1981 2619 
L 1381 2619 
L 1381 1281 
Q 1381 875 1398 808 
Q 1416 741 1477 697 
Q 1538 653 1625 653 
Q 1747 653 1978 738 
L 2053 56 
Q 1747 -75 1359 -75 
Q 1122 -75 931 4 
Q 741 84 652 211 
Q 563 338 528 553 
Q 500 706 500 1172 
L 500 2619 
L 97 2619 
L 97 3319 
L 500 3319 
L 500 3978 
L 1381 4491 
L 1381 3319 
L 1981 3319 
z
" transform="scale(0.015625)"/>
       <path id="Arial-BoldMT-79" d="M 44 3319 
L 978 3319 
L 1772 963 
L 2547 3319 
L 3456 3319 
L 2284 125 
L 2075 -453 
Q 1959 -744 1854 -897 
Q 1750 -1050 1614 -1145 
Q 1478 -1241 1279 -1294 
Q 1081 -1347 831 -1347 
Q 578 -1347 334 -1294 
L 256 -606 
Q 463 -647 628 -647 
Q 934 -647 1081 -467 
Q 1228 -288 1306 -9 
L 44 3319 
z
" transform="scale(0.015625)"/>
       <path id="Arial-BoldMT-20" transform="scale(0.015625)"/>
       <path id="Arial-BoldMT-46" d="M 472 0 
L 472 4581 
L 3613 4581 
L 3613 3806 
L 1397 3806 
L 1397 2722 
L 3309 2722 
L 3309 1947 
L 1397 1947 
L 1397 0 
L 472 0 
z
" transform="scale(0.015625)"/>
       <path id="Arial-BoldMT-75" d="M 2644 0 
L 2644 497 
Q 2463 231 2167 78 
Q 1872 -75 1544 -75 
Q 1209 -75 943 72 
Q 678 219 559 484 
Q 441 750 441 1219 
L 441 3319 
L 1319 3319 
L 1319 1794 
Q 1319 1094 1367 936 
Q 1416 778 1544 686 
Q 1672 594 1869 594 
Q 2094 594 2272 717 
Q 2450 841 2515 1023 
Q 2581 1206 2581 1919 
L 2581 3319 
L 3459 3319 
L 3459 0 
L 2644 0 
z
" transform="scale(0.015625)"/>
       <path id="Arial-BoldMT-63" d="M 3353 2338 
L 2488 2181 
Q 2444 2441 2289 2572 
Q 2134 2703 1888 2703 
Q 1559 2703 1364 2476 
Q 1169 2250 1169 1719 
Q 1169 1128 1367 884 
Q 1566 641 1900 641 
Q 2150 641 2309 783 
Q 2469 925 2534 1272 
L 3397 1125 
Q 3263 531 2881 228 
Q 2500 -75 1859 -75 
Q 1131 -75 698 384 
Q 266 844 266 1656 
Q 266 2478 700 2936 
Q 1134 3394 1875 3394 
Q 2481 3394 2839 3133 
Q 3197 2872 3353 2338 
z
" transform="scale(0.015625)"/>
       <path id="Arial-BoldMT-73" d="M 150 947 
L 1031 1081 
Q 1088 825 1259 692 
Q 1431 559 1741 559 
Q 2081 559 2253 684 
Q 2369 772 2369 919 
Q 2369 1019 2306 1084 
Q 2241 1147 2013 1200 
Q 950 1434 666 1628 
Q 272 1897 272 2375 
Q 272 2806 612 3100 
Q 953 3394 1669 3394 
Q 2350 3394 2681 3172 
Q 3013 2950 3138 2516 
L 2309 2363 
Q 2256 2556 2107 2659 
Q 1959 2763 1684 2763 
Q 1338 2763 1188 2666 
Q 1088 2597 1088 2488 
Q 1088 2394 1175 2328 
Q 1294 2241 1995 2081 
Q 2697 1922 2975 1691 
Q 3250 1456 3250 1038 
Q 3250 581 2869 253 
Q 2488 -75 1741 -75 
Q 1063 -75 667 200 
Q 272 475 150 947 
z
" transform="scale(0.015625)"/>
      </defs>
      <use xlink:href="#Arial-BoldMT-54"/>
      <use xlink:href="#Arial-BoldMT-72" x="55.583984"/>
      <use xlink:href="#Arial-BoldMT-69" x="94.5"/>
      <use xlink:href="#Arial-BoldMT-67" x="122.283203"/>
      <use xlink:href="#Arial-BoldMT-6f" x="183.367188"/>
      <use xlink:href="#Arial-BoldMT-6e" x="244.451172"/>
      <use xlink:href="#Arial-BoldMT-6f" x="305.535156"/>
      <use xlink:href="#Arial-BoldMT-6d" x="366.619141"/>
      <use xlink:href="#Arial-BoldMT-65" x="455.535156"/>
      <use xlink:href="#Arial-BoldMT-74" x="511.150391"/>
      <use xlink:href="#Arial-BoldMT-72" x="544.451172"/>
      <use xlink:href="#Arial-BoldMT-79" x="583.367188"/>
      <use xlink:href="#Arial-BoldMT-20" x="638.982422"/>
      <use xlink:href="#Arial-BoldMT-46" x="666.765625"/>
      <use xlink:href="#Arial-BoldMT-75" x="727.849609"/>
      <use xlink:href="#Arial-BoldMT-6e" x="788.933594"/>
      <use xlink:href="#Arial-BoldMT-63" x="850.017578"/>
      <use xlink:href="#Arial-BoldMT-74" x="905.632812"/>
      <use xlink:href="#Arial-BoldMT-69" x="938.933594"/>
      <use xlink:href="#Arial-BoldMT-6f" x="966.716797"/>
      <use xlink:href="#Arial-BoldMT-6e" x="1027.800781"/>
      <use xlink:href="#Arial-BoldMT-73" x="1088.884766"/>
     </g>
    </g>
    <g id="line2d_51">
     <path d="M 478.869716 41.655625 
L 488.869716 41.655625 
L 498.869716 41.655625 
" style="fill: none; stroke: #5a5b9f; stroke-width: 1.5; stroke-linecap: round"/>
    </g>
    <g id="text_29">
     <!-- sin -->
     <g style="fill: #262626" transform="translate(501.869716 47.105625)scale(0.1 -0.1)">
      <use xlink:href="#ArialMT-73"/>
      <use xlink:href="#ArialMT-69" x="50"/>
      <use xlink:href="#ArialMT-6e" x="72.216797"/>
     </g>
    </g>
    <g id="line2d_52">
     <path d="M 478.869716 60.105625 
L 488.869716 60.105625 
L 498.869716 60.105625 
" style="fill: none; stroke: #d94f70; stroke-width: 1.5; stroke-linecap: round"/>
    </g>
    <g id="text_30">
     <!-- cos -->
     <g style="fill: #262626" transform="translate(501.869716 65.555625)scale(0.1 -0.1)">
      <use xlink:href="#ArialMT-63"/>
      <use xlink:href="#ArialMT-6f" x="50"/>
      <use xlink:href="#ArialMT-73" x="105.615234"/>
     </g>
    </g>
   </g>
  </g>
 </g>
 <defs>
  <clipPath id="pc9ea14c854">
   <rect x="30.440625" y="21.943125" width="202.909091" height="166.32"/>
  </clipPath>
  <clipPath id="p4967a632d5">
   <rect x="273.931534" y="21.943125" width="202.909091" height="166.32"/>
  </clipPath>
 </defs>
</svg>
