<?xml version="1.0" encoding="utf-8" standalone="no"?>
<!DOCTYPE svg PUBLIC "-//W3C//DTD SVG 1.1//EN"
  "http://www.w3.org/Graphics/SVG/1.1/DTD/svg11.dtd">
<svg xmlns:xlink="http://www.w3.org/1999/xlink" width="322.201562pt" height="329.51575pt" viewBox="0 0 322.201562 329.51575" xmlns="http://www.w3.org/2000/svg" version="1.1">
 <metadata>
  <rdf:RDF xmlns:dc="http://purl.org/dc/elements/1.1/" xmlns:cc="http://creativecommons.org/ns#" xmlns:rdf="http://www.w3.org/1999/02/22-rdf-syntax-ns#">
   <cc:Work>
    <dc:type rdf:resource="http://purl.org/dc/dcmitype/StillImage"/>
    <dc:date>2022-05-26T12:05:37.870012</dc:date>
    <dc:format>image/svg+xml</dc:format>
    <dc:creator>
     <cc:Agent>
      <dc:title>Matplotlib v3.5.2, https://matplotlib.org/</dc:title>
     </cc:Agent>
    </dc:creator>
   </cc:Work>
  </rdf:RDF>
 </metadata>
 <defs>
  <style type="text/css">*{stroke-linejoin: round; stroke-linecap: butt}</style>
 </defs>
 <g id="figure_1">
  <g id="patch_1">
   <path d="M 0 329.51575 
L 322.201562 329.51575 
L 322.201562 0 
L 0 0 
z
" style="fill: #ffffff"/>
  </g>
  <g id="axes_1">
   <g id="patch_2">
    <path d="M 36.001563 309.557937 
L 315.001562 309.557937 
L 315.001562 32.357937 
L 36.001563 32.357937 
z
" style="fill: #eaeaf2"/>
   </g>
   <g id="matplotlib.axis_1">
    <g id="xtick_1">
     <g id="line2d_1">
      <path d="M 48.683381 309.557937 
L 48.683381 32.357937 
" clip-path="url(#p74eb8a4cab)" style="fill: none; stroke: #ffffff; stroke-width: 0.8; stroke-linecap: round"/>
     </g>
     <g id="line2d_2"/>
     <g id="text_1">
      <!-- 0 -->
      <g style="fill: #262626" transform="translate(45.902912 320.231375)scale(0.1 -0.1)">
       <defs>
        <path id="Helvetica-30" d="M 1731 4475 
Q 2600 4475 2988 3759 
Q 3288 3206 3288 2244 
Q 3288 1331 3016 734 
Q 2622 -122 1728 -122 
Q 922 -122 528 578 
Q 200 1163 200 2147 
Q 200 2909 397 3456 
Q 766 4475 1731 4475 
z
M 1725 391 
Q 2163 391 2422 778 
Q 2681 1166 2681 2222 
Q 2681 2984 2493 3476 
Q 2306 3969 1766 3969 
Q 1269 3969 1039 3501 
Q 809 3034 809 2125 
Q 809 1441 956 1025 
Q 1181 391 1725 391 
z
" transform="scale(0.015625)"/>
       </defs>
       <use xlink:href="#Helvetica-30"/>
      </g>
     </g>
    </g>
    <g id="xtick_2">
     <g id="line2d_3">
      <path d="M 99.92305 309.557937 
L 99.92305 32.357937 
" clip-path="url(#p74eb8a4cab)" style="fill: none; stroke: #ffffff; stroke-width: 0.8; stroke-linecap: round"/>
     </g>
     <g id="line2d_4"/>
     <g id="text_2">
      <!-- 2 -->
      <g style="fill: #262626" transform="translate(97.142581 320.231375)scale(0.1 -0.1)">
       <defs>
        <path id="Helvetica-32" d="M 200 0 
Q 231 578 439 1006 
Q 647 1434 1250 1784 
L 1850 2131 
Q 2253 2366 2416 2531 
Q 2672 2791 2672 3125 
Q 2672 3516 2437 3745 
Q 2203 3975 1813 3975 
Q 1234 3975 1013 3538 
Q 894 3303 881 2888 
L 309 2888 
Q 319 3472 525 3841 
Q 891 4491 1816 4491 
Q 2584 4491 2939 4075 
Q 3294 3659 3294 3150 
Q 3294 2613 2916 2231 
Q 2697 2009 2131 1694 
L 1703 1456 
Q 1397 1288 1222 1134 
Q 909 863 828 531 
L 3272 531 
L 3272 0 
L 200 0 
z
" transform="scale(0.015625)"/>
       </defs>
       <use xlink:href="#Helvetica-32"/>
      </g>
     </g>
    </g>
    <g id="xtick_3">
     <g id="line2d_5">
      <path d="M 151.16272 309.557937 
L 151.16272 32.357937 
" clip-path="url(#p74eb8a4cab)" style="fill: none; stroke: #ffffff; stroke-width: 0.8; stroke-linecap: round"/>
     </g>
     <g id="line2d_6"/>
     <g id="text_3">
      <!-- 4 -->
      <g style="fill: #262626" transform="translate(148.382251 320.231375)scale(0.1 -0.1)">
       <defs>
        <path id="Helvetica-34" d="M 2116 1584 
L 2116 3613 
L 681 1584 
L 2116 1584 
z
M 2125 0 
L 2125 1094 
L 163 1094 
L 163 1644 
L 2213 4488 
L 2688 4488 
L 2688 1584 
L 3347 1584 
L 3347 1094 
L 2688 1094 
L 2688 0 
L 2125 0 
z
" transform="scale(0.015625)"/>
       </defs>
       <use xlink:href="#Helvetica-34"/>
      </g>
     </g>
    </g>
    <g id="xtick_4">
     <g id="line2d_7">
      <path d="M 202.402389 309.557937 
L 202.402389 32.357937 
" clip-path="url(#p74eb8a4cab)" style="fill: none; stroke: #ffffff; stroke-width: 0.8; stroke-linecap: round"/>
     </g>
     <g id="line2d_8"/>
     <g id="text_4">
      <!-- 6 -->
      <g style="fill: #262626" transform="translate(199.62192 320.231375)scale(0.1 -0.1)">
       <defs>
        <path id="Helvetica-36" d="M 1872 4494 
Q 2622 4494 2917 4105 
Q 3213 3716 3213 3303 
L 2656 3303 
Q 2606 3569 2497 3719 
Q 2294 4000 1881 4000 
Q 1409 4000 1131 3564 
Q 853 3128 822 2316 
Q 1016 2600 1309 2741 
Q 1578 2866 1909 2866 
Q 2472 2866 2890 2506 
Q 3309 2147 3309 1434 
Q 3309 825 2912 354 
Q 2516 -116 1781 -116 
Q 1153 -116 697 361 
Q 241 838 241 1966 
Q 241 2800 444 3381 
Q 834 4494 1872 4494 
z
M 1831 384 
Q 2275 384 2495 682 
Q 2716 981 2716 1388 
Q 2716 1731 2519 2042 
Q 2322 2353 1803 2353 
Q 1441 2353 1167 2112 
Q 894 1872 894 1388 
Q 894 963 1142 673 
Q 1391 384 1831 384 
z
" transform="scale(0.015625)"/>
       </defs>
       <use xlink:href="#Helvetica-36"/>
      </g>
     </g>
    </g>
    <g id="xtick_5">
     <g id="line2d_9">
      <path d="M 253.642058 309.557937 
L 253.642058 32.357937 
" clip-path="url(#p74eb8a4cab)" style="fill: none; stroke: #ffffff; stroke-width: 0.8; stroke-linecap: round"/>
     </g>
     <g id="line2d_10"/>
     <g id="text_5">
      <!-- 8 -->
      <g style="fill: #262626" transform="translate(250.86159 320.231375)scale(0.1 -0.1)">
       <defs>
        <path id="Helvetica-38" d="M 1741 2600 
Q 2113 2600 2322 2808 
Q 2531 3016 2531 3303 
Q 2531 3553 2331 3762 
Q 2131 3972 1722 3972 
Q 1316 3972 1134 3762 
Q 953 3553 953 3272 
Q 953 2956 1187 2778 
Q 1422 2600 1741 2600 
z
M 1775 384 
Q 2166 384 2423 595 
Q 2681 806 2681 1225 
Q 2681 1659 2415 1884 
Q 2150 2109 1734 2109 
Q 1331 2109 1076 1879 
Q 822 1650 822 1244 
Q 822 894 1055 639 
Q 1288 384 1775 384 
z
M 975 2384 
Q 741 2484 609 2619 
Q 363 2869 363 3269 
Q 363 3769 725 4128 
Q 1088 4488 1753 4488 
Q 2397 4488 2762 4148 
Q 3128 3809 3128 3356 
Q 3128 2938 2916 2678 
Q 2797 2531 2547 2391 
Q 2825 2263 2984 2097 
Q 3281 1784 3281 1284 
Q 3281 694 2884 283 
Q 2488 -128 1763 -128 
Q 1109 -128 657 226 
Q 206 581 206 1256 
Q 206 1653 400 1942 
Q 594 2231 975 2384 
z
" transform="scale(0.015625)"/>
       </defs>
       <use xlink:href="#Helvetica-38"/>
      </g>
     </g>
    </g>
    <g id="xtick_6">
     <g id="line2d_11">
      <path d="M 304.881728 309.557937 
L 304.881728 32.357937 
" clip-path="url(#p74eb8a4cab)" style="fill: none; stroke: #ffffff; stroke-width: 0.8; stroke-linecap: round"/>
     </g>
     <g id="line2d_12"/>
     <g id="text_6">
      <!-- 10 -->
      <g style="fill: #262626" transform="translate(299.32079 320.231375)scale(0.1 -0.1)">
       <defs>
        <path id="Helvetica-31" d="M 613 3169 
L 613 3600 
Q 1222 3659 1462 3798 
Q 1703 3938 1822 4456 
L 2266 4456 
L 2266 0 
L 1666 0 
L 1666 3169 
L 613 3169 
z
" transform="scale(0.015625)"/>
       </defs>
       <use xlink:href="#Helvetica-31"/>
       <use xlink:href="#Helvetica-30" x="55.615234"/>
      </g>
     </g>
    </g>
   </g>
   <g id="matplotlib.axis_2">
    <g id="ytick_1">
     <g id="line2d_13">
      <path d="M 36.001563 296.967607 
L 315.001562 296.967607 
" clip-path="url(#p74eb8a4cab)" style="fill: none; stroke: #ffffff; stroke-width: 0.8; stroke-linecap: round"/>
     </g>
     <g id="line2d_14"/>
     <g id="text_7">
      <!-- −1.00 -->
      <g style="fill: #262626" transform="translate(7.2 300.554326)scale(0.1 -0.1)">
       <defs>
        <path id="Helvetica-2212" d="M 3547 1894 
L 3547 1369 
L 288 1369 
L 288 1894 
L 3547 1894 
z
" transform="scale(0.015625)"/>
        <path id="Helvetica-2e" d="M 547 681 
L 1200 681 
L 1200 0 
L 547 0 
L 547 681 
z
" transform="scale(0.015625)"/>
       </defs>
       <use xlink:href="#Helvetica-2212"/>
       <use xlink:href="#Helvetica-31" x="58.398438"/>
       <use xlink:href="#Helvetica-2e" x="114.013672"/>
       <use xlink:href="#Helvetica-30" x="141.796875"/>
       <use xlink:href="#Helvetica-30" x="197.412109"/>
      </g>
     </g>
    </g>
    <g id="ytick_2">
     <g id="line2d_15">
      <path d="M 36.001563 265.466399 
L 315.001562 265.466399 
" clip-path="url(#p74eb8a4cab)" style="fill: none; stroke: #ffffff; stroke-width: 0.8; stroke-linecap: round"/>
     </g>
     <g id="line2d_16"/>
     <g id="text_8">
      <!-- −0.75 -->
      <g style="fill: #262626" transform="translate(7.2 269.053117)scale(0.1 -0.1)">
       <defs>
        <path id="Helvetica-37" d="M 3347 4400 
L 3347 3909 
Q 3131 3700 2773 3181 
Q 2416 2663 2141 2063 
Q 1869 1478 1728 997 
Q 1638 688 1494 0 
L 872 0 
Q 1084 1281 1809 2550 
Q 2238 3294 2709 3834 
L 234 3834 
L 234 4400 
L 3347 4400 
z
" transform="scale(0.015625)"/>
        <path id="Helvetica-35" d="M 791 1141 
Q 847 659 1238 475 
Q 1438 381 1700 381 
Q 2200 381 2440 700 
Q 2681 1019 2681 1406 
Q 2681 1875 2395 2131 
Q 2109 2388 1709 2388 
Q 1419 2388 1211 2275 
Q 1003 2163 856 1963 
L 369 1991 
L 709 4400 
L 3034 4400 
L 3034 3856 
L 1131 3856 
L 941 2613 
Q 1097 2731 1238 2791 
Q 1488 2894 1816 2894 
Q 2431 2894 2859 2497 
Q 3288 2100 3288 1491 
Q 3288 856 2895 371 
Q 2503 -113 1644 -113 
Q 1097 -113 676 195 
Q 256 503 206 1141 
L 791 1141 
z
" transform="scale(0.015625)"/>
       </defs>
       <use xlink:href="#Helvetica-2212"/>
       <use xlink:href="#Helvetica-30" x="58.398438"/>
       <use xlink:href="#Helvetica-2e" x="114.013672"/>
       <use xlink:href="#Helvetica-37" x="141.796875"/>
       <use xlink:href="#Helvetica-35" x="197.412109"/>
      </g>
     </g>
    </g>
    <g id="ytick_3">
     <g id="line2d_17">
      <path d="M 36.001563 233.96519 
L 315.001562 233.96519 
" clip-path="url(#p74eb8a4cab)" style="fill: none; stroke: #ffffff; stroke-width: 0.8; stroke-linecap: round"/>
     </g>
     <g id="line2d_18"/>
     <g id="text_9">
      <!-- −0.50 -->
      <g style="fill: #262626" transform="translate(7.2 237.551909)scale(0.1 -0.1)">
       <use xlink:href="#Helvetica-2212"/>
       <use xlink:href="#Helvetica-30" x="58.398438"/>
       <use xlink:href="#Helvetica-2e" x="114.013672"/>
       <use xlink:href="#Helvetica-35" x="141.796875"/>
       <use xlink:href="#Helvetica-30" x="197.412109"/>
      </g>
     </g>
    </g>
    <g id="ytick_4">
     <g id="line2d_19">
      <path d="M 36.001563 202.463981 
L 315.001562 202.463981 
" clip-path="url(#p74eb8a4cab)" style="fill: none; stroke: #ffffff; stroke-width: 0.8; stroke-linecap: round"/>
     </g>
     <g id="line2d_20"/>
     <g id="text_10">
      <!-- −0.25 -->
      <g style="fill: #262626" transform="translate(7.2 206.0507)scale(0.1 -0.1)">
       <use xlink:href="#Helvetica-2212"/>
       <use xlink:href="#Helvetica-30" x="58.398438"/>
       <use xlink:href="#Helvetica-2e" x="114.013672"/>
       <use xlink:href="#Helvetica-32" x="141.796875"/>
       <use xlink:href="#Helvetica-35" x="197.412109"/>
      </g>
     </g>
    </g>
    <g id="ytick_5">
     <g id="line2d_21">
      <path d="M 36.001563 170.962772 
L 315.001562 170.962772 
" clip-path="url(#p74eb8a4cab)" style="fill: none; stroke: #ffffff; stroke-width: 0.8; stroke-linecap: round"/>
     </g>
     <g id="line2d_22"/>
     <g id="text_11">
      <!-- 0.00 -->
      <g style="fill: #262626" transform="translate(13.040625 174.549491)scale(0.1 -0.1)">
       <use xlink:href="#Helvetica-30"/>
       <use xlink:href="#Helvetica-2e" x="55.615234"/>
       <use xlink:href="#Helvetica-30" x="83.398438"/>
       <use xlink:href="#Helvetica-30" x="139.013672"/>
      </g>
     </g>
    </g>
    <g id="ytick_6">
     <g id="line2d_23">
      <path d="M 36.001563 139.461564 
L 315.001562 139.461564 
" clip-path="url(#p74eb8a4cab)" style="fill: none; stroke: #ffffff; stroke-width: 0.8; stroke-linecap: round"/>
     </g>
     <g id="line2d_24"/>
     <g id="text_12">
      <!-- 0.25 -->
      <g style="fill: #262626" transform="translate(13.040625 143.048282)scale(0.1 -0.1)">
       <use xlink:href="#Helvetica-30"/>
       <use xlink:href="#Helvetica-2e" x="55.615234"/>
       <use xlink:href="#Helvetica-32" x="83.398438"/>
       <use xlink:href="#Helvetica-35" x="139.013672"/>
      </g>
     </g>
    </g>
    <g id="ytick_7">
     <g id="line2d_25">
      <path d="M 36.001563 107.960355 
L 315.001562 107.960355 
" clip-path="url(#p74eb8a4cab)" style="fill: none; stroke: #ffffff; stroke-width: 0.8; stroke-linecap: round"/>
     </g>
     <g id="line2d_26"/>
     <g id="text_13">
      <!-- 0.50 -->
      <g style="fill: #262626" transform="translate(13.040625 111.547074)scale(0.1 -0.1)">
       <use xlink:href="#Helvetica-30"/>
       <use xlink:href="#Helvetica-2e" x="55.615234"/>
       <use xlink:href="#Helvetica-35" x="83.398438"/>
       <use xlink:href="#Helvetica-30" x="139.013672"/>
      </g>
     </g>
    </g>
    <g id="ytick_8">
     <g id="line2d_27">
      <path d="M 36.001563 76.459146 
L 315.001562 76.459146 
" clip-path="url(#p74eb8a4cab)" style="fill: none; stroke: #ffffff; stroke-width: 0.8; stroke-linecap: round"/>
     </g>
     <g id="line2d_28"/>
     <g id="text_14">
      <!-- 0.75 -->
      <g style="fill: #262626" transform="translate(13.040625 80.045865)scale(0.1 -0.1)">
       <use xlink:href="#Helvetica-30"/>
       <use xlink:href="#Helvetica-2e" x="55.615234"/>
       <use xlink:href="#Helvetica-37" x="83.398438"/>
       <use xlink:href="#Helvetica-35" x="139.013672"/>
      </g>
     </g>
    </g>
    <g id="ytick_9">
     <g id="line2d_29">
      <path d="M 36.001563 44.957937 
L 315.001562 44.957937 
" clip-path="url(#p74eb8a4cab)" style="fill: none; stroke: #ffffff; stroke-width: 0.8; stroke-linecap: round"/>
     </g>
     <g id="line2d_30"/>
     <g id="text_15">
      <!-- 1.00 -->
      <g style="fill: #262626" transform="translate(13.040625 48.544656)scale(0.1 -0.1)">
       <use xlink:href="#Helvetica-31"/>
       <use xlink:href="#Helvetica-2e" x="55.615234"/>
       <use xlink:href="#Helvetica-30" x="83.398438"/>
       <use xlink:href="#Helvetica-30" x="139.013672"/>
      </g>
     </g>
    </g>
   </g>
   <g id="line2d_31">
    <path d="M 48.683381 170.962772 
L 51.245364 158.383279 
L 53.807348 145.929476 
L 56.369331 133.725798 
L 58.931315 121.894179 
L 61.493298 110.552837 
L 64.055282 99.815091 
L 66.617265 89.788229 
L 69.179248 80.572437 
L 71.741232 72.259794 
L 74.303215 64.93336 
L 76.865199 58.666336 
L 79.427182 53.521341 
L 81.989166 49.549782 
L 84.551149 46.791342 
L 87.113133 45.273581 
L 89.675116 45.011666 
L 92.2371 46.008212 
L 94.799083 48.253262 
L 97.361067 51.724386 
L 99.92305 56.3869 
L 102.485034 62.194219 
L 105.047017 69.088317 
L 107.609001 77.00031 
L 110.170984 85.851146 
L 112.732967 95.552389 
L 115.294951 106.007107 
L 117.856934 117.110841 
L 120.418918 128.752646 
L 122.980901 140.8162 
L 125.542885 153.180969 
L 128.104868 165.723408 
L 130.666852 178.318197 
L 133.228835 190.839493 
L 135.790819 203.162187 
L 138.352802 215.163155 
L 140.914786 226.722488 
L 143.476769 237.724688 
L 146.038753 248.059825 
L 148.600736 257.624634 
L 151.16272 266.323546 
L 153.724703 274.069645 
L 156.286686 280.785534 
L 158.84867 286.40411 
L 161.410653 290.869235 
L 163.972637 294.136294 
L 166.53462 296.172643 
L 169.096604 296.957937 
L 171.658587 296.48433 
L 174.220571 294.756552 
L 176.782554 291.791867 
L 179.344538 287.619899 
L 181.906521 282.282331 
L 184.468505 275.832494 
L 187.030488 268.334834 
L 189.592472 259.864265 
L 192.154455 250.505421 
L 194.716439 240.351813 
L 197.278422 229.504893 
L 199.840405 218.07304 
L 202.402389 206.170476 
L 204.964372 193.916129 
L 207.526356 181.432439 
L 210.088339 168.84414 
L 212.650323 156.277009 
L 215.212306 143.856614 
L 217.77429 131.707054 
L 220.336273 119.949725 
L 222.898257 108.702101 
L 225.46024 98.076565 
L 228.022224 88.179285 
L 230.584207 79.109149 
L 233.146191 70.956784 
L 235.708174 63.803646 
L 238.270158 57.721207 
L 240.832141 52.77024 
L 243.394124 49.000214 
L 245.956108 46.448797 
L 248.518091 45.141483 
L 251.080075 45.091334 
L 253.642058 46.29885 
L 256.204042 48.751967 
L 258.766025 52.426174 
L 261.328009 57.284759 
L 263.889992 63.279178 
L 266.451976 70.349536 
L 269.013959 78.425187 
L 271.575943 87.425444 
L 274.137926 97.260378 
L 276.69991 107.831722 
L 279.261893 119.033851 
L 281.823877 130.754836 
L 284.38586 142.877566 
L 286.947843 155.280913 
L 289.509827 167.840949 
L 292.07181 180.432177 
L 294.633794 192.92879 
L 297.195777 205.205925 
L 299.757761 217.140915 
L 302.319744 228.614507 
" clip-path="url(#p74eb8a4cab)" style="fill: none; stroke: #5a5b9f; stroke-width: 1.5; stroke-linecap: round"/>
   </g>
   <g id="line2d_32">
    <path d="M 48.683381 44.957937 
L 51.245364 45.587437 
L 53.807348 47.469645 
L 56.369331 50.585756 
L 58.931315 54.904634 
L 61.493298 60.383127 
L 64.055282 66.966495 
L 66.617265 74.588959 
L 69.179248 83.174359 
L 71.741232 92.636911 
L 74.303215 102.88207 
L 76.865199 113.807468 
L 79.427182 125.303943 
L 81.989166 137.256627 
L 84.551149 149.546091 
L 87.113133 162.049543 
L 89.675116 174.642053 
L 92.2371 187.197802 
L 94.799083 199.591335 
L 97.361067 211.698821 
L 99.92305 223.399286 
L 102.485034 234.575823 
L 105.047017 245.116759 
L 107.609001 254.916773 
L 110.170984 263.877946 
L 112.732967 271.910742 
L 115.294951 278.934898 
L 117.856934 284.880234 
L 120.418918 289.687343 
L 122.980901 293.308196 
L 125.542885 295.706614 
L 128.104868 296.858632 
L 130.666852 296.752741 
L 133.228835 295.389998 
L 135.790819 292.784019 
L 138.352802 288.960843 
L 140.914786 283.958669 
L 143.476769 277.827477 
L 146.038753 270.628528 
L 148.600736 262.433753 
L 151.16272 253.325029 
L 153.724703 243.393369 
L 156.286686 232.738006 
L 158.84867 221.465406 
L 161.410653 209.6882 
L 163.972637 197.524062 
L 166.53462 185.094533 
L 169.096604 172.523804 
L 171.658587 159.937477 
L 174.220571 147.461312 
L 176.782554 135.219966 
L 179.344538 123.335749 
L 181.906521 111.927407 
L 184.468505 101.108926 
L 187.030488 90.988401 
L 189.592472 81.666955 
L 192.154455 73.237722 
L 194.716439 65.784926 
L 197.278422 59.383032 
L 199.840405 54.096006 
L 202.402389 49.976674 
L 204.964372 47.066195 
L 207.526356 45.39365 
L 210.088339 44.97575 
L 212.650323 45.816671 
L 215.212306 47.90801 
L 217.77429 51.228872 
L 220.336273 55.746075 
L 222.898257 61.414485 
L 225.46024 68.177466 
L 228.022224 75.967443 
L 230.584207 84.706583 
L 233.146191 94.307565 
L 235.708174 104.674462 
L 238.270158 115.703689 
L 240.832141 127.285046 
L 243.394124 139.302817 
L 245.956108 151.636924 
L 248.518091 164.164129 
L 251.080075 176.759263 
L 253.642058 189.29648 
L 256.204042 201.650513 
L 258.766025 213.697925 
L 261.328009 225.318341 
L 263.889992 236.395654 
L 266.451976 246.819183 
L 269.013959 256.48478 
L 271.575943 265.295869 
L 274.137926 273.164414 
L 276.69991 280.011793 
L 279.261893 285.769591 
L 281.823877 290.380277 
L 284.38586 293.797782 
L 286.947843 295.987961 
L 289.509827 296.928929 
L 292.07181 296.611285 
L 294.633794 295.038203 
L 297.195777 292.2254 
L 299.757761 288.200981 
L 302.319744 283.005157 
" clip-path="url(#p74eb8a4cab)" style="fill: none; stroke: #d94f70; stroke-width: 1.5; stroke-linecap: round"/>
   </g>
   <g id="patch_3">
    <path d="M 36.001563 309.557937 
L 36.001563 32.357937 
" style="fill: none"/>
   </g>
   <g id="patch_4">
    <path d="M 315.001562 309.557937 
L 315.001562 32.357937 
" style="fill: none"/>
   </g>
   <g id="patch_5">
    <path d="M 36.001563 309.557937 
L 315.001562 309.557937 
" style="fill: none"/>
   </g>
   <g id="patch_6">
    <path d="M 36.001563 32.357937 
L 315.001562 32.357937 
" style="fill: none"/>
   </g>
   <g id="legend_1">
    <g id="text_16">
     <!-- Trigonometry Functions -->
     <g style="fill: #262626" transform="translate(72.314063 18.373437)scale(0.1 -0.1)">
      <defs>
       <path id="Helvetica-54" d="M 3828 4591 
L 3828 4044 
L 2281 4044 
L 2281 0 
L 1650 0 
L 1650 4044 
L 103 4044 
L 103 4591 
L 3828 4591 
z
" transform="scale(0.015625)"/>
       <path id="Helvetica-72" d="M 428 3347 
L 963 3347 
L 963 2769 
Q 1028 2938 1284 3180 
Q 1541 3422 1875 3422 
Q 1891 3422 1928 3419 
Q 1966 3416 2056 3406 
L 2056 2813 
Q 2006 2822 1964 2825 
Q 1922 2828 1872 2828 
Q 1447 2828 1219 2554 
Q 991 2281 991 1925 
L 991 0 
L 428 0 
L 428 3347 
z
" transform="scale(0.015625)"/>
       <path id="Helvetica-69" d="M 413 3331 
L 984 3331 
L 984 0 
L 413 0 
L 413 3331 
z
M 413 4591 
L 984 4591 
L 984 3953 
L 413 3953 
L 413 4591 
z
" transform="scale(0.015625)"/>
       <path id="Helvetica-67" d="M 1594 3406 
Q 1988 3406 2281 3213 
Q 2441 3103 2606 2894 
L 2606 3316 
L 3125 3316 
L 3125 272 
Q 3125 -366 2938 -734 
Q 2588 -1416 1616 -1416 
Q 1075 -1416 706 -1173 
Q 338 -931 294 -416 
L 866 -416 
Q 906 -641 1028 -763 
Q 1219 -950 1628 -950 
Q 2275 -950 2475 -494 
Q 2594 -225 2584 466 
Q 2416 209 2178 84 
Q 1941 -41 1550 -41 
Q 1006 -41 598 345 
Q 191 731 191 1622 
Q 191 2463 602 2934 
Q 1013 3406 1594 3406 
z
M 2606 1688 
Q 2606 2309 2350 2609 
Q 2094 2909 1697 2909 
Q 1103 2909 884 2353 
Q 769 2056 769 1575 
Q 769 1009 998 714 
Q 1228 419 1616 419 
Q 2222 419 2469 966 
Q 2606 1275 2606 1688 
z
M 1659 3428 
L 1659 3428 
z
" transform="scale(0.015625)"/>
       <path id="Helvetica-6f" d="M 1741 363 
Q 2300 363 2508 786 
Q 2716 1209 2716 1728 
Q 2716 2197 2566 2491 
Q 2328 2953 1747 2953 
Q 1231 2953 997 2559 
Q 763 2166 763 1609 
Q 763 1075 997 719 
Q 1231 363 1741 363 
z
M 1763 3444 
Q 2409 3444 2856 3012 
Q 3303 2581 3303 1744 
Q 3303 934 2909 406 
Q 2516 -122 1688 -122 
Q 997 -122 590 345 
Q 184 813 184 1600 
Q 184 2444 612 2944 
Q 1041 3444 1763 3444 
z
M 1744 3428 
L 1744 3428 
z
" transform="scale(0.015625)"/>
       <path id="Helvetica-6e" d="M 413 3347 
L 947 3347 
L 947 2872 
Q 1184 3166 1450 3294 
Q 1716 3422 2041 3422 
Q 2753 3422 3003 2925 
Q 3141 2653 3141 2147 
L 3141 0 
L 2569 0 
L 2569 2109 
Q 2569 2416 2478 2603 
Q 2328 2916 1934 2916 
Q 1734 2916 1606 2875 
Q 1375 2806 1200 2600 
Q 1059 2434 1017 2257 
Q 975 2081 975 1753 
L 975 0 
L 413 0 
L 413 3347 
z
M 1734 3428 
L 1734 3428 
z
" transform="scale(0.015625)"/>
       <path id="Helvetica-6d" d="M 413 3347 
L 969 3347 
L 969 2872 
Q 1169 3119 1331 3231 
Q 1609 3422 1963 3422 
Q 2363 3422 2606 3225 
Q 2744 3113 2856 2894 
Q 3044 3163 3297 3292 
Q 3550 3422 3866 3422 
Q 4541 3422 4784 2934 
Q 4916 2672 4916 2228 
L 4916 0 
L 4331 0 
L 4331 2325 
Q 4331 2659 4164 2784 
Q 3997 2909 3756 2909 
Q 3425 2909 3186 2687 
Q 2947 2466 2947 1947 
L 2947 0 
L 2375 0 
L 2375 2184 
Q 2375 2525 2294 2681 
Q 2166 2916 1816 2916 
Q 1497 2916 1236 2669 
Q 975 2422 975 1775 
L 975 0 
L 413 0 
L 413 3347 
z
" transform="scale(0.015625)"/>
       <path id="Helvetica-65" d="M 1806 3422 
Q 2163 3422 2497 3255 
Q 2831 3088 3006 2822 
Q 3175 2569 3231 2231 
Q 3281 2000 3281 1494 
L 828 1494 
Q 844 984 1069 676 
Q 1294 369 1766 369 
Q 2206 369 2469 659 
Q 2619 828 2681 1050 
L 3234 1050 
Q 3213 866 3089 639 
Q 2966 413 2813 269 
Q 2556 19 2178 -69 
Q 1975 -119 1719 -119 
Q 1094 -119 659 336 
Q 225 791 225 1609 
Q 225 2416 662 2919 
Q 1100 3422 1806 3422 
z
M 2703 1941 
Q 2669 2306 2544 2525 
Q 2313 2931 1772 2931 
Q 1384 2931 1121 2651 
Q 859 2372 844 1941 
L 2703 1941 
z
M 1753 3428 
L 1753 3428 
z
" transform="scale(0.015625)"/>
       <path id="Helvetica-74" d="M 525 4281 
L 1094 4281 
L 1094 3347 
L 1628 3347 
L 1628 2888 
L 1094 2888 
L 1094 703 
Q 1094 528 1213 469 
Q 1278 434 1431 434 
Q 1472 434 1519 436 
Q 1566 438 1628 444 
L 1628 0 
Q 1531 -28 1426 -40 
Q 1322 -53 1200 -53 
Q 806 -53 665 148 
Q 525 350 525 672 
L 525 2888 
L 72 2888 
L 72 3347 
L 525 3347 
L 525 4281 
z
" transform="scale(0.015625)"/>
       <path id="Helvetica-79" d="M 2503 3347 
L 3125 3347 
Q 3006 3025 2597 1878 
Q 2291 1016 2084 472 
Q 1597 -809 1397 -1090 
Q 1197 -1372 709 -1372 
Q 591 -1372 527 -1362 
Q 463 -1353 369 -1328 
L 369 -816 
Q 516 -856 581 -865 
Q 647 -875 697 -875 
Q 853 -875 926 -823 
Q 1000 -772 1050 -697 
Q 1066 -672 1162 -440 
Q 1259 -209 1303 -97 
L 66 3347 
L 703 3347 
L 1600 622 
L 2503 3347 
z
M 1597 3428 
L 1597 3428 
z
" transform="scale(0.015625)"/>
       <path id="Helvetica-20" transform="scale(0.015625)"/>
       <path id="Helvetica-46" d="M 547 4591 
L 3731 4591 
L 3731 4028 
L 1169 4028 
L 1169 2634 
L 3422 2634 
L 3422 2088 
L 1169 2088 
L 1169 0 
L 547 0 
L 547 4591 
z
" transform="scale(0.015625)"/>
       <path id="Helvetica-75" d="M 975 3347 
L 975 1125 
Q 975 869 1056 706 
Q 1206 406 1616 406 
Q 2203 406 2416 931 
Q 2531 1213 2531 1703 
L 2531 3347 
L 3094 3347 
L 3094 0 
L 2563 0 
L 2569 494 
Q 2459 303 2297 172 
Q 1975 -91 1516 -91 
Q 800 -91 541 388 
Q 400 644 400 1072 
L 400 3347 
L 975 3347 
z
M 1747 3428 
L 1747 3428 
z
" transform="scale(0.015625)"/>
       <path id="Helvetica-63" d="M 1703 3444 
Q 2269 3444 2623 3169 
Q 2978 2894 3050 2222 
L 2503 2222 
Q 2453 2531 2275 2736 
Q 2097 2941 1703 2941 
Q 1166 2941 934 2416 
Q 784 2075 784 1575 
Q 784 1072 996 728 
Q 1209 384 1666 384 
Q 2016 384 2220 598 
Q 2425 813 2503 1184 
L 3050 1184 
Q 2956 519 2581 211 
Q 2206 -97 1622 -97 
Q 966 -97 575 383 
Q 184 863 184 1581 
Q 184 2463 612 2953 
Q 1041 3444 1703 3444 
z
M 1616 3428 
L 1616 3428 
z
" transform="scale(0.015625)"/>
       <path id="Helvetica-73" d="M 747 1050 
Q 772 769 888 619 
Q 1100 347 1625 347 
Q 1938 347 2175 483 
Q 2413 619 2413 903 
Q 2413 1119 2222 1231 
Q 2100 1300 1741 1391 
L 1294 1503 
Q 866 1609 663 1741 
Q 300 1969 300 2372 
Q 300 2847 642 3140 
Q 984 3434 1563 3434 
Q 2319 3434 2653 2991 
Q 2863 2709 2856 2384 
L 2325 2384 
Q 2309 2575 2191 2731 
Q 1997 2953 1519 2953 
Q 1200 2953 1036 2831 
Q 872 2709 872 2509 
Q 872 2291 1088 2159 
Q 1213 2081 1456 2022 
L 1828 1931 
Q 2434 1784 2641 1647 
Q 2969 1431 2969 969 
Q 2969 522 2630 197 
Q 2291 -128 1597 -128 
Q 850 -128 539 211 
Q 228 550 206 1050 
L 747 1050 
z
M 1578 3428 
L 1578 3428 
z
" transform="scale(0.015625)"/>
      </defs>
      <use xlink:href="#Helvetica-54"/>
      <use xlink:href="#Helvetica-72" x="61.083984"/>
      <use xlink:href="#Helvetica-69" x="94.384766"/>
      <use xlink:href="#Helvetica-67" x="116.601562"/>
      <use xlink:href="#Helvetica-6f" x="172.216797"/>
      <use xlink:href="#Helvetica-6e" x="227.832031"/>
      <use xlink:href="#Helvetica-6f" x="283.447266"/>
      <use xlink:href="#Helvetica-6d" x="339.0625"/>
      <use xlink:href="#Helvetica-65" x="422.363281"/>
      <use xlink:href="#Helvetica-74" x="477.978516"/>
      <use xlink:href="#Helvetica-72" x="505.761719"/>
      <use xlink:href="#Helvetica-79" x="539.0625"/>
      <use xlink:href="#Helvetica-20" x="589.0625"/>
      <use xlink:href="#Helvetica-46" x="616.845703"/>
      <use xlink:href="#Helvetica-75" x="677.929688"/>
      <use xlink:href="#Helvetica-6e" x="733.544922"/>
      <use xlink:href="#Helvetica-63" x="789.160156"/>
      <use xlink:href="#Helvetica-74" x="839.160156"/>
      <use xlink:href="#Helvetica-69" x="866.943359"/>
      <use xlink:href="#Helvetica-6f" x="889.160156"/>
      <use xlink:href="#Helvetica-6e" x="944.775391"/>
      <use xlink:href="#Helvetica-73" x="1000.390625"/>
     </g>
    </g>
    <g id="line2d_33">
     <path d="M 187.345313 14.9375 
L 197.345313 14.9375 
L 207.345313 14.9375 
" style="fill: none; stroke: #5a5b9f; stroke-width: 1.5; stroke-linecap: round"/>
    </g>
    <g id="text_17">
     <!-- sin -->
     <g style="fill: #262626" transform="translate(215.345313 18.4375)scale(0.1 -0.1)">
      <use xlink:href="#Helvetica-73"/>
      <use xlink:href="#Helvetica-69" x="50"/>
      <use xlink:href="#Helvetica-6e" x="72.216797"/>
     </g>
    </g>
    <g id="line2d_34">
     <path d="M 235.128125 14.9375 
L 245.128125 14.9375 
L 255.128125 14.9375 
" style="fill: none; stroke: #d94f70; stroke-width: 1.5; stroke-linecap: round"/>
    </g>
    <g id="text_18">
     <!-- cos -->
     <g style="fill: #262626" transform="translate(263.128125 18.4375)scale(0.1 -0.1)">
      <use xlink:href="#Helvetica-63"/>
      <use xlink:href="#Helvetica-6f" x="50"/>
      <use xlink:href="#Helvetica-73" x="105.615234"/>
     </g>
    </g>
   </g>
  </g>
 </g>
 <defs>
  <clipPath id="p74eb8a4cab">
   <rect x="36.001563" y="32.357937" width="279" height="277.2"/>
  </clipPath>
 </defs>
</svg>
