<?xml version="1.0" encoding="utf-8" standalone="no"?>
<!DOCTYPE svg PUBLIC "-//W3C//DTD SVG 1.1//EN"
  "http://www.w3.org/Graphics/SVG/1.1/DTD/svg11.dtd">
<svg xmlns:xlink="http://www.w3.org/1999/xlink" width="297.039062pt" height="180.72pt" viewBox="0 0 297.039062 180.72" xmlns="http://www.w3.org/2000/svg" version="1.1">
 <metadata>
  <rdf:RDF xmlns:dc="http://purl.org/dc/elements/1.1/" xmlns:cc="http://creativecommons.org/ns#" xmlns:rdf="http://www.w3.org/1999/02/22-rdf-syntax-ns#">
   <cc:Work>
    <dc:type rdf:resource="http://purl.org/dc/dcmitype/StillImage"/>
    <dc:date>2022-05-26T16:44:18.395268</dc:date>
    <dc:format>image/svg+xml</dc:format>
    <dc:creator>
     <cc:Agent>
      <dc:title>Matplotlib v3.5.2, https://matplotlib.org/</dc:title>
     </cc:Agent>
    </dc:creator>
   </cc:Work>
  </rdf:RDF>
 </metadata>
 <defs>
  <style type="text/css">*{stroke-linejoin: round; stroke-linecap: butt}</style>
 </defs>
 <g id="figure_1">
  <g id="patch_1">
   <path d="M 0 180.72 
L 297.039062 180.72 
L 297.039062 0 
L 0 0 
z
" style="fill: #ffffff"/>
  </g>
  <g id="axes_1">
   <g id="patch_2">
    <path d="M 7.2 154.870938 
L 289.839063 154.870938 
L 289.839063 25.849063 
L 7.2 25.849063 
z
" style="fill: #ffffff; stroke: #000000; stroke-linejoin: miter"/>
   </g>
   <g id="text_1">
    <!-- Moons in solar systems -->
    <g style="fill: #262626" transform="translate(96.283594 53.0225)scale(0.1 -0.1)">
     <defs>
      <path id="Helvetica-4d" d="M 472 4591 
L 1363 4591 
L 2681 709 
L 3991 4591 
L 4872 4591 
L 4872 0 
L 4281 0 
L 4281 2709 
Q 4281 2850 4287 3175 
Q 4294 3500 4294 3872 
L 2984 0 
L 2369 0 
L 1050 3872 
L 1050 3731 
Q 1050 3563 1058 3217 
Q 1066 2872 1066 2709 
L 1066 0 
L 472 0 
L 472 4591 
z
" transform="scale(0.015625)"/>
      <path id="Helvetica-6f" d="M 1741 363 
Q 2300 363 2508 786 
Q 2716 1209 2716 1728 
Q 2716 2197 2566 2491 
Q 2328 2953 1747 2953 
Q 1231 2953 997 2559 
Q 763 2166 763 1609 
Q 763 1075 997 719 
Q 1231 363 1741 363 
z
M 1763 3444 
Q 2409 3444 2856 3012 
Q 3303 2581 3303 1744 
Q 3303 934 2909 406 
Q 2516 -122 1688 -122 
Q 997 -122 590 345 
Q 184 813 184 1600 
Q 184 2444 612 2944 
Q 1041 3444 1763 3444 
z
M 1744 3428 
L 1744 3428 
z
" transform="scale(0.015625)"/>
      <path id="Helvetica-6e" d="M 413 3347 
L 947 3347 
L 947 2872 
Q 1184 3166 1450 3294 
Q 1716 3422 2041 3422 
Q 2753 3422 3003 2925 
Q 3141 2653 3141 2147 
L 3141 0 
L 2569 0 
L 2569 2109 
Q 2569 2416 2478 2603 
Q 2328 2916 1934 2916 
Q 1734 2916 1606 2875 
Q 1375 2806 1200 2600 
Q 1059 2434 1017 2257 
Q 975 2081 975 1753 
L 975 0 
L 413 0 
L 413 3347 
z
M 1734 3428 
L 1734 3428 
z
" transform="scale(0.015625)"/>
      <path id="Helvetica-73" d="M 747 1050 
Q 772 769 888 619 
Q 1100 347 1625 347 
Q 1938 347 2175 483 
Q 2413 619 2413 903 
Q 2413 1119 2222 1231 
Q 2100 1300 1741 1391 
L 1294 1503 
Q 866 1609 663 1741 
Q 300 1969 300 2372 
Q 300 2847 642 3140 
Q 984 3434 1563 3434 
Q 2319 3434 2653 2991 
Q 2863 2709 2856 2384 
L 2325 2384 
Q 2309 2575 2191 2731 
Q 1997 2953 1519 2953 
Q 1200 2953 1036 2831 
Q 872 2709 872 2509 
Q 872 2291 1088 2159 
Q 1213 2081 1456 2022 
L 1828 1931 
Q 2434 1784 2641 1647 
Q 2969 1431 2969 969 
Q 2969 522 2630 197 
Q 2291 -128 1597 -128 
Q 850 -128 539 211 
Q 228 550 206 1050 
L 747 1050 
z
M 1578 3428 
L 1578 3428 
z
" transform="scale(0.015625)"/>
      <path id="Helvetica-20" transform="scale(0.015625)"/>
      <path id="Helvetica-69" d="M 413 3331 
L 984 3331 
L 984 0 
L 413 0 
L 413 3331 
z
M 413 4591 
L 984 4591 
L 984 3953 
L 413 3953 
L 413 4591 
z
" transform="scale(0.015625)"/>
      <path id="Helvetica-6c" d="M 428 4591 
L 991 4591 
L 991 0 
L 428 0 
L 428 4591 
z
" transform="scale(0.015625)"/>
      <path id="Helvetica-61" d="M 844 891 
Q 844 647 1022 506 
Q 1200 366 1444 366 
Q 1741 366 2019 503 
Q 2488 731 2488 1250 
L 2488 1703 
Q 2384 1638 2221 1594 
Q 2059 1550 1903 1531 
L 1563 1488 
Q 1256 1447 1103 1359 
Q 844 1213 844 891 
z
M 2206 2028 
Q 2400 2053 2466 2191 
Q 2503 2266 2503 2406 
Q 2503 2694 2298 2823 
Q 2094 2953 1713 2953 
Q 1272 2953 1088 2716 
Q 984 2584 953 2325 
L 428 2325 
Q 444 2944 830 3186 
Q 1216 3428 1725 3428 
Q 2316 3428 2684 3203 
Q 3050 2978 3050 2503 
L 3050 575 
Q 3050 488 3086 434 
Q 3122 381 3238 381 
Q 3275 381 3322 386 
Q 3369 391 3422 400 
L 3422 -16 
Q 3291 -53 3222 -62 
Q 3153 -72 3034 -72 
Q 2744 -72 2613 134 
Q 2544 244 2516 444 
Q 2344 219 2022 53 
Q 1700 -113 1313 -113 
Q 847 -113 551 170 
Q 256 453 256 878 
Q 256 1344 547 1600 
Q 838 1856 1309 1916 
L 2206 2028 
z
M 1741 3428 
L 1741 3428 
z
" transform="scale(0.015625)"/>
      <path id="Helvetica-72" d="M 428 3347 
L 963 3347 
L 963 2769 
Q 1028 2938 1284 3180 
Q 1541 3422 1875 3422 
Q 1891 3422 1928 3419 
Q 1966 3416 2056 3406 
L 2056 2813 
Q 2006 2822 1964 2825 
Q 1922 2828 1872 2828 
Q 1447 2828 1219 2554 
Q 991 2281 991 1925 
L 991 0 
L 428 0 
L 428 3347 
z
" transform="scale(0.015625)"/>
      <path id="Helvetica-79" d="M 2503 3347 
L 3125 3347 
Q 3006 3025 2597 1878 
Q 2291 1016 2084 472 
Q 1597 -809 1397 -1090 
Q 1197 -1372 709 -1372 
Q 591 -1372 527 -1362 
Q 463 -1353 369 -1328 
L 369 -816 
Q 516 -856 581 -865 
Q 647 -875 697 -875 
Q 853 -875 926 -823 
Q 1000 -772 1050 -697 
Q 1066 -672 1162 -440 
Q 1259 -209 1303 -97 
L 66 3347 
L 703 3347 
L 1600 622 
L 2503 3347 
z
M 1597 3428 
L 1597 3428 
z
" transform="scale(0.015625)"/>
      <path id="Helvetica-74" d="M 525 4281 
L 1094 4281 
L 1094 3347 
L 1628 3347 
L 1628 2888 
L 1094 2888 
L 1094 703 
Q 1094 528 1213 469 
Q 1278 434 1431 434 
Q 1472 434 1519 436 
Q 1566 438 1628 444 
L 1628 0 
Q 1531 -28 1426 -40 
Q 1322 -53 1200 -53 
Q 806 -53 665 148 
Q 525 350 525 672 
L 525 2888 
L 72 2888 
L 72 3347 
L 525 3347 
L 525 4281 
z
" transform="scale(0.015625)"/>
      <path id="Helvetica-65" d="M 1806 3422 
Q 2163 3422 2497 3255 
Q 2831 3088 3006 2822 
Q 3175 2569 3231 2231 
Q 3281 2000 3281 1494 
L 828 1494 
Q 844 984 1069 676 
Q 1294 369 1766 369 
Q 2206 369 2469 659 
Q 2619 828 2681 1050 
L 3234 1050 
Q 3213 866 3089 639 
Q 2966 413 2813 269 
Q 2556 19 2178 -69 
Q 1975 -119 1719 -119 
Q 1094 -119 659 336 
Q 225 791 225 1609 
Q 225 2416 662 2919 
Q 1100 3422 1806 3422 
z
M 2703 1941 
Q 2669 2306 2544 2525 
Q 2313 2931 1772 2931 
Q 1384 2931 1121 2651 
Q 859 2372 844 1941 
L 2703 1941 
z
M 1753 3428 
L 1753 3428 
z
" transform="scale(0.015625)"/>
      <path id="Helvetica-6d" d="M 413 3347 
L 969 3347 
L 969 2872 
Q 1169 3119 1331 3231 
Q 1609 3422 1963 3422 
Q 2363 3422 2606 3225 
Q 2744 3113 2856 2894 
Q 3044 3163 3297 3292 
Q 3550 3422 3866 3422 
Q 4541 3422 4784 2934 
Q 4916 2672 4916 2228 
L 4916 0 
L 4331 0 
L 4331 2325 
Q 4331 2659 4164 2784 
Q 3997 2909 3756 2909 
Q 3425 2909 3186 2687 
Q 2947 2466 2947 1947 
L 2947 0 
L 2375 0 
L 2375 2184 
Q 2375 2525 2294 2681 
Q 2166 2916 1816 2916 
Q 1497 2916 1236 2669 
Q 975 2422 975 1775 
L 975 0 
L 413 0 
L 413 3347 
z
" transform="scale(0.015625)"/>
     </defs>
     <use xlink:href="#Helvetica-4d"/>
     <use xlink:href="#Helvetica-6f" x="83.300781"/>
     <use xlink:href="#Helvetica-6f" x="138.916016"/>
     <use xlink:href="#Helvetica-6e" x="194.53125"/>
     <use xlink:href="#Helvetica-73" x="250.146484"/>
     <use xlink:href="#Helvetica-20" x="300.146484"/>
     <use xlink:href="#Helvetica-69" x="327.929688"/>
     <use xlink:href="#Helvetica-6e" x="350.146484"/>
     <use xlink:href="#Helvetica-20" x="405.761719"/>
     <use xlink:href="#Helvetica-73" x="433.544922"/>
     <use xlink:href="#Helvetica-6f" x="483.544922"/>
     <use xlink:href="#Helvetica-6c" x="539.160156"/>
     <use xlink:href="#Helvetica-61" x="561.376953"/>
     <use xlink:href="#Helvetica-72" x="616.992188"/>
     <use xlink:href="#Helvetica-20" x="650.292969"/>
     <use xlink:href="#Helvetica-73" x="678.076172"/>
     <use xlink:href="#Helvetica-79" x="728.076172"/>
     <use xlink:href="#Helvetica-73" x="778.076172"/>
     <use xlink:href="#Helvetica-74" x="828.076172"/>
     <use xlink:href="#Helvetica-65" x="855.859375"/>
     <use xlink:href="#Helvetica-6d" x="911.474609"/>
     <use xlink:href="#Helvetica-73" x="994.775391"/>
    </g>
   </g>
   <g id="text_2">
    <!-- Earth's Moon -->
    <g style="fill: #262626" transform="translate(31.2 71.44125)scale(0.1 -0.1)">
     <defs>
      <path id="Helvetica-45" d="M 547 4591 
L 3894 4591 
L 3894 4028 
L 1153 4028 
L 1153 2634 
L 3688 2634 
L 3688 2103 
L 1153 2103 
L 1153 547 
L 3941 547 
L 3941 0 
L 547 0 
L 547 4591 
z
M 2244 4591 
L 2244 4591 
z
" transform="scale(0.015625)"/>
      <path id="Helvetica-68" d="M 413 4606 
L 975 4606 
L 975 2894 
Q 1175 3147 1334 3250 
Q 1606 3428 2013 3428 
Q 2741 3428 3000 2919 
Q 3141 2641 3141 2147 
L 3141 0 
L 2563 0 
L 2563 2109 
Q 2563 2478 2469 2650 
Q 2316 2925 1894 2925 
Q 1544 2925 1259 2684 
Q 975 2444 975 1775 
L 975 0 
L 413 0 
L 413 4606 
z
" transform="scale(0.015625)"/>
      <path id="Helvetica-27" d="M 1056 4591 
L 953 2753 
L 591 2753 
L 488 4591 
L 1056 4591 
z
" transform="scale(0.015625)"/>
     </defs>
     <use xlink:href="#Helvetica-45"/>
     <use xlink:href="#Helvetica-61" x="66.699219"/>
     <use xlink:href="#Helvetica-72" x="122.314453"/>
     <use xlink:href="#Helvetica-74" x="155.615234"/>
     <use xlink:href="#Helvetica-68" x="183.398438"/>
     <use xlink:href="#Helvetica-27" x="239.013672"/>
     <use xlink:href="#Helvetica-73" x="258.105469"/>
     <use xlink:href="#Helvetica-20" x="308.105469"/>
     <use xlink:href="#Helvetica-4d" x="335.888672"/>
     <use xlink:href="#Helvetica-6f" x="419.189453"/>
     <use xlink:href="#Helvetica-6f" x="474.804688"/>
     <use xlink:href="#Helvetica-6e" x="530.419922"/>
    </g>
   </g>
   <g id="patch_3">
    <path d="M 41.2 85.699063 
C 42.128211 85.699063 43.01853 85.33028 43.674874 84.673936 
C 44.331218 84.017592 44.7 83.127273 44.7 82.199063 
C 44.7 81.270852 44.331218 80.380533 43.674874 79.724189 
C 43.01853 79.067845 42.128211 78.699063 41.2 78.699063 
C 40.271789 78.699063 39.38147 79.067845 38.725126 79.724189 
C 38.068782 80.380533 37.7 81.270852 37.7 82.199063 
C 37.7 83.127273 38.068782 84.017592 38.725126 84.673936 
C 39.38147 85.33028 40.271789 85.699063 41.2 85.699063 
z
" style="fill: #41729f; stroke: #41729f; stroke-linejoin: miter"/>
   </g>
   <g id="text_3">
    <!-- The Moon -->
    <g style="fill: #262626" transform="translate(51.2 85.699063)scale(0.1 -0.1)">
     <defs>
      <path id="Helvetica-54" d="M 3828 4591 
L 3828 4044 
L 2281 4044 
L 2281 0 
L 1650 0 
L 1650 4044 
L 103 4044 
L 103 4591 
L 3828 4591 
z
" transform="scale(0.015625)"/>
     </defs>
     <use xlink:href="#Helvetica-54"/>
     <use xlink:href="#Helvetica-68" x="61.083984"/>
     <use xlink:href="#Helvetica-65" x="116.699219"/>
     <use xlink:href="#Helvetica-20" x="172.314453"/>
     <use xlink:href="#Helvetica-4d" x="200.097656"/>
     <use xlink:href="#Helvetica-6f" x="283.398438"/>
     <use xlink:href="#Helvetica-6f" x="339.013672"/>
     <use xlink:href="#Helvetica-6e" x="394.628906"/>
    </g>
   </g>
   <g id="text_4">
    <!-- Mars' Moons -->
    <g style="fill: #262626" transform="translate(114.220313 71.44125)scale(0.1 -0.1)">
     <use xlink:href="#Helvetica-4d"/>
     <use xlink:href="#Helvetica-61" x="83.300781"/>
     <use xlink:href="#Helvetica-72" x="138.916016"/>
     <use xlink:href="#Helvetica-73" x="172.216797"/>
     <use xlink:href="#Helvetica-27" x="222.216797"/>
     <use xlink:href="#Helvetica-20" x="241.308594"/>
     <use xlink:href="#Helvetica-4d" x="269.091797"/>
     <use xlink:href="#Helvetica-6f" x="352.392578"/>
     <use xlink:href="#Helvetica-6f" x="408.007812"/>
     <use xlink:href="#Helvetica-6e" x="463.623047"/>
     <use xlink:href="#Helvetica-73" x="519.238281"/>
    </g>
   </g>
   <g id="patch_4">
    <path d="M 124.220313 85.699063 
C 125.148523 85.699063 126.038842 85.33028 126.695186 84.673936 
C 127.35153 84.017592 127.720313 83.127273 127.720313 82.199063 
C 127.720313 81.270852 127.35153 80.380533 126.695186 79.724189 
C 126.038842 79.067845 125.148523 78.699063 124.220313 78.699063 
C 123.292102 78.699063 122.401783 79.067845 121.745439 79.724189 
C 121.089095 80.380533 120.720313 81.270852 120.720313 82.199063 
C 120.720313 83.127273 121.089095 84.017592 121.745439 84.673936 
C 122.401783 85.33028 123.292102 85.699063 124.220313 85.699063 
z
" style="fill: #3d550c; stroke: #3d550c; stroke-linejoin: miter"/>
   </g>
   <g id="text_5">
    <!-- Deimos -->
    <g style="fill: #262626" transform="translate(134.220313 85.699063)scale(0.1 -0.1)">
     <defs>
      <path id="Helvetica-44" d="M 2250 531 
Q 2566 531 2769 597 
Q 3131 719 3363 1066 
Q 3547 1344 3628 1778 
Q 3675 2038 3675 2259 
Q 3675 3113 3336 3584 
Q 2997 4056 2244 4056 
L 1141 4056 
L 1141 531 
L 2250 531 
z
M 516 4591 
L 2375 4591 
Q 3322 4591 3844 3919 
Q 4309 3313 4309 2366 
Q 4309 1634 4034 1044 
Q 3550 0 2369 0 
L 516 0 
L 516 4591 
z
" transform="scale(0.015625)"/>
     </defs>
     <use xlink:href="#Helvetica-44"/>
     <use xlink:href="#Helvetica-65" x="72.216797"/>
     <use xlink:href="#Helvetica-69" x="127.832031"/>
     <use xlink:href="#Helvetica-6d" x="150.048828"/>
     <use xlink:href="#Helvetica-6f" x="233.349609"/>
     <use xlink:href="#Helvetica-73" x="288.964844"/>
    </g>
   </g>
   <g id="patch_5">
    <path d="M 124.220313 99.956875 
C 125.148523 99.956875 126.038842 99.588093 126.695186 98.931749 
C 127.35153 98.275405 127.720313 97.385086 127.720313 96.456875 
C 127.720313 95.528664 127.35153 94.638345 126.695186 93.982001 
C 126.038842 93.325657 125.148523 92.956875 124.220313 92.956875 
C 123.292102 92.956875 122.401783 93.325657 121.745439 93.982001 
C 121.089095 94.638345 120.720313 95.528664 120.720313 96.456875 
C 120.720313 97.385086 121.089095 98.275405 121.745439 98.931749 
C 122.401783 99.588093 123.292102 99.956875 124.220313 99.956875 
z
" style="fill: #81b622; stroke: #81b622; stroke-linejoin: miter"/>
   </g>
   <g id="text_6">
    <!-- Phobos -->
    <g style="fill: #262626" transform="translate(134.220313 99.956875)scale(0.1 -0.1)">
     <defs>
      <path id="Helvetica-50" d="M 547 4591 
L 2613 4591 
Q 3225 4591 3600 4245 
Q 3975 3900 3975 3275 
Q 3975 2738 3640 2339 
Q 3306 1941 2613 1941 
L 1169 1941 
L 1169 0 
L 547 0 
L 547 4591 
z
M 3347 3272 
Q 3347 3778 2972 3959 
Q 2766 4056 2406 4056 
L 1169 4056 
L 1169 2466 
L 2406 2466 
Q 2825 2466 3086 2644 
Q 3347 2822 3347 3272 
z
" transform="scale(0.015625)"/>
      <path id="Helvetica-62" d="M 369 4606 
L 916 4606 
L 916 2941 
Q 1100 3181 1356 3307 
Q 1613 3434 1913 3434 
Q 2538 3434 2927 3004 
Q 3316 2575 3316 1738 
Q 3316 944 2931 419 
Q 2547 -106 1866 -106 
Q 1484 -106 1222 78 
Q 1066 188 888 428 
L 888 0 
L 369 0 
L 369 4606 
z
M 1831 391 
Q 2288 391 2514 753 
Q 2741 1116 2741 1709 
Q 2741 2238 2514 2584 
Q 2288 2931 1847 2931 
Q 1463 2931 1173 2647 
Q 884 2363 884 1709 
Q 884 1238 1003 944 
Q 1225 391 1831 391 
z
" transform="scale(0.015625)"/>
     </defs>
     <use xlink:href="#Helvetica-50"/>
     <use xlink:href="#Helvetica-68" x="66.699219"/>
     <use xlink:href="#Helvetica-6f" x="122.314453"/>
     <use xlink:href="#Helvetica-62" x="177.929688"/>
     <use xlink:href="#Helvetica-6f" x="233.544922"/>
     <use xlink:href="#Helvetica-73" x="289.160156"/>
    </g>
   </g>
   <g id="text_7">
    <!-- Moons of Jupyter -->
    <g style="fill: #262626" transform="translate(189.140625 71.44125)scale(0.1 -0.1)">
     <defs>
      <path id="Helvetica-66" d="M 553 3856 
Q 566 4206 675 4369 
Q 872 4656 1434 4656 
Q 1488 4656 1544 4653 
Q 1600 4650 1672 4644 
L 1672 4131 
Q 1584 4138 1545 4139 
Q 1506 4141 1472 4141 
Q 1216 4141 1166 4008 
Q 1116 3875 1116 3331 
L 1672 3331 
L 1672 2888 
L 1109 2888 
L 1109 0 
L 553 0 
L 553 2888 
L 88 2888 
L 88 3331 
L 553 3331 
L 553 3856 
z
" transform="scale(0.015625)"/>
      <path id="Helvetica-4a" d="M 2741 1369 
Q 2741 788 2569 466 
Q 2250 -122 1356 -122 
Q 841 -122 475 158 
Q 109 438 109 1153 
L 109 1481 
L 694 1481 
L 694 1153 
Q 694 778 861 589 
Q 1028 400 1381 400 
Q 1878 400 2031 741 
Q 2125 950 2125 1531 
L 2125 4591 
L 2741 4591 
L 2741 1369 
z
" transform="scale(0.015625)"/>
      <path id="Helvetica-75" d="M 975 3347 
L 975 1125 
Q 975 869 1056 706 
Q 1206 406 1616 406 
Q 2203 406 2416 931 
Q 2531 1213 2531 1703 
L 2531 3347 
L 3094 3347 
L 3094 0 
L 2563 0 
L 2569 494 
Q 2459 303 2297 172 
Q 1975 -91 1516 -91 
Q 800 -91 541 388 
Q 400 644 400 1072 
L 400 3347 
L 975 3347 
z
M 1747 3428 
L 1747 3428 
z
" transform="scale(0.015625)"/>
      <path id="Helvetica-70" d="M 1825 378 
Q 2219 378 2480 708 
Q 2741 1038 2741 1694 
Q 2741 2094 2625 2381 
Q 2406 2934 1825 2934 
Q 1241 2934 1025 2350 
Q 909 2038 909 1556 
Q 909 1169 1025 897 
Q 1244 378 1825 378 
z
M 369 3331 
L 916 3331 
L 916 2888 
Q 1084 3116 1284 3241 
Q 1569 3428 1953 3428 
Q 2522 3428 2919 2992 
Q 3316 2556 3316 1747 
Q 3316 653 2744 184 
Q 2381 -113 1900 -113 
Q 1522 -113 1266 53 
Q 1116 147 931 375 
L 931 -1334 
L 369 -1334 
L 369 3331 
z
" transform="scale(0.015625)"/>
     </defs>
     <use xlink:href="#Helvetica-4d"/>
     <use xlink:href="#Helvetica-6f" x="83.300781"/>
     <use xlink:href="#Helvetica-6f" x="138.916016"/>
     <use xlink:href="#Helvetica-6e" x="194.53125"/>
     <use xlink:href="#Helvetica-73" x="250.146484"/>
     <use xlink:href="#Helvetica-20" x="300.146484"/>
     <use xlink:href="#Helvetica-6f" x="327.929688"/>
     <use xlink:href="#Helvetica-66" x="383.544922"/>
     <use xlink:href="#Helvetica-20" x="411.328125"/>
     <use xlink:href="#Helvetica-4a" x="439.111328"/>
     <use xlink:href="#Helvetica-75" x="489.111328"/>
     <use xlink:href="#Helvetica-70" x="544.726562"/>
     <use xlink:href="#Helvetica-79" x="600.341797"/>
     <use xlink:href="#Helvetica-74" x="650.341797"/>
     <use xlink:href="#Helvetica-65" x="678.125"/>
     <use xlink:href="#Helvetica-72" x="733.740234"/>
    </g>
   </g>
   <g id="patch_6">
    <path d="M 199.140625 85.758438 
C 200.068836 85.758438 200.959155 85.389655 201.615499 84.733311 
C 202.271843 84.076967 202.640625 83.186648 202.640625 82.258438 
C 202.640625 81.330227 202.271843 80.439908 201.615499 79.783564 
C 200.959155 79.12722 200.068836 78.758438 199.140625 78.758438 
C 198.212414 78.758438 197.322095 79.12722 196.665751 79.783564 
C 196.009407 80.439908 195.640625 81.330227 195.640625 82.258438 
C 195.640625 83.186648 196.009407 84.076967 196.665751 84.733311 
C 197.322095 85.389655 198.212414 85.758438 199.140625 85.758438 
z
" style="fill: #fb4570; stroke: #fb4570; stroke-linejoin: miter"/>
   </g>
   <g id="text_8">
    <!-- Io -->
    <g style="fill: #262626" transform="translate(209.140625 85.758438)scale(0.1 -0.1)">
     <defs>
      <path id="Helvetica-49" d="M 628 4591 
L 1256 4591 
L 1256 0 
L 628 0 
L 628 4591 
z
" transform="scale(0.015625)"/>
     </defs>
     <use xlink:href="#Helvetica-49"/>
     <use xlink:href="#Helvetica-6f" x="27.783203"/>
    </g>
   </g>
   <g id="patch_7">
    <path d="M 199.140625 100.01625 
C 200.068836 100.01625 200.959155 99.647468 201.615499 98.991124 
C 202.271843 98.33478 202.640625 97.444461 202.640625 96.51625 
C 202.640625 95.588039 202.271843 94.69772 201.615499 94.041376 
C 200.959155 93.385032 200.068836 93.01625 199.140625 93.01625 
C 198.212414 93.01625 197.322095 93.385032 196.665751 94.041376 
C 196.009407 94.69772 195.640625 95.588039 195.640625 96.51625 
C 195.640625 97.444461 196.009407 98.33478 196.665751 98.991124 
C 197.322095 99.647468 198.212414 100.01625 199.140625 100.01625 
z
" style="fill: #fb6b90; stroke: #fb6b90; stroke-linejoin: miter"/>
   </g>
   <g id="text_9">
    <!-- Europa -->
    <g style="fill: #262626" transform="translate(209.140625 100.01625)scale(0.1 -0.1)">
     <use xlink:href="#Helvetica-45"/>
     <use xlink:href="#Helvetica-75" x="66.699219"/>
     <use xlink:href="#Helvetica-72" x="122.314453"/>
     <use xlink:href="#Helvetica-6f" x="155.615234"/>
     <use xlink:href="#Helvetica-70" x="211.230469"/>
     <use xlink:href="#Helvetica-61" x="266.845703"/>
    </g>
   </g>
   <g id="patch_8">
    <path d="M 199.140625 114.469375 
C 200.068836 114.469375 200.959155 114.100593 201.615499 113.444249 
C 202.271843 112.787905 202.640625 111.897586 202.640625 110.969375 
C 202.640625 110.041164 202.271843 109.150845 201.615499 108.494501 
C 200.959155 107.838157 200.068836 107.469375 199.140625 107.469375 
C 198.212414 107.469375 197.322095 107.838157 196.665751 108.494501 
C 196.009407 109.150845 195.640625 110.041164 195.640625 110.969375 
C 195.640625 111.897586 196.009407 112.787905 196.665751 113.444249 
C 197.322095 114.100593 198.212414 114.469375 199.140625 114.469375 
z
" style="fill: #fb8da0; stroke: #fb8da0; stroke-linejoin: miter"/>
   </g>
   <g id="text_10">
    <!-- Ganymede -->
    <g style="fill: #262626" transform="translate(209.140625 114.469375)scale(0.1 -0.1)">
     <defs>
      <path id="Helvetica-47" d="M 2472 4709 
Q 3119 4709 3591 4459 
Q 4275 4100 4428 3200 
L 3813 3200 
Q 3700 3703 3347 3933 
Q 2994 4163 2456 4163 
Q 1819 4163 1383 3684 
Q 947 3206 947 2259 
Q 947 1441 1306 927 
Q 1666 413 2478 413 
Q 3100 413 3508 773 
Q 3916 1134 3925 1941 
L 2488 1941 
L 2488 2456 
L 4503 2456 
L 4503 0 
L 4103 0 
L 3953 591 
Q 3638 244 3394 109 
Q 2984 -122 2353 -122 
Q 1538 -122 950 406 
Q 309 1069 309 2225 
Q 309 3378 934 4059 
Q 1528 4709 2472 4709 
z
M 2369 4716 
L 2369 4716 
z
" transform="scale(0.015625)"/>
      <path id="Helvetica-64" d="M 769 1634 
Q 769 1097 997 734 
Q 1225 372 1728 372 
Q 2119 372 2370 708 
Q 2622 1044 2622 1672 
Q 2622 2306 2362 2611 
Q 2103 2916 1722 2916 
Q 1297 2916 1033 2591 
Q 769 2266 769 1634 
z
M 1616 3406 
Q 2000 3406 2259 3244 
Q 2409 3150 2600 2916 
L 2600 4606 
L 3141 4606 
L 3141 0 
L 2634 0 
L 2634 466 
Q 2438 156 2169 18 
Q 1900 -119 1553 -119 
Q 994 -119 584 351 
Q 175 822 175 1603 
Q 175 2334 548 2870 
Q 922 3406 1616 3406 
z
" transform="scale(0.015625)"/>
     </defs>
     <use xlink:href="#Helvetica-47"/>
     <use xlink:href="#Helvetica-61" x="77.783203"/>
     <use xlink:href="#Helvetica-6e" x="133.398438"/>
     <use xlink:href="#Helvetica-79" x="189.013672"/>
     <use xlink:href="#Helvetica-6d" x="239.013672"/>
     <use xlink:href="#Helvetica-65" x="322.314453"/>
     <use xlink:href="#Helvetica-64" x="377.929688"/>
     <use xlink:href="#Helvetica-65" x="433.544922"/>
    </g>
   </g>
   <g id="patch_9">
    <path d="M 199.140625 128.786563 
C 200.068836 128.786563 200.959155 128.41778 201.615499 127.761436 
C 202.271843 127.105092 202.640625 126.214773 202.640625 125.286563 
C 202.640625 124.358352 202.271843 123.468033 201.615499 122.811689 
C 200.959155 122.155345 200.068836 121.786563 199.140625 121.786563 
C 198.212414 121.786563 197.322095 122.155345 196.665751 122.811689 
C 196.009407 123.468033 195.640625 124.358352 195.640625 125.286563 
C 195.640625 126.214773 196.009407 127.105092 196.665751 127.761436 
C 197.322095 128.41778 198.212414 128.786563 199.140625 128.786563 
z
" style="fill: #efebe0; stroke: #efebe0; stroke-linejoin: miter"/>
   </g>
   <g id="text_11">
    <!-- Callisto -->
    <g style="fill: #262626" transform="translate(209.140625 128.786563)scale(0.1 -0.1)">
     <defs>
      <path id="Helvetica-43" d="M 2422 4716 
Q 3294 4716 3775 4256 
Q 4256 3797 4309 3213 
L 3703 3213 
Q 3600 3656 3292 3915 
Q 2984 4175 2428 4175 
Q 1750 4175 1333 3698 
Q 916 3222 916 2238 
Q 916 1431 1292 929 
Q 1669 428 2416 428 
Q 3103 428 3463 956 
Q 3653 1234 3747 1688 
L 4353 1688 
Q 4272 963 3816 472 
Q 3269 -119 2341 -119 
Q 1541 -119 997 366 
Q 281 1006 281 2344 
Q 281 3359 819 4009 
Q 1400 4716 2422 4716 
z
M 2297 4716 
L 2297 4716 
z
" transform="scale(0.015625)"/>
     </defs>
     <use xlink:href="#Helvetica-43"/>
     <use xlink:href="#Helvetica-61" x="72.216797"/>
     <use xlink:href="#Helvetica-6c" x="127.832031"/>
     <use xlink:href="#Helvetica-6c" x="150.048828"/>
     <use xlink:href="#Helvetica-69" x="172.265625"/>
     <use xlink:href="#Helvetica-73" x="194.482422"/>
     <use xlink:href="#Helvetica-74" x="244.482422"/>
     <use xlink:href="#Helvetica-6f" x="272.265625"/>
    </g>
   </g>
  </g>
 </g>
</svg>
