<?xml version="1.0" encoding="utf-8" standalone="no"?>
<!DOCTYPE svg PUBLIC "-//W3C//DTD SVG 1.1//EN"
  "http://www.w3.org/Graphics/SVG/1.1/DTD/svg11.dtd">
<svg xmlns:xlink="http://www.w3.org/1999/xlink" width="704.362657pt" height="224.39952pt" viewBox="0 0 704.362657 224.39952" xmlns="http://www.w3.org/2000/svg" version="1.1">
 <metadata>
  <rdf:RDF xmlns:dc="http://purl.org/dc/elements/1.1/" xmlns:cc="http://creativecommons.org/ns#" xmlns:rdf="http://www.w3.org/1999/02/22-rdf-syntax-ns#">
   <cc:Work>
    <dc:type rdf:resource="http://purl.org/dc/dcmitype/StillImage"/>
    <dc:date>2022-05-26T12:05:37.770721</dc:date>
    <dc:format>image/svg+xml</dc:format>
    <dc:creator>
     <cc:Agent>
      <dc:title>Matplotlib v3.5.2, https://matplotlib.org/</dc:title>
     </cc:Agent>
    </dc:creator>
   </cc:Work>
  </rdf:RDF>
 </metadata>
 <defs>
  <style type="text/css">*{stroke-linejoin: round; stroke-linecap: butt}</style>
 </defs>
 <g id="figure_1">
  <g id="patch_1">
   <path d="M 0 224.39952 
L 704.362657 224.39952 
L 704.362657 0 
L 0 0 
z
" style="fill: #ffffff"/>
  </g>
  <g id="axes_1">
   <g id="patch_2">
    <path d="M 36.001563 204.441708 
L 229.190251 204.441708 
L 229.190251 22.0425 
L 36.001563 22.0425 
z
" style="fill: #eaeaf2"/>
   </g>
   <g id="matplotlib.axis_1">
    <g id="xtick_1">
     <g id="line2d_1">
      <path d="M 44.782867 204.441708 
L 44.782867 22.0425 
" clip-path="url(#p29aa1c1e7d)" style="fill: none; stroke: #ffffff; stroke-width: 0.8; stroke-linecap: round"/>
     </g>
     <g id="line2d_2"/>
     <g id="text_1">
      <!-- 0 -->
      <g style="fill: #262626" transform="translate(42.002398 215.115145)scale(0.1 -0.1)">
       <defs>
        <path id="Helvetica-30" d="M 1731 4475 
Q 2600 4475 2988 3759 
Q 3288 3206 3288 2244 
Q 3288 1331 3016 734 
Q 2622 -122 1728 -122 
Q 922 -122 528 578 
Q 200 1163 200 2147 
Q 200 2909 397 3456 
Q 766 4475 1731 4475 
z
M 1725 391 
Q 2163 391 2422 778 
Q 2681 1166 2681 2222 
Q 2681 2984 2493 3476 
Q 2306 3969 1766 3969 
Q 1269 3969 1039 3501 
Q 809 3034 809 2125 
Q 809 1441 956 1025 
Q 1181 391 1725 391 
z
" transform="scale(0.015625)"/>
       </defs>
       <use xlink:href="#Helvetica-30"/>
      </g>
     </g>
    </g>
    <g id="xtick_2">
     <g id="line2d_3">
      <path d="M 80.262883 204.441708 
L 80.262883 22.0425 
" clip-path="url(#p29aa1c1e7d)" style="fill: none; stroke: #ffffff; stroke-width: 0.8; stroke-linecap: round"/>
     </g>
     <g id="line2d_4"/>
     <g id="text_2">
      <!-- 2 -->
      <g style="fill: #262626" transform="translate(77.482414 215.115145)scale(0.1 -0.1)">
       <defs>
        <path id="Helvetica-32" d="M 200 0 
Q 231 578 439 1006 
Q 647 1434 1250 1784 
L 1850 2131 
Q 2253 2366 2416 2531 
Q 2672 2791 2672 3125 
Q 2672 3516 2437 3745 
Q 2203 3975 1813 3975 
Q 1234 3975 1013 3538 
Q 894 3303 881 2888 
L 309 2888 
Q 319 3472 525 3841 
Q 891 4491 1816 4491 
Q 2584 4491 2939 4075 
Q 3294 3659 3294 3150 
Q 3294 2613 2916 2231 
Q 2697 2009 2131 1694 
L 1703 1456 
Q 1397 1288 1222 1134 
Q 909 863 828 531 
L 3272 531 
L 3272 0 
L 200 0 
z
" transform="scale(0.015625)"/>
       </defs>
       <use xlink:href="#Helvetica-32"/>
      </g>
     </g>
    </g>
    <g id="xtick_3">
     <g id="line2d_5">
      <path d="M 115.742899 204.441708 
L 115.742899 22.0425 
" clip-path="url(#p29aa1c1e7d)" style="fill: none; stroke: #ffffff; stroke-width: 0.8; stroke-linecap: round"/>
     </g>
     <g id="line2d_6"/>
     <g id="text_3">
      <!-- 4 -->
      <g style="fill: #262626" transform="translate(112.96243 215.115145)scale(0.1 -0.1)">
       <defs>
        <path id="Helvetica-34" d="M 2116 1584 
L 2116 3613 
L 681 1584 
L 2116 1584 
z
M 2125 0 
L 2125 1094 
L 163 1094 
L 163 1644 
L 2213 4488 
L 2688 4488 
L 2688 1584 
L 3347 1584 
L 3347 1094 
L 2688 1094 
L 2688 0 
L 2125 0 
z
" transform="scale(0.015625)"/>
       </defs>
       <use xlink:href="#Helvetica-34"/>
      </g>
     </g>
    </g>
    <g id="xtick_4">
     <g id="line2d_7">
      <path d="M 151.222916 204.441708 
L 151.222916 22.0425 
" clip-path="url(#p29aa1c1e7d)" style="fill: none; stroke: #ffffff; stroke-width: 0.8; stroke-linecap: round"/>
     </g>
     <g id="line2d_8"/>
     <g id="text_4">
      <!-- 6 -->
      <g style="fill: #262626" transform="translate(148.442447 215.115145)scale(0.1 -0.1)">
       <defs>
        <path id="Helvetica-36" d="M 1872 4494 
Q 2622 4494 2917 4105 
Q 3213 3716 3213 3303 
L 2656 3303 
Q 2606 3569 2497 3719 
Q 2294 4000 1881 4000 
Q 1409 4000 1131 3564 
Q 853 3128 822 2316 
Q 1016 2600 1309 2741 
Q 1578 2866 1909 2866 
Q 2472 2866 2890 2506 
Q 3309 2147 3309 1434 
Q 3309 825 2912 354 
Q 2516 -116 1781 -116 
Q 1153 -116 697 361 
Q 241 838 241 1966 
Q 241 2800 444 3381 
Q 834 4494 1872 4494 
z
M 1831 384 
Q 2275 384 2495 682 
Q 2716 981 2716 1388 
Q 2716 1731 2519 2042 
Q 2322 2353 1803 2353 
Q 1441 2353 1167 2112 
Q 894 1872 894 1388 
Q 894 963 1142 673 
Q 1391 384 1831 384 
z
" transform="scale(0.015625)"/>
       </defs>
       <use xlink:href="#Helvetica-36"/>
      </g>
     </g>
    </g>
    <g id="xtick_5">
     <g id="line2d_9">
      <path d="M 186.702932 204.441708 
L 186.702932 22.0425 
" clip-path="url(#p29aa1c1e7d)" style="fill: none; stroke: #ffffff; stroke-width: 0.8; stroke-linecap: round"/>
     </g>
     <g id="line2d_10"/>
     <g id="text_5">
      <!-- 8 -->
      <g style="fill: #262626" transform="translate(183.922463 215.115145)scale(0.1 -0.1)">
       <defs>
        <path id="Helvetica-38" d="M 1741 2600 
Q 2113 2600 2322 2808 
Q 2531 3016 2531 3303 
Q 2531 3553 2331 3762 
Q 2131 3972 1722 3972 
Q 1316 3972 1134 3762 
Q 953 3553 953 3272 
Q 953 2956 1187 2778 
Q 1422 2600 1741 2600 
z
M 1775 384 
Q 2166 384 2423 595 
Q 2681 806 2681 1225 
Q 2681 1659 2415 1884 
Q 2150 2109 1734 2109 
Q 1331 2109 1076 1879 
Q 822 1650 822 1244 
Q 822 894 1055 639 
Q 1288 384 1775 384 
z
M 975 2384 
Q 741 2484 609 2619 
Q 363 2869 363 3269 
Q 363 3769 725 4128 
Q 1088 4488 1753 4488 
Q 2397 4488 2762 4148 
Q 3128 3809 3128 3356 
Q 3128 2938 2916 2678 
Q 2797 2531 2547 2391 
Q 2825 2263 2984 2097 
Q 3281 1784 3281 1284 
Q 3281 694 2884 283 
Q 2488 -128 1763 -128 
Q 1109 -128 657 226 
Q 206 581 206 1256 
Q 206 1653 400 1942 
Q 594 2231 975 2384 
z
" transform="scale(0.015625)"/>
       </defs>
       <use xlink:href="#Helvetica-38"/>
      </g>
     </g>
    </g>
    <g id="xtick_6">
     <g id="line2d_11">
      <path d="M 222.182948 204.441708 
L 222.182948 22.0425 
" clip-path="url(#p29aa1c1e7d)" style="fill: none; stroke: #ffffff; stroke-width: 0.8; stroke-linecap: round"/>
     </g>
     <g id="line2d_12"/>
     <g id="text_6">
      <!-- 10 -->
      <g style="fill: #262626" transform="translate(216.622011 215.115145)scale(0.1 -0.1)">
       <defs>
        <path id="Helvetica-31" d="M 613 3169 
L 613 3600 
Q 1222 3659 1462 3798 
Q 1703 3938 1822 4456 
L 2266 4456 
L 2266 0 
L 1666 0 
L 1666 3169 
L 613 3169 
z
" transform="scale(0.015625)"/>
       </defs>
       <use xlink:href="#Helvetica-31"/>
       <use xlink:href="#Helvetica-30" x="55.615234"/>
      </g>
     </g>
    </g>
   </g>
   <g id="matplotlib.axis_2">
    <g id="ytick_1">
     <g id="line2d_13">
      <path d="M 36.001563 196.157197 
L 229.190251 196.157197 
" clip-path="url(#p29aa1c1e7d)" style="fill: none; stroke: #ffffff; stroke-width: 0.8; stroke-linecap: round"/>
     </g>
     <g id="line2d_14"/>
     <g id="text_7">
      <!-- −1.00 -->
      <g style="fill: #262626" transform="translate(7.2 199.743916)scale(0.1 -0.1)">
       <defs>
        <path id="Helvetica-2212" d="M 3547 1894 
L 3547 1369 
L 288 1369 
L 288 1894 
L 3547 1894 
z
" transform="scale(0.015625)"/>
        <path id="Helvetica-2e" d="M 547 681 
L 1200 681 
L 1200 0 
L 547 0 
L 547 681 
z
" transform="scale(0.015625)"/>
       </defs>
       <use xlink:href="#Helvetica-2212"/>
       <use xlink:href="#Helvetica-31" x="58.398438"/>
       <use xlink:href="#Helvetica-2e" x="114.013672"/>
       <use xlink:href="#Helvetica-30" x="141.796875"/>
       <use xlink:href="#Helvetica-30" x="197.412109"/>
      </g>
     </g>
    </g>
    <g id="ytick_2">
     <g id="line2d_15">
      <path d="M 36.001563 175.429219 
L 229.190251 175.429219 
" clip-path="url(#p29aa1c1e7d)" style="fill: none; stroke: #ffffff; stroke-width: 0.8; stroke-linecap: round"/>
     </g>
     <g id="line2d_16"/>
     <g id="text_8">
      <!-- −0.75 -->
      <g style="fill: #262626" transform="translate(7.2 179.015938)scale(0.1 -0.1)">
       <defs>
        <path id="Helvetica-37" d="M 3347 4400 
L 3347 3909 
Q 3131 3700 2773 3181 
Q 2416 2663 2141 2063 
Q 1869 1478 1728 997 
Q 1638 688 1494 0 
L 872 0 
Q 1084 1281 1809 2550 
Q 2238 3294 2709 3834 
L 234 3834 
L 234 4400 
L 3347 4400 
z
" transform="scale(0.015625)"/>
        <path id="Helvetica-35" d="M 791 1141 
Q 847 659 1238 475 
Q 1438 381 1700 381 
Q 2200 381 2440 700 
Q 2681 1019 2681 1406 
Q 2681 1875 2395 2131 
Q 2109 2388 1709 2388 
Q 1419 2388 1211 2275 
Q 1003 2163 856 1963 
L 369 1991 
L 709 4400 
L 3034 4400 
L 3034 3856 
L 1131 3856 
L 941 2613 
Q 1097 2731 1238 2791 
Q 1488 2894 1816 2894 
Q 2431 2894 2859 2497 
Q 3288 2100 3288 1491 
Q 3288 856 2895 371 
Q 2503 -113 1644 -113 
Q 1097 -113 676 195 
Q 256 503 206 1141 
L 791 1141 
z
" transform="scale(0.015625)"/>
       </defs>
       <use xlink:href="#Helvetica-2212"/>
       <use xlink:href="#Helvetica-30" x="58.398438"/>
       <use xlink:href="#Helvetica-2e" x="114.013672"/>
       <use xlink:href="#Helvetica-37" x="141.796875"/>
       <use xlink:href="#Helvetica-35" x="197.412109"/>
      </g>
     </g>
    </g>
    <g id="ytick_3">
     <g id="line2d_17">
      <path d="M 36.001563 154.701241 
L 229.190251 154.701241 
" clip-path="url(#p29aa1c1e7d)" style="fill: none; stroke: #ffffff; stroke-width: 0.8; stroke-linecap: round"/>
     </g>
     <g id="line2d_18"/>
     <g id="text_9">
      <!-- −0.50 -->
      <g style="fill: #262626" transform="translate(7.2 158.28796)scale(0.1 -0.1)">
       <use xlink:href="#Helvetica-2212"/>
       <use xlink:href="#Helvetica-30" x="58.398438"/>
       <use xlink:href="#Helvetica-2e" x="114.013672"/>
       <use xlink:href="#Helvetica-35" x="141.796875"/>
       <use xlink:href="#Helvetica-30" x="197.412109"/>
      </g>
     </g>
    </g>
    <g id="ytick_4">
     <g id="line2d_19">
      <path d="M 36.001563 133.973263 
L 229.190251 133.973263 
" clip-path="url(#p29aa1c1e7d)" style="fill: none; stroke: #ffffff; stroke-width: 0.8; stroke-linecap: round"/>
     </g>
     <g id="line2d_20"/>
     <g id="text_10">
      <!-- −0.25 -->
      <g style="fill: #262626" transform="translate(7.2 137.559982)scale(0.1 -0.1)">
       <use xlink:href="#Helvetica-2212"/>
       <use xlink:href="#Helvetica-30" x="58.398438"/>
       <use xlink:href="#Helvetica-2e" x="114.013672"/>
       <use xlink:href="#Helvetica-32" x="141.796875"/>
       <use xlink:href="#Helvetica-35" x="197.412109"/>
      </g>
     </g>
    </g>
    <g id="ytick_5">
     <g id="line2d_21">
      <path d="M 36.001563 113.245285 
L 229.190251 113.245285 
" clip-path="url(#p29aa1c1e7d)" style="fill: none; stroke: #ffffff; stroke-width: 0.8; stroke-linecap: round"/>
     </g>
     <g id="line2d_22"/>
     <g id="text_11">
      <!-- 0.00 -->
      <g style="fill: #262626" transform="translate(13.040625 116.832004)scale(0.1 -0.1)">
       <use xlink:href="#Helvetica-30"/>
       <use xlink:href="#Helvetica-2e" x="55.615234"/>
       <use xlink:href="#Helvetica-30" x="83.398438"/>
       <use xlink:href="#Helvetica-30" x="139.013672"/>
      </g>
     </g>
    </g>
    <g id="ytick_6">
     <g id="line2d_23">
      <path d="M 36.001563 92.517307 
L 229.190251 92.517307 
" clip-path="url(#p29aa1c1e7d)" style="fill: none; stroke: #ffffff; stroke-width: 0.8; stroke-linecap: round"/>
     </g>
     <g id="line2d_24"/>
     <g id="text_12">
      <!-- 0.25 -->
      <g style="fill: #262626" transform="translate(13.040625 96.104026)scale(0.1 -0.1)">
       <use xlink:href="#Helvetica-30"/>
       <use xlink:href="#Helvetica-2e" x="55.615234"/>
       <use xlink:href="#Helvetica-32" x="83.398438"/>
       <use xlink:href="#Helvetica-35" x="139.013672"/>
      </g>
     </g>
    </g>
    <g id="ytick_7">
     <g id="line2d_25">
      <path d="M 36.001563 71.789329 
L 229.190251 71.789329 
" clip-path="url(#p29aa1c1e7d)" style="fill: none; stroke: #ffffff; stroke-width: 0.8; stroke-linecap: round"/>
     </g>
     <g id="line2d_26"/>
     <g id="text_13">
      <!-- 0.50 -->
      <g style="fill: #262626" transform="translate(13.040625 75.376048)scale(0.1 -0.1)">
       <use xlink:href="#Helvetica-30"/>
       <use xlink:href="#Helvetica-2e" x="55.615234"/>
       <use xlink:href="#Helvetica-35" x="83.398438"/>
       <use xlink:href="#Helvetica-30" x="139.013672"/>
      </g>
     </g>
    </g>
    <g id="ytick_8">
     <g id="line2d_27">
      <path d="M 36.001563 51.061351 
L 229.190251 51.061351 
" clip-path="url(#p29aa1c1e7d)" style="fill: none; stroke: #ffffff; stroke-width: 0.8; stroke-linecap: round"/>
     </g>
     <g id="line2d_28"/>
     <g id="text_14">
      <!-- 0.75 -->
      <g style="fill: #262626" transform="translate(13.040625 54.64807)scale(0.1 -0.1)">
       <use xlink:href="#Helvetica-30"/>
       <use xlink:href="#Helvetica-2e" x="55.615234"/>
       <use xlink:href="#Helvetica-37" x="83.398438"/>
       <use xlink:href="#Helvetica-35" x="139.013672"/>
      </g>
     </g>
    </g>
    <g id="ytick_9">
     <g id="line2d_29">
      <path d="M 36.001563 30.333373 
L 229.190251 30.333373 
" clip-path="url(#p29aa1c1e7d)" style="fill: none; stroke: #ffffff; stroke-width: 0.8; stroke-linecap: round"/>
     </g>
     <g id="line2d_30"/>
     <g id="text_15">
      <!-- 1.00 -->
      <g style="fill: #262626" transform="translate(13.040625 33.920092)scale(0.1 -0.1)">
       <use xlink:href="#Helvetica-31"/>
       <use xlink:href="#Helvetica-2e" x="55.615234"/>
       <use xlink:href="#Helvetica-30" x="83.398438"/>
       <use xlink:href="#Helvetica-30" x="139.013672"/>
      </g>
     </g>
    </g>
   </g>
   <g id="line2d_31">
    <path d="M 44.782867 113.245285 
L 46.556867 104.967906 
L 48.330868 96.773231 
L 50.104869 88.74314 
L 51.87887 80.957866 
L 53.652871 73.495197 
L 55.426871 66.429698 
L 57.200872 59.831965 
L 58.974873 53.76792 
L 60.748874 48.298153 
L 62.522875 43.477317 
L 64.296876 39.353579 
L 66.070876 35.968142 
L 67.844877 33.354834 
L 69.618878 31.539764 
L 71.392879 30.541069 
L 73.16688 30.368726 
L 74.94088 31.02446 
L 76.714881 32.501716 
L 78.488882 34.785735 
L 80.262883 37.853697 
L 82.036884 41.674946 
L 83.810884 46.211302 
L 85.584885 51.41744 
L 87.358886 57.241341 
L 89.132887 63.624815 
L 90.906888 70.504081 
L 92.680889 77.810402 
L 94.454889 85.470777 
L 96.22889 93.408666 
L 98.002891 101.544755 
L 99.776892 109.797753 
L 101.550893 118.085197 
L 103.324893 126.324282 
L 105.098894 134.432687 
L 106.872895 142.329393 
L 108.646896 149.935501 
L 110.420897 157.175013 
L 112.194898 163.975593 
L 113.968898 170.269293 
L 115.742899 175.993227 
L 117.5169 181.090205 
L 119.290901 185.509299 
L 121.064902 189.206355 
L 122.838902 192.144433 
L 124.612903 194.294176 
L 126.386904 195.634106 
L 128.160905 196.150834 
L 129.934906 195.839198 
L 131.708907 194.70231 
L 133.482907 192.75153 
L 135.256908 190.006351 
L 137.030909 186.4942 
L 138.80491 182.25017 
L 140.578911 177.316666 
L 142.352911 171.742983 
L 144.126912 165.584809 
L 145.900913 158.903676 
L 147.674914 151.76634 
L 149.448915 144.244114 
L 151.222916 136.412158 
L 152.996916 128.348727 
L 154.770917 120.134386 
L 156.544918 111.851213 
L 158.318919 103.581968 
L 160.09292 95.409276 
L 161.86692 87.414795 
L 163.640921 79.678404 
L 165.414922 72.277402 
L 167.188923 65.285738 
L 168.962924 58.77327 
L 170.736924 52.805068 
L 172.510925 47.440765 
L 174.284926 42.733959 
L 176.058927 38.731679 
L 177.832928 35.473914 
L 179.606929 32.993214 
L 181.380929 31.314367 
L 183.15493 30.454147 
L 184.928931 30.421148 
L 186.702932 31.215701 
L 188.476933 32.829866 
L 190.250933 35.247516 
L 192.024934 38.444493 
L 193.798935 42.388856 
L 195.572936 47.041192 
L 197.346937 52.355018 
L 199.120938 58.277239 
L 200.894938 64.748682 
L 202.668939 71.704688 
L 204.44294 79.075754 
L 206.216941 86.78823 
L 207.990942 94.765056 
L 209.764942 102.926531 
L 211.538943 111.191107 
L 213.312944 119.476208 
L 215.086945 127.699052 
L 216.860946 135.777478 
L 218.634947 143.630771 
L 220.408947 151.180461 
" clip-path="url(#p29aa1c1e7d)" style="fill: none; stroke: #5a5b9f; stroke-width: 1.5; stroke-linecap: round"/>
   </g>
   <g id="line2d_32">
    <path d="M 44.782867 30.333373 
L 46.556867 30.747587 
L 48.330868 31.986091 
L 50.104869 34.03651 
L 51.87887 36.878357 
L 53.652871 40.483237 
L 55.426871 44.815131 
L 57.200872 49.830757 
L 58.974873 55.48 
L 60.748874 61.706414 
L 62.522875 68.447788 
L 64.296876 75.636763 
L 66.070876 83.201511 
L 67.844877 91.066446 
L 69.618878 99.152984 
L 71.392879 107.380329 
L 73.16688 115.666273 
L 74.94088 123.928029 
L 76.714881 132.083045 
L 78.488882 140.049841 
L 80.262883 147.748815 
L 82.036884 155.103041 
L 83.810884 162.039038 
L 85.584885 168.487504 
L 87.358886 174.384008 
L 89.132887 179.669634 
L 90.906888 184.29157 
L 92.680889 188.203635 
L 94.454889 191.366741 
L 96.22889 193.749283 
L 98.002891 195.327456 
L 99.776892 196.085491 
L 101.550893 196.015814 
L 103.324893 195.119121 
L 105.098894 193.404372 
L 106.872895 190.8887 
L 108.646896 187.59724 
L 110.420897 183.56288 
L 112.194898 178.825931 
L 113.968898 173.433721 
L 115.742899 167.440128 
L 117.5169 160.905038 
L 119.290901 153.893747 
L 121.064902 146.476311 
L 122.838902 138.726841 
L 124.612903 130.722768 
L 126.386904 122.544066 
L 128.160905 114.272453 
L 129.934906 105.990577 
L 131.708907 97.781188 
L 133.482907 89.726311 
L 135.256908 81.906428 
L 137.030909 74.399672 
L 138.80491 67.281049 
L 140.578911 60.621685 
L 142.352911 54.488119 
L 144.126912 48.941635 
L 145.900913 44.037652 
L 147.674914 39.825169 
L 149.448915 36.346275 
L 151.222916 33.635731 
L 152.996916 31.720619 
L 154.770917 30.620074 
L 156.544918 30.345094 
L 158.318919 30.898424 
L 160.09292 32.274538 
L 161.86692 34.459684 
L 163.640921 37.43203 
L 165.414922 41.161877 
L 167.188923 45.611957 
L 168.962924 50.737808 
L 170.736924 56.488212 
L 172.510925 62.805714 
L 174.284926 69.627192 
L 176.058927 76.884488 
L 177.832928 84.505088 
L 179.606929 92.412851 
L 181.380929 100.528765 
L 183.15493 108.771738 
L 184.928931 117.059409 
L 186.702932 125.308971 
L 188.476933 133.437997 
L 190.250933 141.365263 
L 192.024934 149.011564 
L 193.798935 156.3005 
L 195.572936 163.159243 
L 197.346937 169.519262 
L 199.120938 175.31701 
L 200.894938 180.494558 
L 202.668939 185.000173 
L 204.44294 188.788837 
L 206.216941 191.822695 
L 207.990942 194.071434 
L 209.764942 195.512584 
L 211.538943 196.131747 
L 213.312944 195.922735 
L 215.086945 194.887638 
L 216.860946 193.036798 
L 218.634947 190.388706 
L 220.408947 186.969824 
" clip-path="url(#p29aa1c1e7d)" style="fill: none; stroke: #d94f70; stroke-width: 1.5; stroke-linecap: round"/>
   </g>
   <g id="patch_3">
    <path d="M 36.001563 204.441708 
L 36.001563 22.0425 
" style="fill: none"/>
   </g>
   <g id="patch_4">
    <path d="M 229.190251 204.441708 
L 229.190251 22.0425 
" style="fill: none"/>
   </g>
   <g id="patch_5">
    <path d="M 36.001563 204.441708 
L 229.190251 204.441708 
" style="fill: none"/>
   </g>
   <g id="patch_6">
    <path d="M 36.001563 22.0425 
L 229.190251 22.0425 
" style="fill: none"/>
   </g>
   <g id="text_16">
    <!-- Old way -->
    <g style="fill: #262626" transform="translate(110.922782 16.0425)scale(0.12 -0.12)">
     <defs>
      <path id="Helvetica-4f" d="M 2469 4716 
Q 3684 4716 4269 3934 
Q 4725 3325 4725 2375 
Q 4725 1347 4203 666 
Q 3591 -134 2456 -134 
Q 1397 -134 791 566 
Q 250 1241 250 2272 
Q 250 3203 713 3866 
Q 1306 4716 2469 4716 
z
M 2531 422 
Q 3353 422 3720 1011 
Q 4088 1600 4088 2366 
Q 4088 3175 3664 3669 
Q 3241 4163 2506 4163 
Q 1794 4163 1344 3673 
Q 894 3184 894 2231 
Q 894 1469 1280 945 
Q 1666 422 2531 422 
z
M 2488 4716 
L 2488 4716 
z
" transform="scale(0.015625)"/>
      <path id="Helvetica-6c" d="M 428 4591 
L 991 4591 
L 991 0 
L 428 0 
L 428 4591 
z
" transform="scale(0.015625)"/>
      <path id="Helvetica-64" d="M 769 1634 
Q 769 1097 997 734 
Q 1225 372 1728 372 
Q 2119 372 2370 708 
Q 2622 1044 2622 1672 
Q 2622 2306 2362 2611 
Q 2103 2916 1722 2916 
Q 1297 2916 1033 2591 
Q 769 2266 769 1634 
z
M 1616 3406 
Q 2000 3406 2259 3244 
Q 2409 3150 2600 2916 
L 2600 4606 
L 3141 4606 
L 3141 0 
L 2634 0 
L 2634 466 
Q 2438 156 2169 18 
Q 1900 -119 1553 -119 
Q 994 -119 584 351 
Q 175 822 175 1603 
Q 175 2334 548 2870 
Q 922 3406 1616 3406 
z
" transform="scale(0.015625)"/>
      <path id="Helvetica-20" transform="scale(0.015625)"/>
      <path id="Helvetica-77" d="M 672 3347 
L 1316 709 
L 1969 3347 
L 2600 3347 
L 3256 725 
L 3941 3347 
L 4503 3347 
L 3531 0 
L 2947 0 
L 2266 2591 
L 1606 0 
L 1022 0 
L 56 3347 
L 672 3347 
z
" transform="scale(0.015625)"/>
      <path id="Helvetica-61" d="M 844 891 
Q 844 647 1022 506 
Q 1200 366 1444 366 
Q 1741 366 2019 503 
Q 2488 731 2488 1250 
L 2488 1703 
Q 2384 1638 2221 1594 
Q 2059 1550 1903 1531 
L 1563 1488 
Q 1256 1447 1103 1359 
Q 844 1213 844 891 
z
M 2206 2028 
Q 2400 2053 2466 2191 
Q 2503 2266 2503 2406 
Q 2503 2694 2298 2823 
Q 2094 2953 1713 2953 
Q 1272 2953 1088 2716 
Q 984 2584 953 2325 
L 428 2325 
Q 444 2944 830 3186 
Q 1216 3428 1725 3428 
Q 2316 3428 2684 3203 
Q 3050 2978 3050 2503 
L 3050 575 
Q 3050 488 3086 434 
Q 3122 381 3238 381 
Q 3275 381 3322 386 
Q 3369 391 3422 400 
L 3422 -16 
Q 3291 -53 3222 -62 
Q 3153 -72 3034 -72 
Q 2744 -72 2613 134 
Q 2544 244 2516 444 
Q 2344 219 2022 53 
Q 1700 -113 1313 -113 
Q 847 -113 551 170 
Q 256 453 256 878 
Q 256 1344 547 1600 
Q 838 1856 1309 1916 
L 2206 2028 
z
M 1741 3428 
L 1741 3428 
z
" transform="scale(0.015625)"/>
      <path id="Helvetica-79" d="M 2503 3347 
L 3125 3347 
Q 3006 3025 2597 1878 
Q 2291 1016 2084 472 
Q 1597 -809 1397 -1090 
Q 1197 -1372 709 -1372 
Q 591 -1372 527 -1362 
Q 463 -1353 369 -1328 
L 369 -816 
Q 516 -856 581 -865 
Q 647 -875 697 -875 
Q 853 -875 926 -823 
Q 1000 -772 1050 -697 
Q 1066 -672 1162 -440 
Q 1259 -209 1303 -97 
L 66 3347 
L 703 3347 
L 1600 622 
L 2503 3347 
z
M 1597 3428 
L 1597 3428 
z
" transform="scale(0.015625)"/>
     </defs>
     <use xlink:href="#Helvetica-4f"/>
     <use xlink:href="#Helvetica-6c" x="77.783203"/>
     <use xlink:href="#Helvetica-64" x="100"/>
     <use xlink:href="#Helvetica-20" x="155.615234"/>
     <use xlink:href="#Helvetica-77" x="183.398438"/>
     <use xlink:href="#Helvetica-61" x="255.615234"/>
     <use xlink:href="#Helvetica-79" x="311.230469"/>
    </g>
   </g>
   <g id="legend_1">
    <g id="text_17">
     <!-- Trigonometry Functions -->
     <g style="fill: #262626" transform="translate(240.122138 38.215938)scale(0.1 -0.1)">
      <defs>
       <path id="Helvetica-54" d="M 3828 4591 
L 3828 4044 
L 2281 4044 
L 2281 0 
L 1650 0 
L 1650 4044 
L 103 4044 
L 103 4591 
L 3828 4591 
z
" transform="scale(0.015625)"/>
       <path id="Helvetica-72" d="M 428 3347 
L 963 3347 
L 963 2769 
Q 1028 2938 1284 3180 
Q 1541 3422 1875 3422 
Q 1891 3422 1928 3419 
Q 1966 3416 2056 3406 
L 2056 2813 
Q 2006 2822 1964 2825 
Q 1922 2828 1872 2828 
Q 1447 2828 1219 2554 
Q 991 2281 991 1925 
L 991 0 
L 428 0 
L 428 3347 
z
" transform="scale(0.015625)"/>
       <path id="Helvetica-69" d="M 413 3331 
L 984 3331 
L 984 0 
L 413 0 
L 413 3331 
z
M 413 4591 
L 984 4591 
L 984 3953 
L 413 3953 
L 413 4591 
z
" transform="scale(0.015625)"/>
       <path id="Helvetica-67" d="M 1594 3406 
Q 1988 3406 2281 3213 
Q 2441 3103 2606 2894 
L 2606 3316 
L 3125 3316 
L 3125 272 
Q 3125 -366 2938 -734 
Q 2588 -1416 1616 -1416 
Q 1075 -1416 706 -1173 
Q 338 -931 294 -416 
L 866 -416 
Q 906 -641 1028 -763 
Q 1219 -950 1628 -950 
Q 2275 -950 2475 -494 
Q 2594 -225 2584 466 
Q 2416 209 2178 84 
Q 1941 -41 1550 -41 
Q 1006 -41 598 345 
Q 191 731 191 1622 
Q 191 2463 602 2934 
Q 1013 3406 1594 3406 
z
M 2606 1688 
Q 2606 2309 2350 2609 
Q 2094 2909 1697 2909 
Q 1103 2909 884 2353 
Q 769 2056 769 1575 
Q 769 1009 998 714 
Q 1228 419 1616 419 
Q 2222 419 2469 966 
Q 2606 1275 2606 1688 
z
M 1659 3428 
L 1659 3428 
z
" transform="scale(0.015625)"/>
       <path id="Helvetica-6f" d="M 1741 363 
Q 2300 363 2508 786 
Q 2716 1209 2716 1728 
Q 2716 2197 2566 2491 
Q 2328 2953 1747 2953 
Q 1231 2953 997 2559 
Q 763 2166 763 1609 
Q 763 1075 997 719 
Q 1231 363 1741 363 
z
M 1763 3444 
Q 2409 3444 2856 3012 
Q 3303 2581 3303 1744 
Q 3303 934 2909 406 
Q 2516 -122 1688 -122 
Q 997 -122 590 345 
Q 184 813 184 1600 
Q 184 2444 612 2944 
Q 1041 3444 1763 3444 
z
M 1744 3428 
L 1744 3428 
z
" transform="scale(0.015625)"/>
       <path id="Helvetica-6e" d="M 413 3347 
L 947 3347 
L 947 2872 
Q 1184 3166 1450 3294 
Q 1716 3422 2041 3422 
Q 2753 3422 3003 2925 
Q 3141 2653 3141 2147 
L 3141 0 
L 2569 0 
L 2569 2109 
Q 2569 2416 2478 2603 
Q 2328 2916 1934 2916 
Q 1734 2916 1606 2875 
Q 1375 2806 1200 2600 
Q 1059 2434 1017 2257 
Q 975 2081 975 1753 
L 975 0 
L 413 0 
L 413 3347 
z
M 1734 3428 
L 1734 3428 
z
" transform="scale(0.015625)"/>
       <path id="Helvetica-6d" d="M 413 3347 
L 969 3347 
L 969 2872 
Q 1169 3119 1331 3231 
Q 1609 3422 1963 3422 
Q 2363 3422 2606 3225 
Q 2744 3113 2856 2894 
Q 3044 3163 3297 3292 
Q 3550 3422 3866 3422 
Q 4541 3422 4784 2934 
Q 4916 2672 4916 2228 
L 4916 0 
L 4331 0 
L 4331 2325 
Q 4331 2659 4164 2784 
Q 3997 2909 3756 2909 
Q 3425 2909 3186 2687 
Q 2947 2466 2947 1947 
L 2947 0 
L 2375 0 
L 2375 2184 
Q 2375 2525 2294 2681 
Q 2166 2916 1816 2916 
Q 1497 2916 1236 2669 
Q 975 2422 975 1775 
L 975 0 
L 413 0 
L 413 3347 
z
" transform="scale(0.015625)"/>
       <path id="Helvetica-65" d="M 1806 3422 
Q 2163 3422 2497 3255 
Q 2831 3088 3006 2822 
Q 3175 2569 3231 2231 
Q 3281 2000 3281 1494 
L 828 1494 
Q 844 984 1069 676 
Q 1294 369 1766 369 
Q 2206 369 2469 659 
Q 2619 828 2681 1050 
L 3234 1050 
Q 3213 866 3089 639 
Q 2966 413 2813 269 
Q 2556 19 2178 -69 
Q 1975 -119 1719 -119 
Q 1094 -119 659 336 
Q 225 791 225 1609 
Q 225 2416 662 2919 
Q 1100 3422 1806 3422 
z
M 2703 1941 
Q 2669 2306 2544 2525 
Q 2313 2931 1772 2931 
Q 1384 2931 1121 2651 
Q 859 2372 844 1941 
L 2703 1941 
z
M 1753 3428 
L 1753 3428 
z
" transform="scale(0.015625)"/>
       <path id="Helvetica-74" d="M 525 4281 
L 1094 4281 
L 1094 3347 
L 1628 3347 
L 1628 2888 
L 1094 2888 
L 1094 703 
Q 1094 528 1213 469 
Q 1278 434 1431 434 
Q 1472 434 1519 436 
Q 1566 438 1628 444 
L 1628 0 
Q 1531 -28 1426 -40 
Q 1322 -53 1200 -53 
Q 806 -53 665 148 
Q 525 350 525 672 
L 525 2888 
L 72 2888 
L 72 3347 
L 525 3347 
L 525 4281 
z
" transform="scale(0.015625)"/>
       <path id="Helvetica-46" d="M 547 4591 
L 3731 4591 
L 3731 4028 
L 1169 4028 
L 1169 2634 
L 3422 2634 
L 3422 2088 
L 1169 2088 
L 1169 0 
L 547 0 
L 547 4591 
z
" transform="scale(0.015625)"/>
       <path id="Helvetica-75" d="M 975 3347 
L 975 1125 
Q 975 869 1056 706 
Q 1206 406 1616 406 
Q 2203 406 2416 931 
Q 2531 1213 2531 1703 
L 2531 3347 
L 3094 3347 
L 3094 0 
L 2563 0 
L 2569 494 
Q 2459 303 2297 172 
Q 1975 -91 1516 -91 
Q 800 -91 541 388 
Q 400 644 400 1072 
L 400 3347 
L 975 3347 
z
M 1747 3428 
L 1747 3428 
z
" transform="scale(0.015625)"/>
       <path id="Helvetica-63" d="M 1703 3444 
Q 2269 3444 2623 3169 
Q 2978 2894 3050 2222 
L 2503 2222 
Q 2453 2531 2275 2736 
Q 2097 2941 1703 2941 
Q 1166 2941 934 2416 
Q 784 2075 784 1575 
Q 784 1072 996 728 
Q 1209 384 1666 384 
Q 2016 384 2220 598 
Q 2425 813 2503 1184 
L 3050 1184 
Q 2956 519 2581 211 
Q 2206 -97 1622 -97 
Q 966 -97 575 383 
Q 184 863 184 1581 
Q 184 2463 612 2953 
Q 1041 3444 1703 3444 
z
M 1616 3428 
L 1616 3428 
z
" transform="scale(0.015625)"/>
       <path id="Helvetica-73" d="M 747 1050 
Q 772 769 888 619 
Q 1100 347 1625 347 
Q 1938 347 2175 483 
Q 2413 619 2413 903 
Q 2413 1119 2222 1231 
Q 2100 1300 1741 1391 
L 1294 1503 
Q 866 1609 663 1741 
Q 300 1969 300 2372 
Q 300 2847 642 3140 
Q 984 3434 1563 3434 
Q 2319 3434 2653 2991 
Q 2863 2709 2856 2384 
L 2325 2384 
Q 2309 2575 2191 2731 
Q 1997 2953 1519 2953 
Q 1200 2953 1036 2831 
Q 872 2709 872 2509 
Q 872 2291 1088 2159 
Q 1213 2081 1456 2022 
L 1828 1931 
Q 2434 1784 2641 1647 
Q 2969 1431 2969 969 
Q 2969 522 2630 197 
Q 2291 -128 1597 -128 
Q 850 -128 539 211 
Q 228 550 206 1050 
L 747 1050 
z
M 1578 3428 
L 1578 3428 
z
" transform="scale(0.015625)"/>
      </defs>
      <use xlink:href="#Helvetica-54"/>
      <use xlink:href="#Helvetica-72" x="61.083984"/>
      <use xlink:href="#Helvetica-69" x="94.384766"/>
      <use xlink:href="#Helvetica-67" x="116.601562"/>
      <use xlink:href="#Helvetica-6f" x="172.216797"/>
      <use xlink:href="#Helvetica-6e" x="227.832031"/>
      <use xlink:href="#Helvetica-6f" x="283.447266"/>
      <use xlink:href="#Helvetica-6d" x="339.0625"/>
      <use xlink:href="#Helvetica-65" x="422.363281"/>
      <use xlink:href="#Helvetica-74" x="477.978516"/>
      <use xlink:href="#Helvetica-72" x="505.761719"/>
      <use xlink:href="#Helvetica-79" x="539.0625"/>
      <use xlink:href="#Helvetica-20" x="589.0625"/>
      <use xlink:href="#Helvetica-46" x="616.845703"/>
      <use xlink:href="#Helvetica-75" x="677.929688"/>
      <use xlink:href="#Helvetica-6e" x="733.544922"/>
      <use xlink:href="#Helvetica-63" x="789.160156"/>
      <use xlink:href="#Helvetica-74" x="839.160156"/>
      <use xlink:href="#Helvetica-69" x="866.943359"/>
      <use xlink:href="#Helvetica-6f" x="889.160156"/>
      <use xlink:href="#Helvetica-6e" x="944.775391"/>
      <use xlink:href="#Helvetica-73" x="1000.390625"/>
     </g>
    </g>
    <g id="line2d_33">
     <path d="M 270.857295 49.101875 
L 280.857295 49.101875 
L 290.857295 49.101875 
" style="fill: none; stroke: #5a5b9f; stroke-width: 1.5; stroke-linecap: round"/>
    </g>
    <g id="text_18">
     <!-- sin -->
     <g style="fill: #262626" transform="translate(298.857295 52.601875)scale(0.1 -0.1)">
      <use xlink:href="#Helvetica-73"/>
      <use xlink:href="#Helvetica-69" x="50"/>
      <use xlink:href="#Helvetica-6e" x="72.216797"/>
     </g>
    </g>
    <g id="line2d_34">
     <path d="M 270.857295 63.359688 
L 280.857295 63.359688 
L 290.857295 63.359688 
" style="fill: none; stroke: #d94f70; stroke-width: 1.5; stroke-linecap: round"/>
    </g>
    <g id="text_19">
     <!-- cos -->
     <g style="fill: #262626" transform="translate(298.857295 66.859688)scale(0.1 -0.1)">
      <use xlink:href="#Helvetica-63"/>
      <use xlink:href="#Helvetica-6f" x="50"/>
      <use xlink:href="#Helvetica-73" x="105.615234"/>
     </g>
    </g>
   </g>
  </g>
  <g id="axes_2">
   <g id="patch_7">
    <path d="M 384.010831 204.441708 
L 577.19952 204.441708 
L 577.19952 22.0425 
L 384.010831 22.0425 
z
" style="fill: #eaeaf2"/>
   </g>
   <g id="matplotlib.axis_3">
    <g id="xtick_7">
     <g id="line2d_35">
      <path d="M 392.792135 204.441708 
L 392.792135 22.0425 
" clip-path="url(#p3c67e08a6c)" style="fill: none; stroke: #ffffff; stroke-width: 0.8; stroke-linecap: round"/>
     </g>
     <g id="line2d_36"/>
     <g id="text_20">
      <!-- 0 -->
      <g style="fill: #262626" transform="translate(390.011666 215.115145)scale(0.1 -0.1)">
       <use xlink:href="#Helvetica-30"/>
      </g>
     </g>
    </g>
    <g id="xtick_8">
     <g id="line2d_37">
      <path d="M 428.272151 204.441708 
L 428.272151 22.0425 
" clip-path="url(#p3c67e08a6c)" style="fill: none; stroke: #ffffff; stroke-width: 0.8; stroke-linecap: round"/>
     </g>
     <g id="line2d_38"/>
     <g id="text_21">
      <!-- 2 -->
      <g style="fill: #262626" transform="translate(425.491683 215.115145)scale(0.1 -0.1)">
       <use xlink:href="#Helvetica-32"/>
      </g>
     </g>
    </g>
    <g id="xtick_9">
     <g id="line2d_39">
      <path d="M 463.752168 204.441708 
L 463.752168 22.0425 
" clip-path="url(#p3c67e08a6c)" style="fill: none; stroke: #ffffff; stroke-width: 0.8; stroke-linecap: round"/>
     </g>
     <g id="line2d_40"/>
     <g id="text_22">
      <!-- 4 -->
      <g style="fill: #262626" transform="translate(460.971699 215.115145)scale(0.1 -0.1)">
       <use xlink:href="#Helvetica-34"/>
      </g>
     </g>
    </g>
    <g id="xtick_10">
     <g id="line2d_41">
      <path d="M 499.232184 204.441708 
L 499.232184 22.0425 
" clip-path="url(#p3c67e08a6c)" style="fill: none; stroke: #ffffff; stroke-width: 0.8; stroke-linecap: round"/>
     </g>
     <g id="line2d_42"/>
     <g id="text_23">
      <!-- 6 -->
      <g style="fill: #262626" transform="translate(496.451715 215.115145)scale(0.1 -0.1)">
       <use xlink:href="#Helvetica-36"/>
      </g>
     </g>
    </g>
    <g id="xtick_11">
     <g id="line2d_43">
      <path d="M 534.7122 204.441708 
L 534.7122 22.0425 
" clip-path="url(#p3c67e08a6c)" style="fill: none; stroke: #ffffff; stroke-width: 0.8; stroke-linecap: round"/>
     </g>
     <g id="line2d_44"/>
     <g id="text_24">
      <!-- 8 -->
      <g style="fill: #262626" transform="translate(531.931732 215.115145)scale(0.1 -0.1)">
       <use xlink:href="#Helvetica-38"/>
      </g>
     </g>
    </g>
    <g id="xtick_12">
     <g id="line2d_45">
      <path d="M 570.192217 204.441708 
L 570.192217 22.0425 
" clip-path="url(#p3c67e08a6c)" style="fill: none; stroke: #ffffff; stroke-width: 0.8; stroke-linecap: round"/>
     </g>
     <g id="line2d_46"/>
     <g id="text_25">
      <!-- 10 -->
      <g style="fill: #262626" transform="translate(564.631279 215.115145)scale(0.1 -0.1)">
       <use xlink:href="#Helvetica-31"/>
       <use xlink:href="#Helvetica-30" x="55.615234"/>
      </g>
     </g>
    </g>
   </g>
   <g id="matplotlib.axis_4">
    <g id="ytick_10">
     <g id="line2d_47">
      <path d="M 384.010831 196.157197 
L 577.19952 196.157197 
" clip-path="url(#p3c67e08a6c)" style="fill: none; stroke: #ffffff; stroke-width: 0.8; stroke-linecap: round"/>
     </g>
     <g id="line2d_48"/>
     <g id="text_26">
      <!-- −1.00 -->
      <g style="fill: #262626" transform="translate(355.209269 199.743916)scale(0.1 -0.1)">
       <use xlink:href="#Helvetica-2212"/>
       <use xlink:href="#Helvetica-31" x="58.398438"/>
       <use xlink:href="#Helvetica-2e" x="114.013672"/>
       <use xlink:href="#Helvetica-30" x="141.796875"/>
       <use xlink:href="#Helvetica-30" x="197.412109"/>
      </g>
     </g>
    </g>
    <g id="ytick_11">
     <g id="line2d_49">
      <path d="M 384.010831 175.429219 
L 577.19952 175.429219 
" clip-path="url(#p3c67e08a6c)" style="fill: none; stroke: #ffffff; stroke-width: 0.8; stroke-linecap: round"/>
     </g>
     <g id="line2d_50"/>
     <g id="text_27">
      <!-- −0.75 -->
      <g style="fill: #262626" transform="translate(355.209269 179.015938)scale(0.1 -0.1)">
       <use xlink:href="#Helvetica-2212"/>
       <use xlink:href="#Helvetica-30" x="58.398438"/>
       <use xlink:href="#Helvetica-2e" x="114.013672"/>
       <use xlink:href="#Helvetica-37" x="141.796875"/>
       <use xlink:href="#Helvetica-35" x="197.412109"/>
      </g>
     </g>
    </g>
    <g id="ytick_12">
     <g id="line2d_51">
      <path d="M 384.010831 154.701241 
L 577.19952 154.701241 
" clip-path="url(#p3c67e08a6c)" style="fill: none; stroke: #ffffff; stroke-width: 0.8; stroke-linecap: round"/>
     </g>
     <g id="line2d_52"/>
     <g id="text_28">
      <!-- −0.50 -->
      <g style="fill: #262626" transform="translate(355.209269 158.28796)scale(0.1 -0.1)">
       <use xlink:href="#Helvetica-2212"/>
       <use xlink:href="#Helvetica-30" x="58.398438"/>
       <use xlink:href="#Helvetica-2e" x="114.013672"/>
       <use xlink:href="#Helvetica-35" x="141.796875"/>
       <use xlink:href="#Helvetica-30" x="197.412109"/>
      </g>
     </g>
    </g>
    <g id="ytick_13">
     <g id="line2d_53">
      <path d="M 384.010831 133.973263 
L 577.19952 133.973263 
" clip-path="url(#p3c67e08a6c)" style="fill: none; stroke: #ffffff; stroke-width: 0.8; stroke-linecap: round"/>
     </g>
     <g id="line2d_54"/>
     <g id="text_29">
      <!-- −0.25 -->
      <g style="fill: #262626" transform="translate(355.209269 137.559982)scale(0.1 -0.1)">
       <use xlink:href="#Helvetica-2212"/>
       <use xlink:href="#Helvetica-30" x="58.398438"/>
       <use xlink:href="#Helvetica-2e" x="114.013672"/>
       <use xlink:href="#Helvetica-32" x="141.796875"/>
       <use xlink:href="#Helvetica-35" x="197.412109"/>
      </g>
     </g>
    </g>
    <g id="ytick_14">
     <g id="line2d_55">
      <path d="M 384.010831 113.245285 
L 577.19952 113.245285 
" clip-path="url(#p3c67e08a6c)" style="fill: none; stroke: #ffffff; stroke-width: 0.8; stroke-linecap: round"/>
     </g>
     <g id="line2d_56"/>
     <g id="text_30">
      <!-- 0.00 -->
      <g style="fill: #262626" transform="translate(361.049894 116.832004)scale(0.1 -0.1)">
       <use xlink:href="#Helvetica-30"/>
       <use xlink:href="#Helvetica-2e" x="55.615234"/>
       <use xlink:href="#Helvetica-30" x="83.398438"/>
       <use xlink:href="#Helvetica-30" x="139.013672"/>
      </g>
     </g>
    </g>
    <g id="ytick_15">
     <g id="line2d_57">
      <path d="M 384.010831 92.517307 
L 577.19952 92.517307 
" clip-path="url(#p3c67e08a6c)" style="fill: none; stroke: #ffffff; stroke-width: 0.8; stroke-linecap: round"/>
     </g>
     <g id="line2d_58"/>
     <g id="text_31">
      <!-- 0.25 -->
      <g style="fill: #262626" transform="translate(361.049894 96.104026)scale(0.1 -0.1)">
       <use xlink:href="#Helvetica-30"/>
       <use xlink:href="#Helvetica-2e" x="55.615234"/>
       <use xlink:href="#Helvetica-32" x="83.398438"/>
       <use xlink:href="#Helvetica-35" x="139.013672"/>
      </g>
     </g>
    </g>
    <g id="ytick_16">
     <g id="line2d_59">
      <path d="M 384.010831 71.789329 
L 577.19952 71.789329 
" clip-path="url(#p3c67e08a6c)" style="fill: none; stroke: #ffffff; stroke-width: 0.8; stroke-linecap: round"/>
     </g>
     <g id="line2d_60"/>
     <g id="text_32">
      <!-- 0.50 -->
      <g style="fill: #262626" transform="translate(361.049894 75.376048)scale(0.1 -0.1)">
       <use xlink:href="#Helvetica-30"/>
       <use xlink:href="#Helvetica-2e" x="55.615234"/>
       <use xlink:href="#Helvetica-35" x="83.398438"/>
       <use xlink:href="#Helvetica-30" x="139.013672"/>
      </g>
     </g>
    </g>
    <g id="ytick_17">
     <g id="line2d_61">
      <path d="M 384.010831 51.061351 
L 577.19952 51.061351 
" clip-path="url(#p3c67e08a6c)" style="fill: none; stroke: #ffffff; stroke-width: 0.8; stroke-linecap: round"/>
     </g>
     <g id="line2d_62"/>
     <g id="text_33">
      <!-- 0.75 -->
      <g style="fill: #262626" transform="translate(361.049894 54.64807)scale(0.1 -0.1)">
       <use xlink:href="#Helvetica-30"/>
       <use xlink:href="#Helvetica-2e" x="55.615234"/>
       <use xlink:href="#Helvetica-37" x="83.398438"/>
       <use xlink:href="#Helvetica-35" x="139.013672"/>
      </g>
     </g>
    </g>
    <g id="ytick_18">
     <g id="line2d_63">
      <path d="M 384.010831 30.333373 
L 577.19952 30.333373 
" clip-path="url(#p3c67e08a6c)" style="fill: none; stroke: #ffffff; stroke-width: 0.8; stroke-linecap: round"/>
     </g>
     <g id="line2d_64"/>
     <g id="text_34">
      <!-- 1.00 -->
      <g style="fill: #262626" transform="translate(361.049894 33.920092)scale(0.1 -0.1)">
       <use xlink:href="#Helvetica-31"/>
       <use xlink:href="#Helvetica-2e" x="55.615234"/>
       <use xlink:href="#Helvetica-30" x="83.398438"/>
       <use xlink:href="#Helvetica-30" x="139.013672"/>
      </g>
     </g>
    </g>
   </g>
   <g id="line2d_65">
    <path d="M 392.792135 113.245285 
L 394.566136 104.967906 
L 396.340137 96.773231 
L 398.114138 88.74314 
L 399.888138 80.957866 
L 401.662139 73.495197 
L 403.43614 66.429698 
L 405.210141 59.831965 
L 406.984142 53.76792 
L 408.758143 48.298153 
L 410.532143 43.477317 
L 412.306144 39.353579 
L 414.080145 35.968142 
L 415.854146 33.354834 
L 417.628147 31.539764 
L 419.402147 30.541069 
L 421.176148 30.368726 
L 422.950149 31.02446 
L 424.72415 32.501716 
L 426.498151 34.785735 
L 428.272151 37.853697 
L 430.046152 41.674946 
L 431.820153 46.211302 
L 433.594154 51.41744 
L 435.368155 57.241341 
L 437.142156 63.624815 
L 438.916156 70.504081 
L 440.690157 77.810402 
L 442.464158 85.470777 
L 444.238159 93.408666 
L 446.01216 101.544755 
L 447.78616 109.797753 
L 449.560161 118.085197 
L 451.334162 126.324282 
L 453.108163 134.432687 
L 454.882164 142.329393 
L 456.656165 149.935501 
L 458.430165 157.175013 
L 460.204166 163.975593 
L 461.978167 170.269293 
L 463.752168 175.993227 
L 465.526169 181.090205 
L 467.300169 185.509299 
L 469.07417 189.206355 
L 470.848171 192.144433 
L 472.622172 194.294176 
L 474.396173 195.634106 
L 476.170174 196.150834 
L 477.944174 195.839198 
L 479.718175 194.70231 
L 481.492176 192.75153 
L 483.266177 190.006351 
L 485.040178 186.4942 
L 486.814178 182.25017 
L 488.588179 177.316666 
L 490.36218 171.742983 
L 492.136181 165.584809 
L 493.910182 158.903676 
L 495.684182 151.76634 
L 497.458183 144.244114 
L 499.232184 136.412158 
L 501.006185 128.348727 
L 502.780186 120.134386 
L 504.554187 111.851213 
L 506.328187 103.581968 
L 508.102188 95.409276 
L 509.876189 87.414795 
L 511.65019 79.678404 
L 513.424191 72.277402 
L 515.198191 65.285738 
L 516.972192 58.77327 
L 518.746193 52.805068 
L 520.520194 47.440765 
L 522.294195 42.733959 
L 524.068196 38.731679 
L 525.842196 35.473914 
L 527.616197 32.993214 
L 529.390198 31.314367 
L 531.164199 30.454147 
L 532.9382 30.421148 
L 534.7122 31.215701 
L 536.486201 32.829866 
L 538.260202 35.247516 
L 540.034203 38.444493 
L 541.808204 42.388856 
L 543.582205 47.041192 
L 545.356205 52.355018 
L 547.130206 58.277239 
L 548.904207 64.748682 
L 550.678208 71.704688 
L 552.452209 79.075754 
L 554.226209 86.78823 
L 556.00021 94.765056 
L 557.774211 102.926531 
L 559.548212 111.191107 
L 561.322213 119.476208 
L 563.096214 127.699052 
L 564.870214 135.777478 
L 566.644215 143.630771 
L 568.418216 151.180461 
" clip-path="url(#p3c67e08a6c)" style="fill: none; stroke: #5a5b9f; stroke-width: 1.5; stroke-linecap: round"/>
   </g>
   <g id="line2d_66">
    <path d="M 392.792135 30.333373 
L 394.566136 30.747587 
L 396.340137 31.986091 
L 398.114138 34.03651 
L 399.888138 36.878357 
L 401.662139 40.483237 
L 403.43614 44.815131 
L 405.210141 49.830757 
L 406.984142 55.48 
L 408.758143 61.706414 
L 410.532143 68.447788 
L 412.306144 75.636763 
L 414.080145 83.201511 
L 415.854146 91.066446 
L 417.628147 99.152984 
L 419.402147 107.380329 
L 421.176148 115.666273 
L 422.950149 123.928029 
L 424.72415 132.083045 
L 426.498151 140.049841 
L 428.272151 147.748815 
L 430.046152 155.103041 
L 431.820153 162.039038 
L 433.594154 168.487504 
L 435.368155 174.384008 
L 437.142156 179.669634 
L 438.916156 184.29157 
L 440.690157 188.203635 
L 442.464158 191.366741 
L 444.238159 193.749283 
L 446.01216 195.327456 
L 447.78616 196.085491 
L 449.560161 196.015814 
L 451.334162 195.119121 
L 453.108163 193.404372 
L 454.882164 190.8887 
L 456.656165 187.59724 
L 458.430165 183.56288 
L 460.204166 178.825931 
L 461.978167 173.433721 
L 463.752168 167.440128 
L 465.526169 160.905038 
L 467.300169 153.893747 
L 469.07417 146.476311 
L 470.848171 138.726841 
L 472.622172 130.722768 
L 474.396173 122.544066 
L 476.170174 114.272453 
L 477.944174 105.990577 
L 479.718175 97.781188 
L 481.492176 89.726311 
L 483.266177 81.906428 
L 485.040178 74.399672 
L 486.814178 67.281049 
L 488.588179 60.621685 
L 490.36218 54.488119 
L 492.136181 48.941635 
L 493.910182 44.037652 
L 495.684182 39.825169 
L 497.458183 36.346275 
L 499.232184 33.635731 
L 501.006185 31.720619 
L 502.780186 30.620074 
L 504.554187 30.345094 
L 506.328187 30.898424 
L 508.102188 32.274538 
L 509.876189 34.459684 
L 511.65019 37.43203 
L 513.424191 41.161877 
L 515.198191 45.611957 
L 516.972192 50.737808 
L 518.746193 56.488212 
L 520.520194 62.805714 
L 522.294195 69.627192 
L 524.068196 76.884488 
L 525.842196 84.505088 
L 527.616197 92.412851 
L 529.390198 100.528765 
L 531.164199 108.771738 
L 532.9382 117.059409 
L 534.7122 125.308971 
L 536.486201 133.437997 
L 538.260202 141.365263 
L 540.034203 149.011564 
L 541.808204 156.3005 
L 543.582205 163.159243 
L 545.356205 169.519262 
L 547.130206 175.31701 
L 548.904207 180.494558 
L 550.678208 185.000173 
L 552.452209 188.788837 
L 554.226209 191.822695 
L 556.00021 194.071434 
L 557.774211 195.512584 
L 559.548212 196.131747 
L 561.322213 195.922735 
L 563.096214 194.887638 
L 564.870214 193.036798 
L 566.644215 190.388706 
L 568.418216 186.969824 
" clip-path="url(#p3c67e08a6c)" style="fill: none; stroke: #d94f70; stroke-width: 1.5; stroke-linecap: round"/>
   </g>
   <g id="patch_8">
    <path d="M 384.010831 204.441708 
L 384.010831 22.0425 
" style="fill: none"/>
   </g>
   <g id="patch_9">
    <path d="M 577.19952 204.441708 
L 577.19952 22.0425 
" style="fill: none"/>
   </g>
   <g id="patch_10">
    <path d="M 384.010831 204.441708 
L 577.19952 204.441708 
" style="fill: none"/>
   </g>
   <g id="patch_11">
    <path d="M 384.010831 22.0425 
L 577.19952 22.0425 
" style="fill: none"/>
   </g>
   <g id="text_35">
    <!-- With LegendKit -->
    <g style="fill: #262626" transform="translate(439.916738 16.0425)scale(0.12 -0.12)">
     <defs>
      <path id="Helvetica-57" d="M 791 4591 
L 1656 856 
L 2694 4591 
L 3369 4591 
L 4406 856 
L 5272 4591 
L 5953 4591 
L 4747 0 
L 4094 0 
L 3034 3806 
L 1969 0 
L 1316 0 
L 116 4591 
L 791 4591 
z
" transform="scale(0.015625)"/>
      <path id="Helvetica-68" d="M 413 4606 
L 975 4606 
L 975 2894 
Q 1175 3147 1334 3250 
Q 1606 3428 2013 3428 
Q 2741 3428 3000 2919 
Q 3141 2641 3141 2147 
L 3141 0 
L 2563 0 
L 2563 2109 
Q 2563 2478 2469 2650 
Q 2316 2925 1894 2925 
Q 1544 2925 1259 2684 
Q 975 2444 975 1775 
L 975 0 
L 413 0 
L 413 4606 
z
" transform="scale(0.015625)"/>
      <path id="Helvetica-4c" d="M 488 4591 
L 1109 4591 
L 1109 547 
L 3434 547 
L 3434 0 
L 488 0 
L 488 4591 
z
" transform="scale(0.015625)"/>
      <path id="Helvetica-4b" d="M 488 4591 
L 1094 4591 
L 1094 2353 
L 3331 4591 
L 4191 4591 
L 2281 2741 
L 4244 0 
L 3434 0 
L 1828 2303 
L 1094 1600 
L 1094 0 
L 488 0 
L 488 4591 
z
" transform="scale(0.015625)"/>
     </defs>
     <use xlink:href="#Helvetica-57"/>
     <use xlink:href="#Helvetica-69" x="94.384766"/>
     <use xlink:href="#Helvetica-74" x="116.601562"/>
     <use xlink:href="#Helvetica-68" x="144.384766"/>
     <use xlink:href="#Helvetica-20" x="200"/>
     <use xlink:href="#Helvetica-4c" x="227.783203"/>
     <use xlink:href="#Helvetica-65" x="283.398438"/>
     <use xlink:href="#Helvetica-67" x="339.013672"/>
     <use xlink:href="#Helvetica-65" x="394.628906"/>
     <use xlink:href="#Helvetica-6e" x="450.244141"/>
     <use xlink:href="#Helvetica-64" x="505.859375"/>
     <use xlink:href="#Helvetica-4b" x="561.474609"/>
     <use xlink:href="#Helvetica-69" x="628.173828"/>
     <use xlink:href="#Helvetica-74" x="650.390625"/>
    </g>
   </g>
   <g id="legend_2">
    <g id="text_36">
     <!-- Trigonometry Functions -->
     <g style="fill: #262626" transform="translate(588.131407 38.215938)scale(0.1 -0.1)">
      <use xlink:href="#Helvetica-54"/>
      <use xlink:href="#Helvetica-72" x="61.083984"/>
      <use xlink:href="#Helvetica-69" x="94.384766"/>
      <use xlink:href="#Helvetica-67" x="116.601562"/>
      <use xlink:href="#Helvetica-6f" x="172.216797"/>
      <use xlink:href="#Helvetica-6e" x="227.832031"/>
      <use xlink:href="#Helvetica-6f" x="283.447266"/>
      <use xlink:href="#Helvetica-6d" x="339.0625"/>
      <use xlink:href="#Helvetica-65" x="422.363281"/>
      <use xlink:href="#Helvetica-74" x="477.978516"/>
      <use xlink:href="#Helvetica-72" x="505.761719"/>
      <use xlink:href="#Helvetica-79" x="539.0625"/>
      <use xlink:href="#Helvetica-20" x="589.0625"/>
      <use xlink:href="#Helvetica-46" x="616.845703"/>
      <use xlink:href="#Helvetica-75" x="677.929688"/>
      <use xlink:href="#Helvetica-6e" x="733.544922"/>
      <use xlink:href="#Helvetica-63" x="789.160156"/>
      <use xlink:href="#Helvetica-74" x="839.160156"/>
      <use xlink:href="#Helvetica-69" x="866.943359"/>
      <use xlink:href="#Helvetica-6f" x="889.160156"/>
      <use xlink:href="#Helvetica-6e" x="944.775391"/>
      <use xlink:href="#Helvetica-73" x="1000.390625"/>
     </g>
    </g>
    <g id="line2d_67">
     <path d="M 588.131407 49.101875 
L 598.131407 49.101875 
L 608.131407 49.101875 
" style="fill: none; stroke: #5a5b9f; stroke-width: 1.5; stroke-linecap: round"/>
    </g>
    <g id="text_37">
     <!-- sin -->
     <g style="fill: #262626" transform="translate(616.131407 52.601875)scale(0.1 -0.1)">
      <use xlink:href="#Helvetica-73"/>
      <use xlink:href="#Helvetica-69" x="50"/>
      <use xlink:href="#Helvetica-6e" x="72.216797"/>
     </g>
    </g>
    <g id="line2d_68">
     <path d="M 588.131407 63.359688 
L 598.131407 63.359688 
L 608.131407 63.359688 
" style="fill: none; stroke: #d94f70; stroke-width: 1.5; stroke-linecap: round"/>
    </g>
    <g id="text_38">
     <!-- cos -->
     <g style="fill: #262626" transform="translate(616.131407 66.859688)scale(0.1 -0.1)">
      <use xlink:href="#Helvetica-63"/>
      <use xlink:href="#Helvetica-6f" x="50"/>
      <use xlink:href="#Helvetica-73" x="105.615234"/>
     </g>
    </g>
   </g>
  </g>
 </g>
 <defs>
  <clipPath id="p29aa1c1e7d">
   <rect x="36.001563" y="22.0425" width="193.188689" height="182.399207"/>
  </clipPath>
  <clipPath id="p3c67e08a6c">
   <rect x="384.010831" y="22.0425" width="193.188689" height="182.399207"/>
  </clipPath>
 </defs>
</svg>
