<svg version="1.1" xmlns="http://www.w3.org/2000/svg" viewBox="0 0 611.2283938256091 307.8048217839912" width="1833.6851814768274" height="923.4144653519736">
  <!-- svg-source:excalidraw -->
  
  <defs>
    <style>
      @font-face {
        font-family: "Virgil";
        src: url("https://excalidraw.com/Virgil.woff2");
      }
      @font-face {
        font-family: "Cascadia";
        src: url("https://excalidraw.com/Cascadia.woff2");
      }
    </style>
  </defs>
  <rect x="0" y="0" width="611.2283938256091" height="307.8048217839912" fill="#ffffff"></rect><g stroke-linecap="round" transform="translate(188.26021995550536 147.15952393696602) rotate(0 195.9757772351977 38.018585205078125)"><path d="M0.55 -0.6 C137.06 1.68, 275.61 1.88, 392.65 0.49 M391.32 0.23 C391.37 25.17, 391.14 48.75, 393.64 74.66 M391.32 74.97 C274.23 78.18, 156.98 78.95, -0.45 76.17 M-1.16 76.62 C-2.25 56.65, -1.44 39.44, -0.31 -0.67" stroke="#000000" stroke-width="1.5" fill="none" stroke-dasharray="8 9"></path></g><g transform="translate(421.4303962239933 155.42772389191077) rotate(0 73.66685302734379 29.704376220703125)"><text x="0" y="41.40875244140623" font-family="Virgil, Segoe UI Emoji" font-size="47.527001953124994px" fill="#000000" text-anchor="start" style="white-space: pre;" direction="ltr">Item 1</text></g><g stroke-linecap="round" transform="translate(199.7078921027255 166.36555303300247) rotate(0 59.48828125 18.766547079611428)"><path d="M0 0 C0 0, 0 0, 0 0 M0 0 C0 0, 0 0, 0 0 M0.51 7.1 C1.97 5.02, 2.55 3.14, 5.49 -0.25 M-0.6 6.51 C0.95 4.45, 2.46 3.11, 4.91 0.28 M0.12 12.81 C3.04 8.05, 8.12 4.36, 10.38 -1.5 M-0.24 11.5 C4.68 7.94, 7.6 2.64, 11.18 0.4 M0.64 17.67 C1.73 12.95, 7.98 8.89, 17.04 0.57 M0 18.64 C3.08 13.94, 7.96 9.79, 16.05 -0.18 M-1.38 25.57 C4.37 16.86, 10.76 10.27, 23.18 -1.27 M1.09 23.22 C8.59 13.87, 16.71 5.43, 22.11 -0.87 M-1.94 31.96 C8.98 20.23, 18.78 9.11, 24.72 0.45 M0.73 31.07 C7.6 22.07, 15.52 14.06, 26.89 0.04 M-2.23 35.06 C7.25 28.29, 16.34 17.27, 31.76 -0.88 M0.12 36.97 C12.2 21.38, 25.53 7.14, 31.5 -0.51 M1.65 39.65 C12.49 26, 23.71 11.96, 36.86 0.11 M2.68 38.51 C13.05 27.34, 24.11 14, 37.74 0.64 M9.11 41.76 C19.2 23.32, 33.98 11.15, 41.94 -0.89 M7.02 39.25 C22.11 25.19, 34.4 8.21, 41.52 -0.43 M13.27 39.76 C21.25 29.71, 31.09 19.01, 46.64 0.57 M13.76 40.25 C20.79 30.16, 30.27 20.94, 47.78 0.23 M18.63 38.75 C33.44 23.58, 44.37 7.9, 51.18 -0.02 M17.67 38.85 C26.84 30.11, 34.69 22.24, 53.95 -0.88 M25.25 39.88 C33.57 30.96, 39.19 22.9, 56.77 -1.68 M24.51 38.49 C34.77 27.2, 45.5 13.51, 58.89 0.2 M29.19 38.79 C34.39 32.44, 44.03 24.86, 64.46 0.41 M29.95 39.56 C37.19 29.16, 46.46 20.27, 64.29 -0.34 M33.34 39.94 C42.03 31.62, 50.25 20.96, 67.53 1.28 M35.03 40.14 C44.17 28.95, 52.09 20.11, 69.65 0.74 M39.82 39.03 C51.08 29.39, 59.22 15.48, 74.36 0.55 M39.07 38.91 C49.62 29.65, 59.27 16.73, 73.72 0.52 M44.19 42.09 C52.43 28.64, 65.5 16.4, 80.79 0.8 M44.5 40.64 C53.48 31.01, 60.49 22.36, 79.4 0.79 M51.12 40.09 C59.4 29.65, 68.29 20.04, 85.01 -2.04 M51 39.25 C57.11 30.87, 64.9 21.85, 85.2 -1.21 M54.01 39.64 C67 25.96, 82.58 11.15, 91.95 -0.33 M55.79 40.95 C65.15 29.68, 74.18 18.81, 90.17 0.09 M61.26 38.01 C71.58 30.03, 79.79 19.55, 96.1 -0.34 M60.38 39.69 C68.19 28.9, 77.35 20.58, 95.35 -0.65 M64.58 41.61 C73.05 31.29, 79.3 21.5, 101.97 0.13 M65.51 40.07 C78.6 24.46, 94.23 8.52, 100.7 -0.83 M69.95 40.27 C81.95 31.07, 90.45 17.86, 106.89 -1.9 M70.6 40.11 C78.79 32.56, 85.85 24.47, 106.55 -1.14 M77.91 41.69 C90.02 25.63, 101.71 8.35, 109.41 -0.17 M76.66 40.05 C87.66 25.7, 101.27 11.55, 110.49 -0.68 M82.49 37.77 C88.2 31.07, 97.24 23.89, 115.54 -0.09 M81.75 39.19 C90.6 29.51, 97.87 21.95, 116.22 0.52 M87.56 39.02 C94.96 29.89, 107.91 16.05, 121.05 1.4 M87.93 40.7 C96.16 28.19, 105.72 18.62, 120.4 2.12 M93.71 40.89 C97.47 31.73, 105.58 26.18, 119.17 6.46 M92.66 40.4 C103.09 29.03, 111.54 17.15, 120.91 8.57 M98.65 38.18 C105.07 34.19, 110.65 23.34, 122.66 14.43 M97.76 39.61 C106.08 31.39, 112.17 23.54, 121.48 13.51 M104.04 39.4 C107.92 34.64, 116.37 24.95, 121.7 20.25 M102.86 39.95 C107.29 34.28, 111.34 30.23, 120.12 20.76 M107.92 41.11 C112.64 36.1, 116.05 31.39, 122.58 24.39 M108.3 40.15 C113.52 35.18, 117.24 29.22, 120.56 26.5 M114.75 39.03 C115.5 38.09, 116.53 37.33, 120.59 31.45 M114.33 39.2 C115.6 37.66, 117.91 35.05, 120.82 32.16" stroke="#fa5252" stroke-width="0.5" fill="none"></path><path d="M0.64 -0.59 C37.07 0.05, 78.47 -1.43, 120.97 -1.69 M-0.63 0.41 C24.02 0.18, 49.73 0.91, 119.92 0.05 M120.19 1.81 C119.09 15.78, 120.84 29.11, 119.9 37.76 M119.83 0.43 C118.39 12.3, 118.35 23.8, 118.09 38.17 M120.55 35.72 C77.56 36.68, 32.41 37.15, 0.7 37.69 M118.05 37.75 C74.24 36.13, 29.79 37.46, 0.48 37.03 M0.06 36.41 C-0.95 27.05, -1.79 14.76, -0.09 0.73 M0.57 36.55 C0.21 29.61, -0.63 20.98, -0.96 -0.4" stroke="#000000" stroke-width="1" fill="none"></path></g><g transform="translate(203.8706375834231 272.8048217839912) rotate(0 59 12.5)"><text x="0" y="18" font-family="Virgil, Segoe UI Emoji" font-size="20px" fill="#c92a2a" text-anchor="start" style="white-space: pre;" direction="ltr">handlelength</text></g><g transform="translate(10 173.37291593804161) rotate(0 59 12.5)"><text x="0" y="18" font-family="Virgil, Segoe UI Emoji" font-size="20px" fill="#c92a2a" text-anchor="start" style="white-space: pre;" direction="ltr">handleheight</text></g><g transform="translate(306.2609287420919 117.50000437005963) rotate(0 70.5 12.5)"><text x="0" y="18" font-family="Virgil, Segoe UI Emoji" font-size="20px" fill="#364fc7" text-anchor="start" style="white-space: pre;" direction="ltr">handletextpad</text></g><g stroke-linecap="round"><g transform="translate(259.277023333887 186.10336448649286) rotate(270 -0.5448849975736607 57.845979699533075)"><path d="M-0.18 0.31 C0.05 19.53, 0.65 95.79, 0.64 114.96 M-1.73 -0.57 C-1.55 18.84, -0.07 96.72, 0.02 116.26" stroke="#c92a2a" stroke-width="1" fill="none"></path></g><g transform="translate(259.277023333887 186.10336448649286) rotate(270 -0.5448849975736607 57.845979699533075)"><path d="M15.22 0.99 C10.62 -0.14, 7.49 -0.8, -1.66 1.46 M14.62 0.26 C9 -0.19, 3.15 0.39, -0.04 -0.12" stroke="#c92a2a" stroke-width="1" fill="none"></path></g><g transform="translate(259.277023333887 186.10336448649286) rotate(270 -0.5448849975736607 57.845979699533075)"><path d="M-14.78 1.23 C-12.12 0.08, -8 -0.63, -1.66 1.46 M-15.37 0.5 C-9.79 0.03, -4.45 0.52, -0.04 -0.12" stroke="#c92a2a" stroke-width="1" fill="none"></path></g><g transform="translate(259.277023333887 186.10336448649286) rotate(270 -0.5448849975736607 57.845979699533075)"><path d="M-14.58 117.25 C-11.92 116.08, -7.8 115.35, -1.46 117.4 M-15.17 116.51 C-9.59 116.02, -4.25 116.48, 0.16 115.82" stroke="#c92a2a" stroke-width="1" fill="none"></path></g><g transform="translate(259.277023333887 186.10336448649286) rotate(270 -0.5448849975736607 57.845979699533075)"><path d="M15.41 116.87 C10.82 115.75, 7.69 115.11, -1.46 117.4 M14.82 116.13 C9.2 115.72, 3.35 116.32, 0.16 115.82" stroke="#c92a2a" stroke-width="1" fill="none"></path></g></g><g stroke-linecap="round"><g transform="translate(159.61907602521796 167.6374647703541) rotate(0.139646161722062 0.33906204516176786 18.170906532186734)"><path d="M-1.04 0.51 C-1.26 6.36, -0.71 29.55, -0.63 35.53 M0.61 -0.27 C0.72 5.68, 2.09 30.28, 1.71 36.61" stroke="#c92a2a" stroke-width="1" fill="none"></path></g><g transform="translate(159.61907602521796 167.6374647703541) rotate(0.139646161722062 0.33906204516176786 18.170906532186734)"><path d="M14.6 -0.53 C7.5 -0.52, 3.23 -0.62, -2.21 0.08 M14.15 0.06 C9.79 0.39, 6.59 0.16, -0.86 -0.07" stroke="#c92a2a" stroke-width="1" fill="none"></path></g><g transform="translate(159.61907602521796 167.6374647703541) rotate(0.139646161722062 0.33906204516176786 18.170906532186734)"><path d="M-15.4 -0.24 C-11.79 -0.08, -5.34 -0.27, -2.21 0.08 M-15.85 0.35 C-12.71 0.69, -8.4 0.38, -0.86 -0.07" stroke="#c92a2a" stroke-width="1" fill="none"></path></g><g transform="translate(159.61907602521796 167.6374647703541) rotate(0.139646161722062 0.33906204516176786 18.170906532186734)"><path d="M-12.65 35.79 C-9.04 35.98, -2.59 35.8, 0.54 36.17 M-13.1 36.38 C-9.96 36.73, -5.65 36.44, 1.89 36.03" stroke="#c92a2a" stroke-width="1" fill="none"></path></g><g transform="translate(159.61907602521796 167.6374647703541) rotate(0.139646161722062 0.33906204516176786 18.170906532186734)"><path d="M17.35 35.63 C10.25 35.62, 5.98 35.5, 0.54 36.17 M16.9 36.22 C12.54 36.54, 9.34 36.29, 1.89 36.03" stroke="#c92a2a" stroke-width="1" fill="none"></path></g></g><g stroke-linecap="round"><g transform="translate(179.63381457009928 64.13239793714149) rotate(0 35.799631261609534 59.18610648288421)"><path d="M0.5 -1.22 C25.56 43.36, 48.92 82.61, 71.1 119.59 M0.98 0.87 C16.3 28.14, 32.59 56.6, 69.95 118.38" stroke="#495057" stroke-width="4" fill="none"></path></g><g transform="translate(179.63381457009928 64.13239793714149) rotate(0 35.799631261609534 59.18610648288421)"><path d="M68.94 119.56 L56.37 111.76 L69.42 102.16 L68.82 117.96" stroke="none" stroke-width="0" fill="#495057" fill-rule="evenodd"></path><path d="M70.33 117.47 C66.57 116.61, 60.99 111.36, 58.39 110.63 M70.69 119.04 C67.6 116.22, 64.6 114.7, 57.53 109.72 M56.35 109.04 C61.24 108.93, 63.17 106.65, 67.23 104.22 M57.13 110.6 C59.98 108.86, 63.77 106.88, 68.17 103.79 M68.85 102.03 C68.2 108.73, 69.16 113.44, 69.02 118.57 M67.89 103.34 C69.46 108.7, 70.07 114.62, 70.5 118.73 M69.95 118.38 C69.95 118.38, 69.95 118.38, 69.95 118.38 M69.95 118.38 C69.95 118.38, 69.95 118.38, 69.95 118.38" stroke="#495057" stroke-width="4" fill="none"></path></g></g><g stroke-linecap="round"><g transform="translate(371.37133039226387 142.27934828768718) rotate(270 -0.13003868207295 42.053324589879935)"><path d="M0.11 0.68 C0.25 14.45, 0.97 69.28, 1.03 82.96 M-1.29 -0.01 C-1.23 13.88, 0.42 70.18, 0.63 84.12" stroke="#1864ab" stroke-width="1" fill="none"></path></g><g transform="translate(371.37133039226387 142.27934828768718) rotate(270 -0.13003868207295 42.053324589879935)"><path d="M15.96 1.8 C9.49 1.18, 4.52 -0.51, -0.79 -0.68 M15.01 -0.14 C9.21 0.97, 3.99 1.32, 0.12 0.66" stroke="#1864ab" stroke-width="1" fill="none"></path></g><g transform="translate(371.37133039226387 142.27934828768718) rotate(270 -0.13003868207295 42.053324589879935)"><path d="M-14.04 2.15 C-11.06 1.39, -6.58 -0.4, -0.79 -0.68 M-14.98 0.22 C-10.29 0.93, -5 1.16, 0.12 0.66" stroke="#1864ab" stroke-width="1" fill="none"></path></g><g transform="translate(371.37133039226387 142.27934828768718) rotate(270 -0.13003868207295 42.053324589879935)"><path d="M-13.52 85.76 C-10.54 84.94, -6.06 83.1, -0.27 82.76 M-14.46 83.82 C-9.76 84.48, -4.48 84.64, 0.64 84.1" stroke="#1864ab" stroke-width="1" fill="none"></path></g><g transform="translate(371.37133039226387 142.27934828768718) rotate(270 -0.13003868207295 42.053324589879935)"><path d="M16.47 85.07 C10.01 84.5, 5.04 82.87, -0.27 82.76 M15.53 83.13 C9.72 84.3, 4.51 84.71, 0.64 84.1" stroke="#1864ab" stroke-width="1" fill="none"></path></g></g><g transform="translate(118.06343161360724 10) rotate(0 54.5 23)"><text x="0" y="32" font-family="Virgil, Segoe UI Emoji" font-size="36px" fill="#495057" text-anchor="start" style="white-space: pre;" direction="ltr">handle</text></g><g stroke-linecap="round"><g transform="translate(539.6255009385995 65.60370205357958) rotate(0 -19.860117164970802 50.21238805002821)"><path d="M1.1 -0.27 C-10.64 21.11, -17.95 47.11, -40.82 99.55 M0.6 -0.41 C-7.69 20.37, -16.68 41.86, -39.37 100.84" stroke="#495057" stroke-width="4" fill="none"></path></g><g transform="translate(539.6255009385995 65.60370205357958) rotate(0 -19.860117164970802 50.21238805002821)"><path d="M-39.79 101.77 L-40.56 85.49 L-28.42 92.17 L-37.68 99.06" stroke="none" stroke-width="0" fill="#495057" fill-rule="evenodd"></path><path d="M-38.55 100.63 C-40.81 96.05, -39.91 95.01, -41.84 84.85 M-38.92 100.53 C-39.67 97.21, -40.51 94.33, -40.76 85.82 M-41.43 86.32 C-37.26 87.71, -33 87.41, -28.18 91.66 M-40.34 86.2 C-37.57 86.51, -34.68 87.44, -27.94 91.03 M-28.44 90.39 C-30.31 91.15, -34.04 93.76, -39.91 102.31 M-28.63 90.55 C-31.37 93.06, -35 97.04, -38.78 100.24 M-39.37 100.84 C-39.37 100.84, -39.37 100.84, -39.37 100.84 M-39.37 100.84 C-39.37 100.84, -39.37 100.84, -39.37 100.84" stroke="#495057" stroke-width="4" fill="none"></path></g></g><g transform="translate(519.2283938256091 11.471304116438205) rotate(0 41 23)"><text x="0" y="32" font-family="Virgil, Segoe UI Emoji" font-size="36px" fill="#495057" text-anchor="start" style="white-space: pre;" direction="ltr">label</text></g></svg>