<svg version="1.1" xmlns="http://www.w3.org/2000/svg" viewBox="0 0 1233.4394237520123 642.6806899459389" width="3700.318271256037" height="1928.0420698378166">
  <!-- svg-source:excalidraw -->
  
  <defs>
    <style>
      @font-face {
        font-family: "Virgil";
        src: url("https://excalidraw.com/Virgil.woff2");
      }
      @font-face {
        font-family: "Cascadia";
        src: url("https://excalidraw.com/Cascadia.woff2");
      }
    </style>
  </defs>
  <rect x="0" y="0" width="1233.4394237520123" height="642.6806899459389" fill="#ffffff"></rect><g stroke-linecap="round" transform="translate(246.12535864185168 35.27217076373648) rotate(0 488.6570325550804 240.54310029356077)"><path d="M-0.28 0.56 C292.96 3.05, 584.12 3.58, 977.41 0.2 M0.21 -0.23 C296.41 -0.04, 592.61 -0.08, 977.33 0.38 M976.98 0.11 C977.27 184.62, 977.36 368.85, 977.53 481.23 M976.92 0.05 C978.89 133.35, 978.81 266.22, 977.67 481.04 M977.68 481.33 C610.8 480.24, 244.46 479.52, -0.43 481.17 M977.15 481.47 C673.66 478.04, 369.09 478.46, 0.31 480.9 M0.24 481.27 C1.38 339.62, 1.69 197.82, -0.73 -0.03 M-0.09 480.99 C2.21 357.9, 2.1 234.15, 0.11 -0.28" stroke="#1864ab" stroke-width="1" fill="none"></path></g><g stroke-linecap="round" transform="translate(567.4855853395583 127.81446611435058) rotate(0 156.2060546875 38.018585205078125)"><path d="M0 0 C0 0, 0 0, 0 0 M0 0 C0 0, 0 0, 0 0 M-0.42 6.81 C1.06 4.6, 1.83 4.06, 5.36 0.19 M-0.06 6.45 C0.96 4.56, 2.39 3.23, 5.36 0.15 M1.4 11.56 C2.55 10.43, 3.71 5.82, 10.28 -0.22 M0.58 12.43 C2.46 9.6, 5.27 6.39, 10.53 -0.33 M0.55 17.57 C6.36 11.43, 9.65 9.34, 14.29 0.33 M0.4 18.33 C5.08 11.91, 11.55 3.43, 15.48 -0.21 M0.85 23.26 C7.98 16.04, 13.08 9.08, 21.39 -0.57 M0.26 23.65 C5.77 18.03, 8.96 12.57, 21.54 -0.38 M-1.15 32.1 C11.94 17.39, 21.39 5.01, 25.29 -0.53 M0.3 29.5 C8.14 21.2, 16 10.89, 25.84 1.24 M-1.04 38.11 C7.66 27.56, 16.91 18.4, 31.97 -0.76 M-0.95 37.14 C7.92 25.71, 17.58 15.65, 31.99 -0.01 M0.16 41.69 C11.29 28.71, 24.97 10.87, 38.76 1.52 M0.41 42.46 C14.55 28.28, 27.14 12.85, 37.69 0.57 M-1.56 49.44 C13.86 32.77, 29.45 11.98, 43.98 0.66 M0.46 48.5 C13.81 34.55, 26.62 18.07, 42.72 -0.79 M-0.22 54.56 C11.55 40.39, 25.47 26.58, 46.01 -1.76 M0.93 54.32 C16.11 37.08, 29.45 20.15, 46.53 -0.11 M-0.8 60.49 C18.45 40.67, 35.6 17.91, 52.95 -1.29 M0.7 61.23 C19.4 37.76, 38.38 17.11, 52.33 0.5 M-2.17 69.25 C13.4 51.77, 27.38 33.08, 57.74 0.96 M-0.77 67.7 C15.88 49.23, 31.06 31.87, 58.62 1.04 M1.21 73.34 C18.07 53.02, 33.9 34.5, 63.81 -2.01 M-0.6 73.8 C19.07 51.46, 36.38 31.95, 63.25 -0.2 M3.78 77.35 C27.18 49.22, 51.89 19.76, 68.15 0.54 M2.35 77.39 C25.68 49.05, 48.49 23.14, 69.01 -0.43 M6.45 78.08 C31.13 46.95, 60.3 17.77, 74.96 0.67 M7.56 76.82 C24.48 57.07, 43.06 34.64, 73.67 -0.22 M11.17 76.96 C37.42 50.03, 59.42 25.65, 78.82 -0.56 M11.78 77.88 C38.82 47.85, 63.32 19.72, 79.53 0.75 M19.15 78.91 C39.89 55.41, 59.18 32.58, 86.22 -1.53 M17.75 77.22 C37.81 54.31, 57.69 30.55, 85.55 -0.18 M24.55 76.38 C46.96 50.67, 66.32 25.99, 90.79 -0.35 M22.33 77 C37.68 60.1, 52.95 42.6, 90.8 -0.43 M29.66 77.11 C41.92 61.86, 58.59 40.17, 94.85 0.67 M28.03 77.14 C48.71 53.69, 69.3 29.95, 96.64 0.01 M33.78 76.39 C48.17 60.09, 60.88 45.59, 100.56 -1.26 M32.47 78.21 C50.21 57.16, 66.83 36.82, 100.2 0.74 M39.71 77 C62.63 51.85, 85.86 20.84, 107.55 -1.87 M39.16 77.9 C53.72 59.6, 67.8 43.42, 106.49 -0.83 M44.11 77.08 C65.17 52.26, 88.82 23.9, 112.04 1.85 M44.42 77.46 C65.21 53.27, 86.37 30.49, 111.92 0.69 M50.47 78.47 C66.12 57.83, 82.81 40.3, 115.8 0.01 M48.7 76.57 C71.13 52.02, 90.76 27.51, 115.74 -0.4 M56.27 78.37 C78.07 54.54, 97.68 27.13, 120.57 1.67 M54.21 77.65 C71.74 56.85, 89.49 36.92, 122.89 -0.44 M58.55 76.95 C74.42 58.92, 88.31 43.88, 126.48 -1.23 M60.96 77.92 C78.49 55.87, 96.23 34.77, 126.82 0.04 M65.09 76.99 C83.4 54.9, 101.53 35.18, 132.96 -1.55 M64.32 77.68 C85.68 53.16, 108.15 28.29, 132.88 -0.79 M71.98 75.46 C94.85 46.61, 120.83 17.27, 137.95 -1.29 M71.07 76.43 C91.67 53.39, 111.46 28.48, 137.93 0.21 M74.82 79.21 C101.71 49.72, 125.73 20.27, 143.43 0.01 M75 77.13 C94.71 55.56, 114.93 31.4, 142.38 -0.76 M82.25 76.55 C97.28 55.68, 118.05 35.03, 146.65 0.92 M80.92 76.31 C97.97 59.21, 113.64 40.08, 147.74 -0.18 M87.17 76.89 C103.74 58.23, 120.58 36.09, 153.65 1.72 M86.28 78.33 C107.28 52.16, 130.54 27.66, 154.7 -1.06 M92.28 78.36 C112.39 50.67, 137.9 24.2, 158.47 0.06 M91.18 77.49 C107.52 56.87, 124.69 38.3, 158.69 -0.72 M97.27 79.44 C117.47 53.38, 137.42 31.27, 164.73 -1.46 M95.98 78.31 C122.67 46.97, 148.88 17.34, 163.92 -0.66 M104.41 78.57 C118.29 59.09, 132.74 44.06, 168.74 0.37 M103.31 77.62 C121.15 55.73, 138.93 36.26, 169 -0.3 M105.69 77.83 C127.51 55.05, 146.99 31.98, 173.2 0.96 M107.69 76.83 C130.34 51.84, 152.37 25.49, 174.91 -0.84 M112.44 78.46 C136.51 48.25, 160.41 23.8, 178.22 -0.39 M113.54 78.06 C130.2 58.22, 144.34 41.32, 180.67 0.95 M118.45 76.59 C140.02 50.55, 162.33 24.18, 187.04 -0.94 M118.79 78.37 C140.33 54.06, 161.37 28.5, 185.3 -1.12 M125.6 78.82 C145.52 48.46, 170.73 20.85, 189.1 1.15 M122.9 77.89 C137.49 61.12, 152.86 42.93, 191.48 -0.41 M126.99 77.84 C156.58 45.66, 181.7 15.79, 197.68 -1.54 M128.44 78.1 C150.61 52.11, 172.51 26.9, 195.53 0.67 M132.56 76.05 C157.85 49.21, 184.21 17.35, 201.02 1.9 M135.17 77.92 C154.95 52.24, 176.66 28.79, 201.01 0.91 M140.2 77.22 C160.66 54.07, 178.98 30.11, 207.96 0.35 M139.58 77.96 C156.22 57.7, 171.87 39.38, 206.78 0.43 M144.76 78.83 C158.79 58.09, 176.09 39.81, 211.05 0.32 M144.3 77.42 C167.71 52.42, 189.07 25.87, 212.59 0.91 M148.4 75.96 C165.25 59.5, 182.42 40.84, 216.18 1.5 M150.94 76.56 C163.87 61.29, 178.52 45.28, 217.06 -0.24 M155.06 77.17 C170.08 60.19, 186.26 42.28, 221.71 0.46 M154.94 77.13 C176.06 55.34, 194.4 32.58, 223.35 0.32 M159.36 76.85 C182.08 52.7, 206.23 24.65, 228.07 -1.79 M161 77.26 C177.11 59.22, 194.75 38.77, 229.14 0.01 M165.78 78.89 C183.74 54.41, 203.18 34.51, 232.94 -0.09 M166.59 77.75 C191.68 47.68, 215.64 19.18, 232.21 0.58 M170.26 76.24 C194.82 52.91, 215.11 25.5, 240.14 -0.87 M172.06 78.13 C187.09 57.18, 204.58 38.53, 237.89 0.98 M175.34 78.61 C195.6 55.32, 219.38 29.91, 242.12 1.83 M176.18 76.96 C198.17 51.16, 221.55 25.5, 243.85 -0.15 M183.75 76.03 C206.44 49.18, 227.98 21.29, 250.31 2.18 M182.19 77.94 C206.29 47.89, 233.23 17.64, 248.97 -0.07 M185.59 78.53 C211.95 51.32, 235.9 19.88, 256.09 -1.05 M187.4 78.16 C206.19 54.85, 226.09 32.78, 254.74 -0.99 M191.9 75.71 C212.98 55.91, 228.57 34.89, 257.96 -0.87 M193.22 78.21 C210.05 57.18, 227.81 36.54, 258.84 0.11 M197.83 76.4 C220.97 50.41, 242.65 26.65, 263.1 1.55 M196.74 78.46 C218.91 51.5, 240.85 25.18, 265.14 -0.34 M204.23 76.3 C228.24 47.49, 252.57 18.09, 270.56 0.54 M202.79 77.17 C219.58 58.88, 233.52 42.79, 269.37 -0.27 M208.79 77.55 C223.75 62.5, 236.54 46.55, 276.85 1.49 M207.48 76.71 C231.15 51.27, 254.6 24.94, 275.08 0.13 M215.67 76.4 C233.93 56.24, 253.3 34.19, 279.05 0.54 M214.3 77.74 C229.25 59.99, 245.71 41.36, 281.26 0.7 M218.62 78.85 C231.88 62.03, 246.93 44.54, 284.47 0.16 M219.65 77.44 C242.18 49.77, 265.24 23.42, 286.38 -0.57 M222.61 76.19 C241.75 57.98, 257.42 35.8, 289.77 0.82 M224.94 77.6 C245.99 51.24, 270.11 24.4, 291.96 0.69 M230.95 76.74 C253.23 50.98, 274.57 24.41, 298.55 0.56 M230.1 76.93 C255.31 48.42, 279.76 21.01, 296.63 -0.66 M234.89 77.37 C251.06 58.39, 267.71 40.13, 300.51 -1.35 M235.69 77.13 C251.97 57.16, 270.75 36.16, 301.69 1.04 M240.8 79.22 C264.72 48.39, 288.17 22.25, 309.08 -0.79 M240.44 77.17 C265.94 49.09, 292.34 17.66, 307.2 0.33 M243.75 75.24 C265.45 52.78, 286.43 30.05, 312.51 -1.17 M245.3 77.42 C273.02 46.48, 299.25 16.33, 313.49 0.86 M250.66 77.88 C262.88 63.23, 276.9 45.66, 313.62 5 M251.05 77.87 C271.02 53.66, 291.83 28.92, 311.36 6.37 M257.9 78.65 C271.2 57.22, 289.27 40.09, 311.93 13.83 M256.3 76.29 C269.24 63.26, 280.17 48.99, 312.65 13.01 M262.44 75.83 C272.09 66.29, 282.78 50.99, 314.36 20.09 M261.11 76.46 C280.61 55.61, 300.52 31.51, 313.35 17.88 M266.81 78.76 C278.74 63.82, 286.86 52.15, 313.38 23.5 M266.35 77.04 C277.87 65.42, 289.86 52.02, 312.24 23.93 M273.51 75.76 C284.58 63.66, 292.49 53.47, 314.21 32.41 M272.58 78.08 C279.5 67.35, 289.19 58.56, 312.49 30.19 M275.38 78.03 C289.33 60.1, 305.78 45.3, 311.74 36.11 M276.86 77.41 C288.38 64.84, 300.11 51.85, 312.99 36.64 M280.64 75.94 C288.75 67.88, 296.74 58.61, 312.94 40.76 M282.19 77.59 C290.58 67.81, 299.9 57.38, 313.28 42.67 M287.96 78.76 C293.03 70.67, 303.27 62.12, 311.3 49.22 M287.05 78.12 C294.02 70.59, 302.27 60.7, 312.33 49.56 M292.08 78.18 C298.68 70.76, 302.5 67.35, 311.75 53.47 M293.46 77.58 C297.01 71.53, 301.9 67.38, 312 55.37 M298.99 76.04 C305.26 72.78, 307.18 67.85, 313.83 62.21 M298.57 77.88 C303.32 73.13, 308.2 67.75, 312.55 61.14 M303.6 76.36 C306.7 75.66, 307.16 73.28, 312.52 68.61 M304.39 76.68 C305.68 74.78, 308.87 71.75, 312.17 67.71 M308.67 77.91 C309.69 76.21, 311 74.49, 312.87 73.16 M308.83 77.78 C309.96 76.64, 310.72 75.55, 312.92 73.01" stroke="#ced4da" stroke-width="0.5" fill="none"></path><path d="M-0.56 0.54 C97.32 0.03, 195.42 -1.91, 311.99 -0.98 M314.27 -0.66 C311.9 22.33, 312.86 46.58, 314.12 76.22 M311.85 74.79 C201.79 74, 91.53 75.05, 0.98 76.91 M-0.79 76.13 C0.34 55.55, -2.7 32.07, 1.7 0.56" stroke="#000000" stroke-width="1.5" fill="none" stroke-dasharray="8 9"></path></g><g transform="translate(649.4091693239333 127.93383157293636) rotate(0 74.282470703125 37.89921974649235)"><text x="0" y="52.79843949298471" font-family="Virgil, Segoe UI Emoji" font-size="60.638751594387756px" fill="#000000" text-anchor="start" style="white-space: pre;" direction="ltr">Title</text></g><g transform="translate(711.6257421918236 71.8477874406567) rotate(0 48 12.5)"><text x="0" y="18" font-family="Virgil, Segoe UI Emoji" font-size="20px" fill="#000000" text-anchor="start" style="white-space: pre;" direction="ltr">borderpad</text></g><g stroke-linecap="round"><g transform="translate(67.09095994167149 10.724344661831765) rotate(0 -1.2236451177067806 263.5353432990362)"><path d="M-0.96 -0.72 C-0.04 134.14, -0.04 266.22, -0.58 527.8 M0.44 -0.55 C-3.55 118.76, -4.12 235.92, -0.5 526.58" stroke="#087f5b" stroke-width="4" fill="none"></path></g></g><g transform="translate(86.46966787511474 353.9795351097425) rotate(0 71.5 12.5)"><text x="0" y="18" font-family="Virgil, Segoe UI Emoji" font-size="20px" fill="#495057" text-anchor="start" style="white-space: pre;" direction="ltr">borderaxespad</text></g><g transform="translate(10 541.6806899459389) rotate(0 55 45.5)"><text x="55" y="32.5" font-family="Virgil, Segoe UI Emoji" font-size="36px" fill="#087f5b" text-anchor="middle" style="white-space: pre;" direction="ltr">axes</text><text x="55" y="78" font-family="Virgil, Segoe UI Emoji" font-size="36px" fill="#087f5b" text-anchor="middle" style="white-space: pre;" direction="ltr">border</text></g><g transform="translate(518.3075760529276 257.1636645879117) rotate(0 73.66685302734379 29.70437622070311)"><text x="0" y="41.40875244140623" font-family="Virgil, Segoe UI Emoji" font-size="47.527001953124994px" fill="#000000" text-anchor="start" style="white-space: pre;" direction="ltr">Item 1</text></g><g stroke-linecap="round" transform="translate(375.2537343976413 268.141529051741) rotate(0 59.48828125 18.766547079611428)"><path d="M0 0 C0 0, 0 0, 0 0 M0 0 C0 0, 0 0, 0 0 M0.22 6.58 C1.56 4.63, 2.88 1.42, 4.76 -0.07 M-0.18 6.38 C1.77 4.03, 3.75 2.52, 5.26 0.66 M-0.45 11.6 C1.82 10.43, 3.92 4.76, 11.56 -1.09 M-0.05 11.43 C3.98 8.42, 6.22 5.3, 11.12 -0.06 M-0.71 20.33 C5.56 13.37, 9.76 5.5, 14.1 1.73 M0.7 19.3 C4.88 13.77, 8.79 9.06, 16.59 -0.1 M1.3 24.88 C6.29 18.25, 11.45 11.34, 23.06 0.5 M-0.59 23.81 C8.9 14.73, 16.73 6.08, 21.71 0.27 M1.69 31.47 C8.07 20.14, 17.27 9.14, 27.29 -1.66 M-0.44 29.65 C10.68 18.91, 21.13 6.76, 25.35 0.45 M-0.77 35.57 C7.21 25.56, 16.18 17.76, 31.96 -0.33 M-0.43 37.06 C7.51 29.54, 13.3 20.41, 32.13 -0.83 M2.18 40.65 C15.65 23.84, 27.18 12.18, 35.87 -0.45 M3.18 40.06 C10.31 31.71, 17.25 24.34, 37.02 -0.34 M7.51 38.16 C19.56 26, 32.1 12.64, 43.09 1.36 M8.05 40 C21.32 25.39, 33.88 9.03, 42.47 -1.13 M11.83 37.8 C22.73 31, 27.88 22.91, 48.12 -1.65 M14.16 39.39 C25.63 26.17, 36.7 12.24, 46.94 0.63 M17.78 39.19 C31.01 23.42, 43.64 9.96, 51.47 -0.66 M17.65 39.16 C27.22 28.56, 36.68 18.17, 53.98 -1.14 M23.05 40.48 C36.94 24.2, 48.75 10.01, 56.81 -1.71 M23.24 38.78 C36.92 26.05, 48.96 11.69, 58.76 0.72 M29.43 39.98 C41.87 24.24, 54.01 7.44, 62.57 -0.05 M28.77 39.53 C41.1 25.05, 52.29 11.54, 63.17 -0.16 M34.54 37.78 C45.54 28.22, 53.16 15.38, 67.11 1.48 M34.31 39.58 C44.89 27.2, 53.67 15.99, 68.38 -0.51 M40.88 41.4 C49.83 26.77, 62.64 12.4, 76.28 -1.92 M38.7 39.29 C47.8 29.2, 57.66 19.94, 73.87 -0.26 M42.82 40.11 C51.93 32.06, 62.98 18.51, 80.63 0.6 M43.92 41.08 C58.07 25.31, 69.74 10.22, 80.01 0.71 M51.01 38.87 C61.42 26.61, 72.23 14.28, 86.96 1.18 M51 38.86 C57.77 29.15, 67.96 20.11, 85.15 -0.31 M56.78 40.16 C69.13 26.45, 81.42 9.8, 91.45 -1.11 M55.83 39.53 C64.1 29.67, 73.05 17.72, 90.13 0.38 M59.11 38.37 C70.57 27.37, 80.41 15.45, 95.36 1.29 M61.54 38.84 C68.26 29.78, 77.01 19.64, 95.39 0.04 M65.78 41.45 C76.37 29.44, 84.59 19.24, 102.06 -1.85 M65.12 40.67 C73.89 30.43, 82.48 22.21, 101.49 0.71 M72.95 40.47 C79.51 28.7, 92.58 19.16, 104.71 -1.02 M72.45 40.09 C84.21 25.17, 97.06 11.44, 106.23 0.37 M78.3 39.32 C85.72 32.94, 91.98 23.8, 111.38 -1.25 M76.84 40.7 C84.11 31.11, 91.78 23.1, 111.14 0.15 M80.69 40.28 C91.85 29.12, 101.77 16.66, 116 0.16 M82.14 39.67 C93.96 25.59, 105.37 12.99, 115.95 0.24 M85.23 41.67 C98.62 26.33, 109.15 15.27, 121.47 1.11 M87.28 39.04 C97.83 28.36, 107.94 15.52, 121.09 0.86 M90.96 39.47 C103.12 28.83, 114.52 15.99, 120.07 8.56 M93.32 38.84 C102.56 28.32, 110.12 18.62, 119.53 7.69 M95.91 40.95 C105.02 31.67, 115.48 22.08, 120.28 11.8 M98.03 40.33 C104.9 32.16, 110.26 24.13, 121.07 12.75 M104.81 38.28 C105.91 34.17, 112.52 29.8, 121.42 20.2 M102.96 39.11 C109.03 33.61, 114.68 26.91, 120.41 19.69 M110.04 38.27 C112.62 36.46, 116.36 32.33, 121.21 24.35 M107.99 40.39 C111.38 36.27, 115.3 31.94, 120.18 26.33 M114.9 39.52 C117.15 37.95, 118.17 35.42, 120.78 32.67 M114.19 39.86 C116.52 37.32, 118.63 34.39, 120.96 32.06" stroke="#fa5252" stroke-width="0.5" fill="none"></path><path d="M1.55 1.34 C36.67 -0.21, 72.06 2.03, 118.72 1.26 M-0.6 -0.42 C24.14 0.12, 46.94 -1.09, 119.41 -0.25 M118.46 -0.19 C119.62 14.1, 117.65 24.67, 117.5 37.13 M118.33 -0.19 C119.05 12.06, 119.2 22.09, 119.65 37.31 M118.54 36.02 C91.92 39.32, 62.28 38.18, -1.37 38.36 M119.63 36.68 C77.11 37.24, 35.88 39.12, -0.64 37.42 M-1.94 39.39 C1.13 25.84, -1.84 16.43, 0.44 -1.24 M0.86 37.56 C0.18 28.91, -0.03 19.26, -0.59 0.96" stroke="#000000" stroke-width="1" fill="none"></path></g><g transform="translate(518.2239441592318 345.0239087111551) rotate(0 83.5 30)"><text x="0" y="42" font-family="Virgil, Segoe UI Emoji" font-size="47.527001953124994px" fill="#000000" text-anchor="start" style="white-space: pre;" direction="ltr">Item 2</text></g><g stroke-linecap="round" transform="translate(375.2537343976413 356.0017731749844) rotate(0 59.48828125 18.766547079611428)"><path d="M0 0 C0 0, 0 0, 0 0 M0 0 C0 0, 0 0, 0 0 M0.23 6.87 C1.29 5.3, 2.81 3.12, 4.64 0.86 M0.12 6.69 C0.7 5.38, 2.42 3.94, 4.64 0.03 M0.31 11.98 C4.15 9.18, 4.7 6.8, 10.69 0.49 M0.7 11.56 C3.8 7.06, 8.81 3.46, 10.18 -0.5 M0.07 19.02 C5.42 11.05, 11.75 4.07, 14.3 -0.44 M-0.28 19.24 C3.81 14.47, 9.59 9.11, 14.77 -0.54 M-0.3 24.78 C6.3 15.37, 14.68 7.91, 22.66 1.8 M0.97 23.13 C4.85 18.5, 10.46 10.89, 21.88 0.1 M1.67 31.81 C5.72 22.14, 12.82 16.83, 27.07 -1.33 M-0.79 30.14 C8.11 21.41, 15.64 13.34, 26.69 0.36 M-0.4 38.31 C8.17 25.76, 21.27 14.88, 31.2 1.75 M-0.21 36.24 C11.41 22.14, 24.01 8.08, 32.57 -0.2 M2.47 39.77 C11.88 26.95, 20.55 17.04, 37.54 -0.73 M2.62 39.39 C15.76 24.36, 28.5 10.86, 36.92 0.33 M7.11 39.59 C16.1 28.55, 25.25 19.26, 44.21 0.51 M8.18 39.67 C15.61 29.96, 23.16 21.79, 41.58 -0.02 M14.36 38.2 C25.44 28.37, 36.03 14.02, 47.39 0.13 M13.26 39.8 C26.4 23.53, 39.59 10.13, 46.76 0.74 M16.75 39.43 C27.67 30.95, 32.36 20.6, 54.15 -1.41 M18.15 38.96 C30.74 25.21, 43.78 10.77, 53.53 0.38 M24.68 37.88 C32.91 27.05, 45.39 18.38, 56.86 -1.53 M24.49 39.57 C33.31 28.18, 42.2 17.69, 57.7 0.25 M28.88 39.31 C39.28 26.61, 53.17 15.43, 62.05 0.91 M29.19 39.15 C39.4 26.45, 51.34 14.34, 64.29 -0.94 M33.2 41 C47.63 24.2, 61.19 12.87, 68.76 1.94 M34.82 40.1 C48.59 22.63, 61.67 7.98, 69.45 0.77 M41.05 40.14 C50.33 26.61, 64.74 11.84, 73.48 0.86 M39.63 39.55 C51.48 27.4, 61.87 14.03, 74.93 0.33 M43.59 38.94 C53.19 31.13, 63.56 18.94, 80.45 0.63 M45.28 39.86 C57.69 25.52, 69.63 12.85, 79.96 -0.46 M49.39 41.25 C63.03 24.86, 76.18 9.82, 86.59 0.23 M50.05 38.74 C62.54 24.19, 76.61 9.68, 85.74 -1.19 M54.07 41.24 C63.02 29.61, 70.27 22.64, 91.86 -0.94 M56.11 39.31 C66.91 27.51, 78.28 13.29, 89.37 1.03 M60.56 40.42 C68.8 32.12, 74.07 23.35, 96.1 1.27 M61.22 40.6 C73.97 25.37, 85.15 11.4, 96.24 -0.64 M65.44 40.15 C74 29.38, 83.1 18.21, 101.46 0.2 M66.78 39.46 C80.4 24.98, 93.53 8.87, 100.05 1.03 M71.81 37.87 C80.84 29.24, 86.97 21.66, 105.26 -1.33 M72.14 40.28 C82.73 27.9, 94.1 15.58, 107.17 -0.83 M75.71 39.6 C87.04 26.17, 98.36 11.32, 110.33 1.45 M76.65 40.86 C90.04 25.56, 103.85 8.61, 110.61 0.6 M82.93 40.24 C93.58 30.19, 101.85 16.4, 117.26 0.3 M82.02 40.21 C94.75 24.03, 108.22 8.1, 115.81 0.42 M87.46 39.98 C97.63 24.75, 110.31 10.3, 120.75 0.15 M86.3 40.34 C94.13 30.29, 103.73 21.16, 120.53 1.58 M92.3 40.63 C101.03 25.94, 113.48 15.65, 119.24 7.74 M92.3 40.1 C100.73 29.1, 108.54 21.07, 120.08 6.9 M95.86 38.07 C105.88 30.22, 116.79 20.13, 119.03 11.65 M97.53 38.99 C102.66 32.67, 109.56 27.47, 120.97 12.64 M104.83 38.56 C107.27 35.65, 109.13 29.8, 122.14 18.75 M102.64 38.95 C108.19 36.03, 111.31 30.55, 120.35 20.34 M108.58 39.18 C112.43 36.66, 116.4 30.26, 119.19 26.06 M109.3 40.19 C113.03 34.7, 118.47 29.38, 120.4 26.1 M115.04 39.75 C116.24 38.71, 116.96 35.75, 120 32.59 M114.47 39.27 C115.98 37.37, 118.81 34.45, 120.38 32.24" stroke="#4c6ef5" stroke-width="0.5" fill="none"></path><path d="M1.65 -1.94 C32.53 -0.58, 60.22 -1.1, 120.02 -0.41 M-0.66 -0.95 C34.82 -1.24, 67.85 -1.26, 118.33 0.54 M120.21 1.07 C121 13.5, 120.24 24.75, 119.17 37.06 M118.37 0.08 C119.08 12.39, 119.27 23.33, 118.71 37.8 M117.76 37.63 C90.67 35.47, 63.77 37.11, -1.61 38.02 M118.15 38.2 C79.71 37.83, 40.2 36.8, 0.18 37.92 M-0.77 36.2 C1.01 27.97, 0.48 21.18, 1.64 -1.51 M0.94 36.69 C-0.48 25.26, -0.26 12.85, -0.47 -0.6" stroke="#000000" stroke-width="1" fill="none"></path></g><g transform="translate(936.8752817987905 257.20967361734176) rotate(0 83 30)"><text x="0" y="42" font-family="Virgil, Segoe UI Emoji" font-size="47.527001953124994px" fill="#000000" text-anchor="start" style="white-space: pre;" direction="ltr">Item 3</text></g><g stroke-linecap="round" transform="translate(793.9050720372003 268.18753808117106) rotate(0 59.48828125 18.766547079611428)"><path d="M0 0 C0 0, 0 0, 0 0 M0 0 C0 0, 0 0, 0 0 M-0.45 5.7 C1.52 4.3, 3.76 2.18, 5.29 0.8 M-0.13 6.09 C1.05 4.44, 3.09 3.22, 4.73 0.02 M0.89 12.26 C3.23 7.77, 5.46 4.76, 9.93 0.06 M0.08 11.85 C3.14 8.04, 7.58 4.86, 9.94 0.41 M0.23 17.15 C4.34 11.07, 11.38 6.24, 16.63 -1.14 M-0.85 19.24 C5.88 11.39, 12.2 6.26, 15.62 1.22 M0.6 25.49 C9.12 12.7, 16.41 5.12, 22.63 1.17 M0.97 24.27 C6.81 16.12, 15.24 7.33, 20.8 0.48 M-0.01 30.05 C9.43 21.87, 16.15 11.31, 27.28 1.44 M-0.51 29.89 C6.77 23.19, 14.44 14.24, 26.77 0.55 M1.05 36.36 C12.46 22.33, 23.34 11.96, 33.01 -1.27 M-0.7 37.64 C11.48 23.36, 23.35 9.75, 32.67 0.15 M2.33 37.53 C13.94 23.47, 28.9 9.62, 38.28 -1.58 M2.17 40.08 C10.58 29.7, 18.25 21.56, 37.79 -0.26 M9.45 38.31 C19.25 27.67, 30.52 12.42, 41.2 1.76 M7.58 40.23 C15.11 32.03, 21.33 23.54, 42.73 0.65 M14.04 41.29 C27.21 25.55, 36.89 12.2, 48.66 -0.44 M13.17 39.52 C21.47 29.13, 30.23 18.7, 47.91 0.3 M20.16 38.65 C33.57 25.01, 46.39 8.27, 51.94 1.79 M18.52 38.94 C26.93 30.07, 33.94 21.74, 52.63 -0.67 M25.25 40.68 C34.98 28.52, 46.59 16.67, 59.87 -0.79 M23.62 39.23 C34.99 25.78, 46.36 11.78, 57.66 0.9 M29.28 41.49 C42.56 26.19, 56.64 7.86, 62.42 0.96 M29.4 40.1 C39.82 29.23, 49.07 16.45, 64.27 -0.25 M34.38 40.57 C46.62 24.08, 60 7.83, 67.83 0.25 M34.81 39.4 C46.23 24.46, 58.89 9.96, 68.84 -0.52 M37.95 40.48 C45.98 29.36, 57.63 19.78, 74.26 -0.07 M39.39 40.28 C51.53 23.93, 65.74 9.6, 73.86 -0.31 M43.65 41.14 C54.46 26.16, 64.07 17.01, 78.87 -1.85 M43.67 39.18 C57.84 24.55, 72.44 8.99, 78.55 -0.82 M49.78 37.81 C57.23 28.44, 68.25 21.24, 85.51 -2.06 M50.98 39.23 C57.94 31.15, 64.44 21.82, 85.87 -0.87 M53.69 38.88 C64.95 32.86, 71.34 21.73, 89.77 0.92 M55.35 39.7 C66.29 27.99, 77.58 14.04, 89.14 0.34 M62.78 40.27 C73.93 24.97, 88.68 9.95, 94.67 0.8 M61.89 39.93 C68.96 31.92, 75.79 21.92, 95.06 0.31 M67.58 39.08 C76.46 28.27, 90.57 13.39, 99.74 1.14 M65.34 40.54 C74.91 27.93, 85.15 16.87, 100.29 0.55 M73.41 39.17 C81.09 29.45, 87.58 21.49, 104.67 0.87 M71.15 40.58 C84.07 25.74, 96.37 11.31, 106.48 -0.35 M77.5 40.86 C86.1 30.7, 94.58 18.79, 110.43 -0.02 M76.05 40.76 C90.16 24.48, 104.68 8.53, 110.91 0.59 M80.59 38.43 C96.42 23.79, 107.76 7.97, 118.23 1.83 M83.08 40.6 C92.65 28.33, 101.79 17.92, 116.79 0.57 M88.08 41.89 C95.73 30.19, 104.99 17.72, 120.62 0.63 M86.18 39.65 C95.68 31.24, 103.44 22.09, 119.9 2 M93.64 38.5 C103.15 31.57, 109.66 21.42, 121.9 7.22 M93.26 38.64 C99.6 33.02, 105.46 24.46, 120.35 7.97 M96.36 38.43 C101.56 34.88, 109.01 26.48, 120.96 14.43 M98.72 40.7 C107.51 29.15, 116.24 19.95, 120.9 13.06 M104.35 40.39 C108.22 35.13, 111.24 30.05, 121.9 18.8 M102.56 40.54 C107.68 33.26, 113.25 29.48, 121.01 20.68 M107.89 41.2 C111.78 38.32, 112.19 35.24, 121.57 25.64 M108.89 39.65 C111.07 36.92, 114.23 31.96, 121.81 25.65 M114.49 38.61 C115.84 37.26, 117.05 35.17, 119.73 31.33 M113.59 39.45 C116.17 36.89, 117.77 34.92, 120.74 31.72" stroke="#40c057" stroke-width="0.5" fill="none"></path><path d="M-1.59 -0.67 C36.51 -0.67, 71.27 1.09, 119.85 0.14 M-0.07 0.72 C36.93 -0.68, 76.13 -0.25, 118.63 0.92 M119.07 -1.27 C117.49 14.54, 117.57 29.99, 120.34 37.34 M118.83 0.14 C118.95 8.97, 118.76 19.18, 119.31 37.04 M118.7 37.32 C76.45 36.36, 33.92 37.88, 0.09 37.68 M118.66 37.4 C91.25 36.39, 63.9 36.43, 0.84 37.86 M0.87 37.16 C-0.01 27.27, -0.81 20.64, -1.89 0.23 M0.48 36.9 C0.82 26.35, 0.91 13.71, -0.06 -0.04" stroke="#000000" stroke-width="1" fill="none"></path></g><g transform="translate(936.8725247033943 345.0979482104503) rotate(0 82 30)"><text x="0" y="42" font-family="Virgil, Segoe UI Emoji" font-size="47.527001953124994px" fill="#000000" text-anchor="start" style="white-space: pre;" direction="ltr">Item 4</text></g><g stroke-linecap="round" transform="translate(793.9023149418036 356.0758126742796) rotate(0 59.48828125 18.766547079611428)"><path d="M0 0 C0 0, 0 0, 0 0 M0 0 C0 0, 0 0, 0 0 M-0.36 6.53 C1.93 4.41, 3.94 2.42, 4.89 -0.19 M-0.5 6.15 C1.29 5.24, 2.04 3.13, 4.87 0.52 M0.42 11.04 C2.77 7.81, 5.42 5.17, 11.06 0.42 M-0.26 11.97 C3.71 9.36, 5.35 5.72, 10.74 0.67 M-0.43 16.72 C6.13 12.5, 9.83 6.75, 16.78 -0.37 M0.18 17.93 C6.22 13.14, 10.48 7.16, 16.61 0.06 M0.67 22.56 C7.85 14.9, 18.25 6.02, 22.06 1.23 M-0.17 24.2 C5.92 17.86, 9.54 13.19, 21.51 -0.46 M0.79 31.63 C6.46 22.34, 15.98 14.5, 25.85 0.25 M-0.59 31.48 C6.06 24.04, 13.05 16.67, 26.72 -0.68 M0.92 34.93 C7.44 29.38, 14.74 19.56, 33.06 -0.9 M-0.18 36.62 C10 24.88, 20.05 14.6, 32.61 -0.54 M1.07 37.95 C12.3 28.82, 22.02 17.55, 35.71 1.4 M2.55 39.01 C10.7 30.4, 20.89 19.26, 37.17 -0.64 M7.43 40.64 C15.16 29.33, 22.61 23.02, 40.64 1.49 M8.29 40.12 C16.37 29.41, 25.95 19.91, 43.1 0.81 M15.36 39.72 C24.02 27.08, 37.09 12.41, 46.54 2.19 M13.27 39.32 C26.82 23.47, 40.48 8.93, 48.38 -0.74 M19.73 40.34 C27.77 28.9, 34.86 21.24, 51.69 0.3 M19.14 39.17 C28.92 27.9, 39.24 14.98, 53.29 -1.01 M23.95 40.66 C33.08 31.17, 42.44 18.77, 58.97 0.3 M23.36 39.51 C36.78 23.4, 50.78 9.06, 59.03 0.29 M29.06 41.49 C37.28 29.55, 43.05 22.88, 63.56 -0.03 M29.81 40.71 C38.52 28.26, 48.67 17.42, 64.75 0.65 M33.41 39.95 C46.38 24.03, 59.94 9.19, 70.04 -0.02 M33.8 38.83 C45.29 25.61, 57.25 12.74, 68.12 -0.05 M37.73 39.07 C55.15 23.12, 67.02 8.52, 76.02 1.53 M38.66 38.84 C47.15 31.03, 54 22.47, 74.37 -0.35 M44.13 38.14 C55.59 26.92, 68.17 10.51, 81.25 0.01 M44.16 40.53 C58.52 26, 70.23 9.51, 78.89 -0.04 M48.49 38.63 C63.41 27.39, 75.8 9.55, 83.28 -1.43 M50.33 39.92 C62.45 23.97, 77.39 8.74, 84.29 -0.94 M56.88 42.05 C68.26 25.74, 80.29 12.38, 90.55 1.77 M55.3 40.79 C63.3 30.71, 70.51 21.86, 90.9 0.26 M60.51 40.29 C70.02 30.79, 76.74 20.9, 94.01 1.22 M61.73 40.5 C70.21 28.07, 79.07 18.17, 95.94 -0.82 M64.9 41.32 C77.45 28, 84.93 17.95, 100.29 1.19 M65.35 39.29 C77.53 26.09, 88.73 13.92, 99.97 0.98 M73.43 38.72 C82.13 27.86, 90.8 16.47, 107.28 0.21 M72.05 39.37 C79.54 30.32, 86.19 22.85, 106.04 -0.49 M76.53 41.41 C83.29 31.1, 91.46 21.43, 113.28 0.74 M76.41 40.17 C84.79 31.26, 91.44 22.94, 112.2 0.52 M83.28 39.17 C92.25 26.64, 105.72 16.78, 115.96 -0.46 M82.79 39.51 C92.34 27.87, 103.27 15.38, 115.92 -0.44 M86.55 40.35 C96.47 26.59, 106.38 16.48, 119.46 3 M87.85 40.79 C100 27.13, 111.08 12.69, 120.65 0.96 M94.58 41.43 C102.8 29.32, 114.68 15.51, 118.78 9.1 M93.69 40.15 C102.52 28.25, 111.11 18.69, 119.62 7.3 M96.17 40.71 C103.55 32.78, 108.13 29.58, 122.64 12.63 M98.32 39.71 C105.97 31.31, 114.14 20.37, 120.14 14.18 M104.26 39.87 C108.52 33.19, 115.6 25.88, 120.1 19.01 M102.8 38.71 C108.31 35.03, 113.25 29.63, 119.66 19.63 M109.02 41.56 C111.52 36.03, 118.69 28.92, 120.16 25.27 M107.78 40.7 C111.56 34.98, 117.21 30.89, 120.79 24.69 M113.86 39.46 C115.19 37.26, 117.25 34.2, 120.65 32.84 M114.25 39.19 C115.92 37.22, 118.25 34.68, 120.21 32.2" stroke="#fab005" stroke-width="0.5" fill="none"></path><path d="M1.26 0.08 C43.99 2.24, 87.31 0.54, 119.32 0.61 M-0.83 0.46 C47.75 0.04, 93.93 0.07, 119.89 0.28 M117.39 -0.13 C117.48 14.44, 120.36 27.4, 118.28 37.35 M118.99 -0.99 C118.74 12.25, 119.25 25.49, 119.61 36.86 M119.67 35.98 C80.89 37.37, 40.13 37.55, -1.32 37.69 M119.1 36.54 C85.39 36.41, 51.4 37.7, -0.71 37.9 M0.13 35.85 C-0.84 27.44, -2.05 17.05, 0.1 -0.06 M0.81 37.8 C0.72 29.1, -0.24 22.46, 0.79 0.4" stroke="#000000" stroke-width="1" fill="none"></path></g><g stroke-linecap="round" transform="translate(364.14633377394705 252.29900410954286) rotate(0 162.96645259986803 76.93268914804298)"><path d="M-0.32 0.29 C129.81 -1, 256.21 -2.05, 326.83 0.25 M326.25 -0.23 C326.53 54.74, 325.45 106.25, 325.01 153.22 M324.78 154.08 C257.56 153.2, 187.76 151.34, -0.41 155.01 M1.73 152.08 C0.73 112.66, -0.97 69.23, -0.32 0.37" stroke="#000000" stroke-width="1.5" fill="none" stroke-dasharray="8 9"></path></g><g stroke-linecap="round" transform="translate(779.8772607239315 252.29900410954286) rotate(0 162.96645259986815 76.93268914804298)"><path d="M-0.16 0.39 C112.3 1.29, 228.21 -0.05, 324.85 0.1 M327.04 1.46 C325.99 33.69, 326.63 68.95, 327.48 154.38 M324.82 153.36 C197.71 156.77, 68.21 156.6, 0.48 153.35 M0.47 152.5 C-0.25 95.92, -0.73 41.45, 0.99 -1.08" stroke="#000000" stroke-width="1.5" fill="none" stroke-dasharray="8 9"></path></g><g stroke-linecap="round"><g transform="translate(735.0701838486667 223.4686918781615) rotate(270 -0.30024824286829244 40.60522136507677)"><path d="M0.65 -0.58 C0.61 13.16, -0.1 67.99, -0.28 81.79 M-0.47 1.74 C-0.66 15.17, -1.11 66.84, -1.25 79.94" stroke="#862e9c" stroke-width="1" fill="none"></path></g><g transform="translate(735.0701838486667 223.4686918781615) rotate(270 -0.30024824286829244 40.60522136507677)"><path d="M14.93 -0.46 C11.9 -0.64, 7.97 0.04, 1.31 0.45 M15.63 -0.26 C12.47 0.22, 7.93 -0.74, 0.1 0" stroke="#862e9c" stroke-width="1" fill="none"></path></g><g transform="translate(735.0701838486667 223.4686918781615) rotate(270 -0.30024824286829244 40.60522136507677)"><path d="M-15.07 -0.78 C-9.28 -1.03, -4.38 -0.26, 1.31 0.45 M-14.37 -0.59 C-10.31 -0.06, -7.65 -0.95, 0.1 0" stroke="#862e9c" stroke-width="1" fill="none"></path></g><g transform="translate(735.0701838486667 223.4686918781615) rotate(270 -0.30024824286829244 40.60522136507677)"><path d="M-16.97 79.75 C-11.18 79.5, -6.28 80.27, -0.59 80.97 M-16.27 79.95 C-12.21 80.47, -9.54 79.58, -1.8 80.52" stroke="#862e9c" stroke-width="1" fill="none"></path></g><g transform="translate(735.0701838486667 223.4686918781615) rotate(270 -0.30024824286829244 40.60522136507677)"><path d="M13.03 80.04 C10 79.86, 6.07 80.55, -0.59 80.97 M13.73 80.24 C10.58 80.73, 6.03 79.77, -1.8 80.52" stroke="#862e9c" stroke-width="1" fill="none"></path></g></g><g transform="translate(666.056612306333 219.33660910021013) rotate(0 64.5 12.5)"><text x="0" y="18" font-family="Virgil, Segoe UI Emoji" font-size="20px" fill="#862e9c" text-anchor="start" style="white-space: pre;" direction="ltr">columnspacing</text></g><g stroke-linecap="round" transform="translate(371.1787650987766 262.72978526858134) rotate(0 153.14682758706533 23.720546956204913)"><path d="M0 0 C0 0, 0 0, 0 0 M0 0 C0 0, 0 0, 0 0 M0.02 6.33 C2.43 4.59, 3.22 1.53, 4.21 0 M-0.6 6.64 C1.04 4.93, 2.33 3.37, 5.13 0.53 M-0.21 11.88 C2.34 10.41, 6.17 5.08, 11.2 0.37 M0.45 11.77 C4.23 6.89, 7.75 3.38, 10.68 0.67 M-0.62 19.53 C2.21 14.21, 8.45 9.82, 16.36 -1.37 M-0.31 17.73 C4.06 13.39, 6.69 9.74, 15.16 1.16 M0.81 23.52 C9.04 15.33, 14.88 10.62, 20.99 0.14 M0.29 23.97 C4.7 18.66, 10.64 10.91, 21.01 -0.97 M-1.4 32.15 C9.44 20.94, 17.92 9.54, 26.03 -1.29 M-0.97 30.89 C7.59 23.37, 14.31 14.77, 25.92 -0.36 M0.88 37.05 C9.05 26.37, 17.19 15.97, 31.09 -0.03 M-0.87 37.09 C6.77 29.67, 13.45 20.86, 31.47 -0.12 M-1.09 41.74 C8.77 33.1, 19.39 21.68, 36.9 1.81 M-0.41 43.39 C14.97 25.54, 28.84 9.63, 37.06 0.16 M1.44 49.54 C11.54 35.11, 22.45 21.21, 42.26 -1.21 M1.07 48.13 C9.4 39.26, 17.04 28.07, 42.38 0.23 M5.56 49.6 C16.47 35.39, 28.31 20.1, 46.36 -1.51 M6.24 48.67 C20.66 31.47, 33.62 13.97, 47.27 0.96 M11.19 46.97 C25.87 32.12, 42.32 12.1, 53.68 -2.12 M11.96 48.87 C27.92 29.17, 44.21 9.09, 52.27 0.2 M15.17 47.77 C30.26 31.71, 40.04 21.11, 56.37 -0.26 M16.81 47.72 C32.85 30.04, 49.97 11.39, 58.44 0.56 M20.98 48.92 C39.72 30.44, 52.98 11.29, 63.1 0.96 M22.45 48.52 C37.28 28.98, 55.46 9.38, 63.88 -0.8 M27.65 46.48 C39.17 32.38, 51.43 20.64, 69.45 1 M28.07 48.61 C40.83 32.77, 53 17.83, 69.66 -0.27 M32.09 48.06 C48.43 28.55, 66.96 9.08, 74.8 -1.82 M32.29 47.25 C43.28 36.56, 53.02 25.44, 74.2 -0.09 M38.04 49.15 C51.92 32.72, 64.86 13.2, 80.68 -1.87 M37.62 47.39 C48.7 35.35, 57.4 24.9, 79.27 -0.45 M42.35 49.53 C54.62 35.43, 70.65 16.94, 83.66 -1.88 M42.42 47.51 C57.93 28.67, 74.33 10.94, 84.39 0.29 M47.29 50.37 C61.73 33.34, 73.94 17.56, 89.72 -0.55 M48.62 48.16 C58.78 36.51, 68.27 25.46, 90.8 -0.61 M54.15 46.87 C61.29 37.63, 70.1 27.12, 95.11 -0.18 M53.01 48.02 C66.37 32.61, 80.12 18.06, 95.87 -0.42 M56.91 48.9 C75.02 32.78, 88.14 13.84, 100.76 1.7 M58.41 48.02 C68.58 36.28, 79.48 24.61, 101.03 0.86 M62.46 46.08 C77.19 34.73, 88.02 21.9, 105.12 0.73 M63.45 47.8 C78.74 30.4, 93.91 14.72, 106.25 0.31 M68.97 48.21 C82.64 35.15, 92.43 18.33, 110.57 -1.94 M68.57 47.63 C77.6 39.43, 87.31 28.18, 111.93 -0.1 M74.79 49.59 C84.99 36.16, 91.07 29.79, 115.6 1.51 M74.36 48.14 C86.09 35.48, 94.94 25.02, 116.72 1.04 M80.78 49.45 C95.75 29.71, 111.39 11.15, 120.5 -1.85 M79.57 48.18 C94.27 31.13, 107.58 15.71, 122.71 0.69 M87.22 48.28 C94.49 38.11, 105.1 27.25, 124.98 -1.01 M85.54 48.6 C100.38 30.05, 115.16 14.04, 126.66 -0.64 M92.19 48.22 C102.97 37.14, 112.94 24.98, 132.43 0.03 M90.1 48.12 C107.82 29.7, 124.11 9.69, 131.78 -0.29 M96.41 49.45 C109.32 32.64, 119.92 17.71, 136.27 -1.3 M96.05 47.05 C108.95 33.41, 120.26 20.5, 137.68 0.38 M101.64 46.54 C110.15 36.41, 118.2 27.56, 144.82 -1.8 M101.07 49.2 C113.43 34.07, 125.04 20.02, 142.79 -0.26 M107.55 48.84 C117.04 34.01, 128.05 21.07, 147.71 -0.13 M106.15 47.62 C118.61 33.84, 130.6 18.95, 148.29 -0.24 M110.11 48.87 C121.97 38.83, 129.38 26.4, 152.7 -0.42 M111.58 48.45 C121.7 37.18, 128.72 27.79, 154.58 -0.2 M118.43 46.64 C132.38 31.18, 148.63 9.86, 160.11 0.12 M117.33 48.72 C134 28.66, 150.27 10.17, 159.2 0.42 M121.16 50.11 C134.58 34.77, 147.32 20.19, 163.65 -0.45 M123 48.18 C135.85 33.59, 150.07 16.14, 165.24 -0.78 M127.37 47.47 C141.28 34.54, 150.12 19.54, 168.83 -0.43 M128.28 47.06 C140.64 33.17, 153.87 19.58, 169.34 0.59 M132.9 47.61 C142.93 35.76, 157.99 20.21, 173.81 -2.09 M132.87 47.96 C145.8 33.97, 157.94 18.16, 176.06 -0.4 M137.27 48.39 C150.12 34.84, 161.1 18.35, 179.79 0.73 M138.92 47.61 C151.06 33.18, 163.95 18.25, 179.87 -0.24 M142.01 49.13 C154.83 31.59, 171.7 18.47, 183.89 -1.08 M142.97 48.68 C157.35 32.18, 172.21 15.58, 185.55 -1.17 M147.58 46.89 C159.76 34.03, 171.04 21.74, 189.49 0.56 M148.39 47.63 C165.48 29.78, 180.41 11.22, 190.16 0.7 M155.73 48.9 C163.93 40.38, 170.94 30.71, 195.16 -0.75 M155.31 48.49 C169.42 30.02, 185.47 10.22, 195.45 -0.92 M158.34 48.9 C170.71 39.69, 175.91 27.7, 200.98 -1.52 M159.05 46.66 C170.3 34.98, 181.2 23.62, 201.81 -0.54 M163.85 47.56 C180.16 32.83, 194.39 14.08, 205.45 0.02 M164.09 48.8 C175.6 34.25, 188.95 21.34, 206.7 -1.2 M169.45 49.56 C179.2 38.66, 186.78 28.81, 211.87 0.31 M169.82 49.29 C185.34 30.14, 200.92 12.78, 212.61 -0.6 M174.75 48.21 C193.39 27.29, 210.21 12.11, 217.17 -1.21 M175.76 48.35 C185.79 38.31, 192.99 28.01, 217.48 -1.3 M179.39 50.15 C191.54 37.51, 203.01 24.27, 222.33 -1.67 M180.8 48.11 C194.01 33.19, 208.08 17.18, 222.61 -0.88 M187.34 48.37 C202.49 29.22, 219.05 9.9, 229.26 1.56 M186.97 47.12 C198.55 34.07, 212.57 18.23, 229.17 -0.19 M193.2 46.67 C205.26 30.4, 222.45 13.4, 235.12 -0.74 M191.35 48.24 C207.58 29.68, 222.87 13.08, 234.05 0.53 M195.13 48 C206.18 34.07, 219.96 24.5, 236.59 -0.49 M196.58 48.39 C213.35 30.19, 228.87 11.18, 237.72 0.17 M201.16 46.82 C216.85 29.39, 232.33 12.19, 243.52 0.25 M202.71 48.38 C210 39.21, 218.98 27.58, 243.4 0.82 M206.15 49.5 C217.78 35.82, 226.67 25.37, 248.57 2 M207.7 48.71 C218.02 35.62, 228.32 23.84, 248.28 -0.16 M214.09 46.7 C224.12 36.29, 232.5 25.65, 255.41 0.89 M213.32 47.45 C225 31.57, 239.65 17, 255.33 0.43 M219.03 49.72 C234.63 32.59, 246.59 14.2, 261.16 1.1 M217.63 47.93 C234.67 29.96, 250.04 10.97, 259.22 -0.56 M223.4 46.89 C236.03 33.6, 249.26 18.77, 265.21 -0.8 M222.86 48.69 C234.66 33.93, 246.65 20.96, 264.76 -0.87 M226.94 47.93 C240.39 34.08, 248.26 23.21, 271.6 0.55 M227.89 47.17 C237.63 36.52, 246.31 26.76, 270.82 1.08 M233.04 48.36 C243.19 37.01, 252.31 23.65, 273.91 -0.35 M234.2 47.61 C244.55 37.54, 254.64 25.85, 274.81 -0.07 M237.62 45.84 C255.83 30.54, 269.17 12.82, 281.64 0.53 M240.25 46.82 C250.73 32.82, 264.48 18.97, 280.56 1.21 M243.53 48.56 C259.3 32.43, 270.55 14.59, 285.06 1.13 M243.46 48 C260.53 28.51, 276.74 10.53, 286.81 -0.86 M249.38 47.61 C259.97 36.63, 270.74 23.63, 289.61 1.67 M250.66 48.57 C263.14 32.32, 278.22 17.78, 291.13 0.5 M255.95 49.36 C265.67 33.32, 282.21 19.31, 296.77 1 M255.97 47.94 C269.51 30.37, 284.09 13.91, 296.33 0.35 M259.07 47.82 C275.29 31.55, 289.97 14.95, 302.42 1.02 M261.31 47.37 C272.41 34.23, 286.2 18.49, 302.45 -0.06 M263.95 49.06 C280.01 30.89, 293.4 17.25, 305.08 -0.23 M266.27 47.77 C280.73 29.12, 297.3 12.35, 306.5 1.19 M270.12 47.51 C282.78 35.24, 290.48 24.38, 305.62 6.87 M270.6 47.49 C283.77 33.58, 296.81 17.62, 305.77 7.59 M277.75 46.4 C286.29 36.18, 299.85 21.83, 308.02 14.24 M276.12 48.14 C287.76 36.27, 297.73 22.04, 306.12 12.37 M279.87 46.88 C290.02 40.66, 295.86 28.5, 308.54 19.64 M280.5 49.18 C291.53 37.26, 299.92 24.57, 306.74 19.47 M288.09 48.58 C291.44 45.17, 293.29 38, 305.24 25.72 M286.5 47.96 C295.21 38.14, 302.43 29.03, 307.24 24 M290.19 50.33 C295.98 43.12, 301.39 36.51, 308.35 32.42 M291.16 47.77 C297.63 42.45, 303.13 35.74, 307.54 30.12 M298.09 47.43 C300.04 44.88, 301.19 42.32, 307.93 37.86 M297.59 48.28 C301.59 43.68, 305.39 40.1, 307.38 37.5 M302.86 47.84 C303.64 46.88, 306.25 44.59, 306.79 43.37 M302.68 48.23 C303.8 47.44, 304.55 45.69, 307.05 43.25" stroke="#ced4da" stroke-width="0.5" fill="none"></path><path d="M0.67 0.36 C98.33 1.69, 197.61 1.99, 305.16 -1.16 M306.53 -0.75 C306.28 8.82, 306.53 18.6, 308.23 46.44 M306.24 46.5 C204.87 48.51, 105.64 49.36, -0.38 46.79 M0.98 48.8 C1.09 33.95, -0.33 19.11, -0.2 0.92" stroke="#000000" stroke-width="1.5" fill="none" stroke-dasharray="8 9"></path></g><g stroke-linecap="round" transform="translate(370.9839303574199 351.0468743550853) rotate(0 154.66874424596728 23.720546956204913)"><path d="M0 0 C0 0, 0 0, 0 0 M0 0 C0 0, 0 0, 0 0 M-0.8 5.86 C1.36 4.11, 2.65 2.63, 5.29 0.52 M-0.23 6.05 C1.34 5.01, 2.97 2.99, 4.76 0.38 M0.11 11.62 C3.67 6.76, 8.44 2.58, 11.75 0.56 M0.04 11.3 C3.42 8.15, 8.03 3.4, 10.5 -0.51 M-1.79 16.72 C5.02 10.57, 9.51 4.59, 17.26 0.22 M0.17 18.27 C5.58 12.32, 12.01 4.38, 14.98 -0.03 M-1.7 22.62 C3.36 18.91, 10.58 15.88, 20.59 1.22 M0.09 24 C7.37 17.83, 11.62 9.61, 22.06 -0.41 M-0.77 29.3 C9.95 21.16, 17.15 7.69, 27.06 1.19 M0.33 30.9 C10.02 19.71, 18.61 8.84, 25.28 -0.42 M1.36 36.16 C6.1 29.92, 11.92 20.55, 32.51 1.48 M0.02 37.7 C12.15 23.02, 24.26 10.08, 32.09 -1.07 M0.23 42.45 C9.85 32.72, 15.68 22.58, 37.95 -0.24 M0.03 43.34 C7.71 34.71, 15.83 25.72, 37.77 0.2 M0.83 47.25 C12.57 35.01, 27.08 19.47, 42.42 -1.67 M0.87 48.27 C12.94 35.14, 23.39 20.84, 41.86 -0.77 M4.49 47.46 C13.65 37.85, 23.38 25.13, 49.35 0.52 M7.11 47.99 C18.41 32.98, 31.61 17.72, 48.12 1.04 M11.39 47.88 C22.22 38.5, 28.35 27.64, 51.48 -0.96 M11.46 48.49 C23.65 33.79, 34.69 19.97, 52.91 -0.4 M18.61 46.37 C27.99 33.95, 40.76 20.28, 57.2 0.44 M16.4 46.88 C27.86 36.54, 38.06 24.06, 57.21 -0.37 M21.9 47.62 C34.75 36.3, 44.42 19.01, 63.44 1.34 M21.45 48.58 C33.07 33.59, 46.64 19.69, 62.99 0.45 M28.51 47.43 C41 33.83, 51.51 19.33, 70.03 0.95 M27.68 47.06 C41.61 32.38, 54.32 17.38, 69.17 -0.24 M31.63 49.15 C44.35 34.13, 58.08 21.62, 72.59 1.36 M31.58 47.7 C42.28 36.98, 52.57 23.88, 74.06 -0.54 M39.22 48.03 C47.77 35.17, 60.25 23.92, 80.91 -0.06 M37.55 47.58 C51.88 30.25, 66.84 15.59, 79.3 -0.51 M44.41 47.6 C51.38 38.56, 61.63 27.68, 83.81 1.71 M43.81 47.3 C55.16 34.3, 67.16 20.31, 84.3 -0.41 M49.71 48.77 C61.53 31.53, 77 15.5, 91.5 -0.29 M48.17 47.54 C59.4 34.99, 68.98 24.43, 90.17 -0.82 M52.65 46.51 C65.49 34.56, 76 23.05, 96.51 -0.6 M53.29 47.11 C62.01 37.27, 70.91 27.08, 96.13 -0.91 M59.46 46.42 C71.69 33.36, 85.8 16.4, 100.01 -1 M57.86 49.04 C74.54 31.78, 89.91 13.87, 101.52 -0.54 M65.29 49.89 C76.38 32.94, 88.23 19.74, 104.69 -2.11 M64.42 47.13 C75.24 37.85, 85.4 24.86, 106.16 -0.51 M68.57 46.45 C76.7 36.73, 87.36 26.1, 113.19 1 M69.23 47.76 C78.85 37.57, 89.41 26.3, 110.34 -0.74 M75.87 46.16 C89.71 31.15, 100.5 19.85, 116.25 -0.14 M74.8 47.67 C84.62 38.34, 92.85 27.78, 116.58 0.34 M80.32 48 C94.55 33.32, 105.26 18.33, 122.4 1.32 M79.74 47.85 C89.41 37.77, 98.15 26.7, 122.83 -0.23 M86.46 48.2 C97.35 38.06, 108.33 22.81, 127.61 0.12 M85.26 47.29 C95.04 37.99, 103.53 28.43, 127.75 0.22 M88.59 48.67 C99.03 38.23, 108.44 28.99, 131.51 0.02 M91.08 48.8 C99.13 37.96, 107.84 27.96, 132.42 0.47 M95.7 49.32 C110.94 28.24, 129.94 12.28, 135.78 2.2 M95.85 48.85 C108.15 31.66, 122.22 17.19, 138.31 1.26 M101.8 48.49 C111.79 36.88, 121.98 23.45, 145 1.6 M101.14 47.35 C116.3 30.5, 130.32 14.97, 143.73 -0.89 M106.81 47.26 C118.02 36.62, 129.41 23.11, 149.02 -0.67 M107.82 47.47 C117.46 34.47, 129.3 21.25, 147.75 0.12 M110.94 49.9 C125.71 32.43, 140.11 17.9, 151.87 -1 M112.05 47.51 C129.05 29.38, 144.47 9.97, 154.64 -0.25 M115.56 48.2 C135.25 29.14, 148.22 10.54, 158.12 -0.85 M117.67 48.59 C127.35 36.26, 138.73 23.13, 159.79 0.71 M121.57 49.83 C135.35 29.05, 149.9 13.66, 165.72 1.57 M122.16 48.6 C137.88 32.25, 152.3 14.06, 164.2 0.7 M126.28 46.76 C141.96 32.87, 156.09 15.48, 168.44 -0.25 M129.08 47.9 C136.23 37.12, 146.39 26.81, 170.36 0.26 M133.79 47.6 C145.27 34.16, 155.08 21.09, 176.69 -0.86 M134.02 47.2 C142.8 37.88, 151.34 25.91, 174.72 0.57 M139.86 46 C150.87 32.21, 163.8 16.57, 179.92 1.65 M138.99 47.37 C154.93 29.06, 171.03 10.29, 179.62 -0.74 M142.29 49 C155.04 35.16, 169.96 20.94, 187.49 -2.06 M144.41 47.2 C155.34 33.88, 169.4 18.18, 185.71 0.24 M149.77 49.42 C160.5 30.66, 174.61 18.02, 191.04 -0.18 M149.52 47.26 C165.91 29.16, 182.36 8.88, 189.93 -0.52 M156.29 46.23 C169.01 30.06, 183.91 12.04, 197.38 0.65 M154.33 47.72 C164.29 36.78, 174.34 25.92, 195.9 -1.13 M158.02 48.94 C177 28.73, 190.3 14.05, 202.85 -0.33 M160.04 48.12 C174.28 30.6, 187.45 16.6, 201.89 -0.01 M163.62 49.95 C179.55 29.83, 193.07 11.95, 206.2 -1.6 M164.99 47.22 C179.76 30.96, 194.93 13.84, 207.24 -0.07 M170.54 49.7 C183.74 30.54, 200.72 16.65, 210.97 1.03 M170.46 47.53 C182.05 35.3, 192.63 21.69, 212.31 -0.88 M174.62 49.25 C185.7 34.22, 195.34 23.1, 218.35 -1.25 M175.84 47.4 C191.14 31.4, 205.96 12.72, 216.91 -0.87 M179.78 46.99 C192.44 33.43, 206.54 19.32, 221.57 -1.83 M179.89 49.07 C194.93 30.11, 211.59 13.53, 222.23 0.49 M186.23 47.65 C202.34 30.3, 220 9.72, 226.78 -2.32 M186.52 47.25 C197.29 34.56, 210.54 19.97, 227.29 0.49 M192.81 46.8 C206.46 33.03, 219.76 13.89, 231.4 -0.18 M190.7 48.9 C206.77 31.78, 222.14 13.66, 232.87 -1 M197.93 47.12 C211.14 31.98, 224.4 13.9, 236.36 0.39 M196.91 47.06 C207.85 36.43, 216.73 25.49, 237.32 1.05 M201.89 46.84 C215.99 30.98, 233.51 13.12, 243.76 1.11 M201.1 48.67 C210.61 38.31, 219.67 27.11, 243.72 0.84 M207.78 48.06 C221.76 33.18, 234.51 17.68, 250.49 2.24 M207.09 48.37 C219.53 31.93, 234.06 18.15, 249.16 -0.12 M211.85 49.2 C227.07 32.99, 243.67 14.72, 252.5 -0.35 M212.55 48.34 C226.51 30.57, 241.53 14.11, 254.46 -0.54 M216.39 49.31 C232.25 28.82, 250.61 10.83, 259.15 1.29 M217.38 48.04 C230.8 33, 243.12 18.29, 260.18 0.58 M224.09 48.46 C231.65 37.82, 242.92 26.45, 266.06 -0.54 M223.72 48.12 C232.78 37.99, 243.55 25.37, 264.99 -0.38 M226.94 48.14 C241.81 30.29, 256.94 14.46, 269.54 -0.72 M228.31 48.17 C243.65 32.27, 256.77 16.15, 269.65 0.29 M232.57 47.6 C251.23 30.41, 265.27 11.86, 275.43 -1 M234.5 48.54 C247.17 34.23, 259.14 19.19, 275.43 -0.67 M241.16 48.26 C250.45 35.67, 261.79 23.11, 281.45 -1.6 M238.63 48.17 C250.34 34.28, 261.86 21.8, 280.06 0.42 M243.81 50.06 C254.16 35.42, 268.45 23.44, 286.15 -0.83 M244 48.38 C254 35.49, 266.9 22.68, 286.13 -0.09 M251.37 47.84 C262.23 37.45, 272.3 23.43, 291.21 1.27 M249.29 48.72 C263.24 34.14, 273.94 19.29, 291.09 0.68 M256.88 47.72 C263.68 34.05, 274.01 22.88, 298.35 -0.69 M254.53 48.73 C264.67 37.21, 273.45 24.51, 297.64 -0.06 M260.41 47.45 C271.54 37.82, 280.71 25.5, 303.7 -1.06 M261.5 47.78 C272.3 34.05, 285.9 17.68, 301.68 1.04 M267.44 48.86 C283.03 29.38, 297.64 10.01, 306.69 1.2 M265.66 48.92 C279.94 31.87, 294.97 14.05, 306.75 -0.71 M269.73 46.13 C282.8 32.38, 295.9 17.46, 311.08 0.42 M270.64 48.6 C286.64 31.64, 299.63 14.89, 310.65 1.28 M275.7 46.25 C290.73 31.03, 301.58 18.73, 309.21 9.35 M276.13 48.59 C283.09 38.57, 291.52 29.78, 311.23 7.42 M282.65 50.1 C289.82 39.3, 301.05 27.15, 311.5 14.71 M281.68 48.46 C287.88 41.37, 294.83 34.15, 311.48 12.99 M286.42 49.07 C292.53 39.84, 300.59 29.35, 309.64 21.89 M285.93 47.67 C292.37 41.73, 298.09 33.95, 310.24 20.23 M291.04 49.73 C298.57 40.45, 302.91 36.01, 312.71 27.59 M291.79 47.66 C298.76 40.81, 306.09 31.65, 311.93 26.42 M296.94 46.92 C301.89 42.39, 305.39 39.97, 309.62 32.14 M298.26 48.36 C301.52 43.83, 304.77 40.84, 310.49 31.66 M303.05 48.2 C307.04 43.55, 310.36 41.51, 309.86 37.29 M302.41 48.13 C304.47 46.37, 306.53 43.58, 311.11 39.11 M308.4 48.41 C308.77 46.91, 309.87 45.42, 311.09 44.01 M308 47.72 C309.11 46.88, 310.03 45.78, 311.48 44.28" stroke="#ced4da" stroke-width="0.5" fill="none"></path><path d="M0.61 -0.63 C61.71 -0.21, 123.71 -2.43, 310.77 -0.19 M308.07 -0.7 C310.87 10.29, 311.28 25.04, 307.53 46.06 M309.26 46.53 C240.58 47.93, 172.07 48.37, -0.1 46.51 M0.38 46.69 C1.89 30.83, 0.34 12.76, 0.04 -0.31" stroke="#000000" stroke-width="1.5" fill="none" stroke-dasharray="8 9"></path></g><g stroke-linecap="round"><g transform="translate(506.83547308454683 329.8626865462169) rotate(270 -14.808662178587156 0.007984791719337636)"><path d="M-0.44 0.37 C-5.65 0.62, -25.34 0.76, -30.7 0.85 M1.53 -0.48 C-3.8 -0.5, -25.86 -0.75, -31.15 -0.83" stroke="#343a40" stroke-width="1" fill="none"></path></g><g transform="translate(506.83547308454683 329.8626865462169) rotate(270 -14.808662178587156 0.007984791719337636)"><path d="M0.28 16.56 C0.87 8.97, 0.83 5.4, 0.8 0.67 M-0.04 14.65 C-0.83 11.2, -0.03 6.14, -0.47 0.91" stroke="#343a40" stroke-width="1" fill="none"></path></g><g transform="translate(506.83547308454683 329.8626865462169) rotate(270 -14.808662178587156 0.007984791719337636)"><path d="M-0.23 -13.44 C0.37 -10.63, 0.51 -3.81, 0.8 0.67 M-0.55 -15.35 C-1.06 -9.53, -0.11 -5.32, -0.47 0.91" stroke="#343a40" stroke-width="1" fill="none"></path></g><g transform="translate(506.83547308454683 329.8626865462169) rotate(270 -14.808662178587156 0.007984791719337636)"><path d="M-30.48 -14.64 C-30.04 -11.83, -30.05 -5.01, -29.91 -0.54 M-30.8 -16.55 C-31.46 -10.73, -30.64 -6.52, -31.17 -0.3" stroke="#343a40" stroke-width="1" fill="none"></path></g><g transform="translate(506.83547308454683 329.8626865462169) rotate(270 -14.808662178587156 0.007984791719337636)"><path d="M-30.88 15.36 C-30.13 7.77, -30.01 4.19, -29.91 -0.54 M-31.19 13.44 C-31.85 9.99, -30.91 4.93, -31.17 -0.3" stroke="#343a40" stroke-width="1" fill="none"></path></g></g><g transform="translate(511.3743160414988 318.67383720651173) rotate(0 57.00000000000006 12.5)"><text x="0" y="18" font-family="Virgil, Segoe UI Emoji" font-size="20px" fill="#343a40" text-anchor="start" style="white-space: pre;" direction="ltr">labelspacing</text></g><g stroke-linecap="round"><g transform="translate(569.965286688457 227.0699163186141) rotate(270 -19.00253820197446 -0.2567910210254922)"><path d="M0.21 -0.19 C-6.02 -0.09, -31.43 0.82, -37.89 0.99 M-1.14 -1.33 C-7.38 -1.64, -31.9 -1.54, -38.22 -0.94" stroke="#343a40" stroke-width="1" fill="none"></path></g><g transform="translate(569.965286688457 227.0699163186141) rotate(270 -19.00253820197446 -0.2567910210254922)"><path d="M0.44 16.29 C0.96 11.57, 0.63 6.42, 0.54 0.75 M0.18 15.3 C1.31 10.24, 1.21 4.59, 0.12 -0.26" stroke="#343a40" stroke-width="1" fill="none"></path></g><g transform="translate(569.965286688457 227.0699163186141) rotate(270 -19.00253820197446 -0.2567910210254922)"><path d="M-0.48 -13.7 C0.38 -10.66, 0.29 -8.05, 0.54 0.75 M-0.73 -14.69 C0.47 -10.21, 0.67 -6.32, 0.12 -0.26" stroke="#343a40" stroke-width="1" fill="none"></path></g><g transform="translate(569.965286688457 227.0699163186141) rotate(270 -19.00253820197446 -0.2567910210254922)"><path d="M-39.08 -14.45 C-38.17 -11.41, -38.22 -8.81, -37.89 0 M-39.33 -15.44 C-38.07 -10.96, -37.82 -7.08, -38.31 -1.02" stroke="#343a40" stroke-width="1" fill="none"></path></g><g transform="translate(569.965286688457 227.0699163186141) rotate(270 -19.00253820197446 -0.2567910210254922)"><path d="M-37.82 15.53 C-37.34 10.81, -37.71 5.66, -37.89 0 M-38.07 14.54 C-37 9.48, -37.15 3.83, -38.31 -1.02" stroke="#343a40" stroke-width="1" fill="none"></path></g></g><g transform="translate(417.72148524485385 210.61131283182772) rotate(0 57 12.5)"><text x="0" y="18" font-family="Virgil, Segoe UI Emoji" font-size="20px" fill="#343a40" text-anchor="start" style="white-space: pre;" direction="ltr">labelspacing</text></g><g stroke-linecap="round"><g transform="translate(738.7478095772818 81.68320625098812) rotate(270 -37.5770488931596 -0.20666822782717986)"><path d="M0.57 -0.37 C-12.13 -0.53, -63.35 -0.16, -75.73 -0.22 M-0.58 -1.61 C-12.96 -1.66, -61.29 0.9, -73.51 1.2" stroke="#343a40" stroke-width="1" fill="none"></path></g><g transform="translate(738.7478095772818 81.68320625098812) rotate(270 -37.5770488931596 -0.20666822782717986)"><path d="M0.14 13.46 C0.22 10.84, -0.44 3.41, -0.66 0.46 M0.27 14.64 C0 9.23, 1.05 2.46, 0.96 -0.41" stroke="#343a40" stroke-width="1" fill="none"></path></g><g transform="translate(738.7478095772818 81.68320625098812) rotate(270 -37.5770488931596 -0.20666822782717986)"><path d="M0.08 -16.54 C0.37 -8.89, -0.27 -6.04, -0.66 0.46 M0.21 -15.36 C0.22 -8.82, 1.29 -3.65, 0.96 -0.41" stroke="#343a40" stroke-width="1" fill="none"></path></g><g transform="translate(738.7478095772818 81.68320625098812) rotate(270 -37.5770488931596 -0.20666822782717986)"><path d="M-74.57 -14.96 C-74.08 -7.32, -74.53 -4.47, -74.74 2.03 M-74.44 -13.78 C-74.21 -7.25, -72.91 -2.08, -73.12 1.16" stroke="#343a40" stroke-width="1" fill="none"></path></g><g transform="translate(738.7478095772818 81.68320625098812) rotate(270 -37.5770488931596 -0.20666822782717986)"><path d="M-73.38 15.02 C-73.49 12.4, -74.35 4.98, -74.74 2.03 M-73.24 16.2 C-73.74 10.79, -72.92 4.03, -73.12 1.16" stroke="#343a40" stroke-width="1" fill="none"></path></g></g><g transform="translate(1118.998247328328 263.90806751491) rotate(0 48 12.5)"><text x="0" y="18" font-family="Virgil, Segoe UI Emoji" font-size="20px" fill="#000000" text-anchor="start" style="white-space: pre;" direction="ltr">borderpad</text></g><g stroke-linecap="round"><g transform="translate(1166.6354295048272 367.3883006233156) rotate(270 0.4738153577875437 -49.89514764134822)"><path d="M-0.39 -0.74 C-0.27 -17.31, 0.18 -82.84, 0.19 -99.51 M1.61 1.48 C1.64 -15.42, -0.18 -84.4, -0.66 -101.27" stroke="#343a40" stroke-width="1" fill="none"></path></g><g transform="translate(1166.6354295048272 367.3883006233156) rotate(270 0.4738153577875437 -49.89514764134822)"><path d="M-16.32 -0.6 C-10.73 -1.16, -8.52 -1.56, 0.23 -1.91 M-15.25 -0.15 C-10.31 -0.37, -5.76 -1.28, -0.12 -1.04" stroke="#343a40" stroke-width="1" fill="none"></path></g><g transform="translate(1166.6354295048272 367.3883006233156) rotate(270 0.4738153577875437 -49.89514764134822)"><path d="M13.68 -0.41 C11.66 -1.12, 6.26 -1.56, 0.23 -1.91 M14.75 0.05 C10.34 -0.09, 5.56 -1.06, -0.12 -1.04" stroke="#343a40" stroke-width="1" fill="none"></path></g><g transform="translate(1166.6354295048272 367.3883006233156) rotate(270 0.4738153577875437 -49.89514764134822)"><path d="M13.41 -101.44 C11.38 -102.02, 5.98 -102.34, -0.04 -102.44 M14.47 -100.98 C10.07 -100.96, 5.28 -101.78, -0.4 -101.57" stroke="#343a40" stroke-width="1" fill="none"></path></g><g transform="translate(1166.6354295048272 367.3883006233156) rotate(270 0.4738153577875437 -49.89514764134822)"><path d="M-16.58 -100.64 C-11 -101.32, -8.79 -101.85, -0.04 -102.44 M-15.51 -100.18 C-10.58 -100.56, -6.03 -101.63, -0.4 -101.57" stroke="#343a40" stroke-width="1" fill="none"></path></g></g><g stroke-linecap="round"><g transform="translate(157.06120095810263 257.5916833580789) rotate(270 -0.2318432505001624 78.35772202888758)"><path d="M-1.16 -1.04 C-1.21 24.84, 0.57 130.2, 0.7 156.45 M0.43 1.03 C0.2 27.58, 0.42 131.67, 0.12 157.76" stroke="#343a40" stroke-width="1" fill="none"></path></g><g transform="translate(157.06120095810263 257.5916833580789) rotate(270 -0.2318432505001624 78.35772202888758)"><path d="M12.53 -0.33 C7.55 -1.79, 1.81 -1.64, -1.97 -0.94 M13.47 -1.45 C10.51 -0.65, 7.07 -1.17, -0.54 -1.02" stroke="#343a40" stroke-width="1" fill="none"></path></g><g transform="translate(157.06120095810263 257.5916833580789) rotate(270 -0.2318432505001624 78.35772202888758)"><path d="M-17.46 0.02 C-10.95 -1.28, -5.19 -1.26, -1.97 -0.94 M-16.53 -1.1 C-13.46 -0.44, -10.87 -1.03, -0.54 -1.02" stroke="#343a40" stroke-width="1" fill="none"></path></g><g transform="translate(157.06120095810263 257.5916833580789) rotate(270 -0.2318432505001624 78.35772202888758)"><path d="M-16.18 158.59 C-9.66 157.38, -3.9 157.48, -0.68 157.86 M-15.24 157.47 C-12.17 158.17, -9.58 157.63, 0.75 157.78" stroke="#343a40" stroke-width="1" fill="none"></path></g><g transform="translate(157.06120095810263 257.5916833580789) rotate(270 -0.2318432505001624 78.35772202888758)"><path d="M13.82 158.7 C8.83 157.16, 3.09 157.22, -0.68 157.86 M14.76 157.58 C11.8 158.34, 8.35 157.78, 0.75 157.78" stroke="#343a40" stroke-width="1" fill="none"></path></g></g><g transform="translate(722.9866050017478 584.7339450510818) rotate(0 38.5 12.5)"><text x="0" y="18" font-family="Virgil, Segoe UI Emoji" font-size="20px" fill="#1864ab" text-anchor="start" style="white-space: pre;" direction="ltr">frameon</text></g><g stroke-linecap="round"><g transform="translate(745.7603701294307 573.2008614346443) rotate(0 -56.140770008869595 -30.177265401595616)"><path d="M0 0 C-38.27 -20.57, -76.55 -41.15, -112.28 -60.35 M0 0 C-28.09 -15.1, -56.18 -30.2, -112.28 -60.35" stroke="#1864ab" stroke-width="4" fill="none"></path></g><g transform="translate(745.7603701294307 573.2008614346443) rotate(0 -56.140770008869595 -30.177265401595616)"><path d="M-102.78 -60.35 C-102.78 -59.8, -102.83 -59.25, -102.93 -58.7 C-103.02 -58.16, -103.17 -57.62, -103.35 -57.11 C-103.54 -56.59, -103.78 -56.08, -104.05 -55.6 C-104.33 -55.13, -104.65 -54.67, -105 -54.25 C-105.36 -53.83, -105.75 -53.43, -106.18 -53.08 C-106.6 -52.72, -107.06 -52.4, -107.53 -52.13 C-108.01 -51.85, -108.52 -51.62, -109.03 -51.43 C-109.55 -51.24, -110.09 -51.09, -110.63 -51 C-111.17 -50.9, -111.73 -50.85, -112.28 -50.85 C-112.83 -50.85, -113.39 -50.9, -113.93 -51 C-114.47 -51.09, -115.01 -51.24, -115.53 -51.43 C-116.05 -51.62, -116.56 -51.85, -117.03 -52.13 C-117.51 -52.4, -117.97 -52.72, -118.39 -53.08 C-118.81 -53.43, -119.21 -53.83, -119.56 -54.25 C-119.91 -54.67, -120.23 -55.13, -120.51 -55.6 C-120.78 -56.08, -121.02 -56.59, -121.21 -57.11 C-121.4 -57.62, -121.54 -58.16, -121.64 -58.7 C-121.73 -59.25, -121.78 -59.8, -121.78 -60.35 C-121.78 -60.9, -121.73 -61.46, -121.64 -62 C-121.54 -62.55, -121.4 -63.09, -121.21 -63.6 C-121.02 -64.12, -120.78 -64.63, -120.51 -65.1 C-120.23 -65.58, -119.91 -66.04, -119.56 -66.46 C-119.21 -66.88, -118.81 -67.28, -118.39 -67.63 C-117.97 -67.99, -117.51 -68.31, -117.03 -68.58 C-116.56 -68.86, -116.05 -69.09, -115.53 -69.28 C-115.01 -69.47, -114.47 -69.61, -113.93 -69.71 C-113.39 -69.81, -112.83 -69.85, -112.28 -69.85 C-111.73 -69.85, -111.17 -69.81, -110.63 -69.71 C-110.09 -69.61, -109.55 -69.47, -109.03 -69.28 C-108.52 -69.09, -108.01 -68.86, -107.53 -68.58 C-107.06 -68.31, -106.6 -67.99, -106.18 -67.63 C-105.75 -67.28, -105.36 -66.88, -105 -66.46 C-104.65 -66.04, -104.33 -65.58, -104.05 -65.1 C-103.78 -64.63, -103.54 -64.12, -103.35 -63.6 C-103.17 -63.09, -103.02 -62.55, -102.93 -62 C-102.83 -61.46, -102.81 -60.63, -102.78 -60.35 C-102.76 -60.08, -102.76 -60.63, -102.78 -60.35" stroke="none" stroke-width="0" fill="#1864ab"></path></g></g></svg>