<svg xmlns="http://www.w3.org/2000/svg" xmlns:xlink="http://www.w3.org/1999/xlink" width="500" zoomAndPan="magnify" viewBox="0 0 375 225" height="300" preserveAspectRatio="xMidYMid meet" version="1.0"><defs><clipPath id="id1"><path d="M 75 0 L 299.855469 0 L 299.855469 224.796875 L 75 224.796875 Z M 75 0 " clip-rule="nonzero"/></clipPath></defs><g clip-path="url(#id1)"><path fill="#03989e" d="M 287.503906 212.46875 L 129.554688 212.46875 L 129.554688 54.515625 L 287.503906 54.515625 Z M 262.164062 42.183594 L 232.3125 12.332031 L 248.921875 12.332031 L 278.773438 42.183594 Z M 228.132812 42.183594 L 198.261719 12.332031 L 214.851562 12.332031 L 244.703125 42.183594 Z M 194.058594 42.183594 L 164.1875 12.332031 L 180.796875 12.332031 L 210.667969 42.183594 Z M 160.007812 42.183594 L 130.136719 12.332031 L 146.746094 12.332031 L 176.617188 42.183594 Z M 125.953125 42.183594 L 121.578125 37.808594 L 96.0625 12.332031 L 112.671875 12.332031 L 142.542969 42.183594 Z M 117.222656 50.914062 L 117.222656 67.523438 L 87.332031 37.632812 L 87.332031 21.042969 Z M 87.332031 123.222656 L 117.222656 153.09375 L 117.222656 169.703125 L 87.332031 139.832031 Z M 117.222656 119.039062 L 117.222656 135.648438 L 87.332031 105.757812 L 87.332031 89.148438 Z M 87.332031 71.707031 L 87.332031 55.097656 L 117.222656 84.96875 L 117.222656 101.578125 Z M 87.332031 173.882812 L 87.332031 157.273438 L 117.222656 187.164062 L 117.222656 203.753906 Z M 298.035156 43.984375 L 255.851562 1.800781 C 254.671875 0.660156 253.105469 0 251.476562 0 L 81.175781 0 C 80.75 0 80.421875 0.269531 80.015625 0.347656 C 79.609375 0.425781 79.199219 0.308594 78.8125 0.484375 C 78.640625 0.5625 78.542969 0.753906 78.367188 0.851562 C 77.808594 1.140625 77.402344 1.546875 76.957031 1.992188 C 76.53125 2.417969 76.140625 2.828125 75.851562 3.347656 C 75.753906 3.542969 75.5625 3.621094 75.484375 3.8125 C 75.328125 4.179688 75.445312 4.570312 75.367188 4.957031 C 75.269531 5.382812 75 5.730469 75 6.15625 L 75 176.4375 C 75 178.066406 75.660156 179.632812 76.800781 180.816406 L 119.023438 223 C 120.203125 224.179688 121.792969 224.796875 123.378906 224.796875 L 293.660156 224.796875 C 297.070312 224.796875 299.835938 222.03125 299.835938 218.640625 L 299.835938 48.359375 C 299.835938 48.164062 299.664062 48.050781 299.644531 47.875 C 299.527344 46.441406 299.082031 45.046875 298.035156 43.984375 " fill-opacity="1" fill-rule="nonzero"/></g></svg>