<svg xmlns="http://www.w3.org/2000/svg" xmlns:xlink="http://www.w3.org/1999/xlink" width="500" zoomAndPan="magnify" viewBox="0 0 375 225" height="300" preserveAspectRatio="xMidYMid meet" version="1.0"><defs><g/><clipPath id="id1"><path d="M 129.542969 17.753906 L 245.71875 17.753906 L 245.71875 133.902344 L 129.542969 133.902344 Z M 129.542969 17.753906 " clip-rule="nonzero"/></clipPath></defs><rect x="-37.5" width="450" fill="#ffffff" y="-22.5" height="270" fill-opacity="1"/><rect x="-37.5" width="450" fill="#ffffff" y="-22.5" height="270" fill-opacity="1"/><rect x="-37.5" width="450" fill="#ffffff" y="-22.5" height="270" fill-opacity="1"/><rect x="-37.5" width="450" fill="#ffffff" y="-22.5" height="270" fill-opacity="1"/><g clip-path="url(#id1)"><path fill="#03989e" d="M 239.335938 127.527344 L 157.730469 127.527344 L 157.730469 45.921875 L 239.335938 45.921875 Z M 226.242188 39.550781 L 210.820312 24.125 L 219.402344 24.125 L 234.824219 39.550781 Z M 208.660156 39.550781 L 193.226562 24.125 L 201.796875 24.125 L 217.222656 39.550781 Z M 191.054688 39.550781 L 175.621094 24.125 L 184.203125 24.125 L 199.636719 39.550781 Z M 173.460938 39.550781 L 158.027344 24.125 L 166.609375 24.125 L 182.042969 39.550781 Z M 155.867188 39.550781 L 153.609375 37.289062 L 140.425781 24.125 L 149.007812 24.125 L 164.441406 39.550781 Z M 151.355469 44.0625 L 151.355469 52.640625 L 135.914062 37.199219 L 135.914062 28.628906 Z M 135.914062 81.417969 L 151.355469 96.851562 L 151.355469 105.433594 L 135.914062 90 Z M 151.355469 79.257812 L 151.355469 87.839844 L 135.914062 72.398438 L 135.914062 63.816406 Z M 135.914062 54.804688 L 135.914062 46.222656 L 151.355469 61.65625 L 151.355469 70.238281 Z M 135.914062 107.59375 L 135.914062 99.011719 L 151.355469 114.457031 L 151.355469 123.027344 Z M 244.777344 40.480469 L 222.984375 18.683594 C 222.371094 18.09375 221.5625 17.753906 220.722656 17.753906 L 132.734375 17.753906 C 132.511719 17.753906 132.34375 17.894531 132.132812 17.933594 C 131.921875 17.976562 131.710938 17.914062 131.511719 18.003906 C 131.421875 18.042969 131.371094 18.144531 131.28125 18.195312 C 130.992188 18.34375 130.78125 18.554688 130.550781 18.785156 C 130.332031 19.003906 130.132812 19.214844 129.980469 19.484375 C 129.933594 19.585938 129.832031 19.625 129.792969 19.726562 C 129.710938 19.914062 129.773438 20.117188 129.730469 20.316406 C 129.683594 20.535156 129.542969 20.714844 129.542969 20.933594 L 129.542969 108.914062 C 129.542969 109.753906 129.882812 110.566406 130.472656 111.175781 L 152.289062 132.96875 C 152.898438 133.582031 153.71875 133.902344 154.539062 133.902344 L 242.515625 133.902344 C 244.277344 133.902344 245.707031 132.46875 245.707031 130.71875 L 245.707031 42.742188 C 245.707031 42.640625 245.617188 42.582031 245.609375 42.492188 C 245.546875 41.75 245.316406 41.03125 244.777344 40.480469 " fill-opacity="1" fill-rule="nonzero"/></g><g fill="#000000" fill-opacity="1"><g transform="translate(110.69638, 170.673946)"><g><path d="M 2.03125 -18.828125 L 8.078125 -18.828125 L 8.078125 -4.8125 L 17.734375 -4.8125 L 17.734375 0 L 2.03125 0 Z M 2.03125 -18.828125 "/></g></g></g><g fill="#000000" fill-opacity="1"><g transform="translate(128.949534, 170.673946)"><g><path d="M 9.109375 -14.78125 C 11.753906 -14.78125 13.773438 -14.15625 15.171875 -12.90625 C 16.566406 -11.664062 17.265625 -9.769531 17.265625 -7.21875 L 17.265625 -6.296875 L 6.421875 -6.296875 C 6.421875 -5.253906 6.65625 -4.46875 7.125 -3.9375 C 7.59375 -3.40625 8.328125 -3.140625 9.328125 -3.140625 C 10.242188 -3.140625 10.914062 -3.332031 11.34375 -3.71875 C 11.769531 -4.101562 11.984375 -4.613281 11.984375 -5.25 L 17.265625 -5.25 C 17.265625 -3.5 16.597656 -2.128906 15.265625 -1.140625 C 13.929688 -0.160156 11.988281 0.328125 9.4375 0.328125 C 6.757812 0.328125 4.679688 -0.296875 3.203125 -1.546875 C 1.722656 -2.796875 0.984375 -4.6875 0.984375 -7.21875 C 0.984375 -9.695312 1.703125 -11.578125 3.140625 -12.859375 C 4.585938 -14.140625 6.578125 -14.78125 9.109375 -14.78125 Z M 9.328125 -11.296875 C 7.609375 -11.296875 6.648438 -10.484375 6.453125 -8.859375 L 11.765625 -8.859375 C 11.765625 -9.609375 11.550781 -10.203125 11.125 -10.640625 C 10.695312 -11.078125 10.097656 -11.296875 9.328125 -11.296875 Z M 9.328125 -11.296875 "/></g></g></g><g fill="#000000" fill-opacity="1"><g transform="translate(147.202688, 170.673946)"><g><path d="M 17.890625 -17.15625 C 17.890625 -16.039062 17.609375 -15.179688 17.046875 -14.578125 C 16.492188 -13.984375 15.664062 -13.535156 14.5625 -13.234375 C 15.082031 -12.835938 15.492188 -12.367188 15.796875 -11.828125 C 16.097656 -11.296875 16.25 -10.726562 16.25 -10.125 C 16.25 -8.59375 15.671875 -7.429688 14.515625 -6.640625 C 13.359375 -5.859375 11.910156 -5.46875 10.171875 -5.46875 L 8.09375 -5.46875 C 6.945312 -5.46875 6.375 -5.203125 6.375 -4.671875 C 6.375 -4.421875 6.5 -4.21875 6.75 -4.0625 C 7.007812 -3.90625 7.457031 -3.828125 8.09375 -3.828125 L 13.015625 -3.828125 C 14.628906 -3.828125 15.84375 -3.40625 16.65625 -2.5625 C 17.476562 -1.726562 17.890625 -0.609375 17.890625 0.796875 C 17.890625 1.835938 17.613281 2.726562 17.0625 3.46875 C 16.519531 4.21875 15.78125 4.785156 14.84375 5.171875 C 13.914062 5.554688 12.90625 5.75 11.8125 5.75 L 3.78125 5.75 C 3.125 5.75 2.515625 5.59375 1.953125 5.28125 C 1.398438 4.96875 0.957031 4.539062 0.625 4 C 0.300781 3.46875 0.140625 2.875 0.140625 2.21875 C 0.140625 1.507812 0.359375 0.863281 0.796875 0.28125 C 1.234375 -0.289062 1.78125 -0.722656 2.4375 -1.015625 C 2 -1.328125 1.648438 -1.703125 1.390625 -2.140625 C 1.140625 -2.578125 1.015625 -3.050781 1.015625 -3.5625 C 1.015625 -4.269531 1.273438 -4.910156 1.796875 -5.484375 C 2.328125 -6.054688 2.988281 -6.441406 3.78125 -6.640625 C 3.0625 -7.097656 2.492188 -7.625 2.078125 -8.21875 C 1.660156 -8.8125 1.453125 -9.4375 1.453125 -10.09375 C 1.453125 -11.769531 2.128906 -12.96875 3.484375 -13.6875 C 4.847656 -14.414062 6.648438 -14.78125 8.890625 -14.78125 C 9.878906 -14.78125 10.671875 -14.722656 11.265625 -14.609375 C 12.160156 -15.171875 12.738281 -15.6875 13 -16.15625 C 13.269531 -16.625 13.40625 -16.957031 13.40625 -17.15625 Z M 8.84375 -11.921875 C 8.238281 -11.921875 7.742188 -11.765625 7.359375 -11.453125 C 6.972656 -11.148438 6.78125 -10.707031 6.78125 -10.125 C 6.78125 -9.519531 6.957031 -9.066406 7.3125 -8.765625 C 7.675781 -8.460938 8.1875 -8.3125 8.84375 -8.3125 C 9.5 -8.3125 10.007812 -8.460938 10.375 -8.765625 C 10.75 -9.066406 10.9375 -9.519531 10.9375 -10.125 C 10.9375 -10.726562 10.75 -11.175781 10.375 -11.46875 C 10.007812 -11.769531 9.5 -11.921875 8.84375 -11.921875 Z M 6.734375 0 C 6.304688 0 5.960938 0.113281 5.703125 0.34375 C 5.441406 0.570312 5.3125 0.894531 5.3125 1.3125 C 5.3125 1.726562 5.445312 2.0625 5.71875 2.3125 C 5.988281 2.570312 6.328125 2.703125 6.734375 2.703125 L 11 2.703125 C 11.394531 2.703125 11.734375 2.578125 12.015625 2.328125 C 12.304688 2.085938 12.453125 1.757812 12.453125 1.34375 C 12.453125 0.925781 12.3125 0.597656 12.03125 0.359375 C 11.757812 0.117188 11.414062 0 11 0 Z M 6.734375 0 "/></g></g></g><g fill="#000000" fill-opacity="1"><g transform="translate(165.455842, 170.673946)"><g><path d="M 9.109375 -14.78125 C 11.753906 -14.78125 13.773438 -14.15625 15.171875 -12.90625 C 16.566406 -11.664062 17.265625 -9.769531 17.265625 -7.21875 L 17.265625 -6.296875 L 6.421875 -6.296875 C 6.421875 -5.253906 6.65625 -4.46875 7.125 -3.9375 C 7.59375 -3.40625 8.328125 -3.140625 9.328125 -3.140625 C 10.242188 -3.140625 10.914062 -3.332031 11.34375 -3.71875 C 11.769531 -4.101562 11.984375 -4.613281 11.984375 -5.25 L 17.265625 -5.25 C 17.265625 -3.5 16.597656 -2.128906 15.265625 -1.140625 C 13.929688 -0.160156 11.988281 0.328125 9.4375 0.328125 C 6.757812 0.328125 4.679688 -0.296875 3.203125 -1.546875 C 1.722656 -2.796875 0.984375 -4.6875 0.984375 -7.21875 C 0.984375 -9.695312 1.703125 -11.578125 3.140625 -12.859375 C 4.585938 -14.140625 6.578125 -14.78125 9.109375 -14.78125 Z M 9.328125 -11.296875 C 7.609375 -11.296875 6.648438 -10.484375 6.453125 -8.859375 L 11.765625 -8.859375 C 11.765625 -9.609375 11.550781 -10.203125 11.125 -10.640625 C 10.695312 -11.078125 10.097656 -11.296875 9.328125 -11.296875 Z M 9.328125 -11.296875 "/></g></g></g><g fill="#000000" fill-opacity="1"><g transform="translate(183.708996, 170.673946)"><g><path d="M 11.59375 -14.78125 C 13.28125 -14.78125 14.539062 -14.3125 15.375 -13.375 C 16.21875 -12.445312 16.640625 -11.109375 16.640625 -9.359375 L 16.640625 0 L 11.1875 0 L 11.1875 -8.703125 C 11.1875 -9.316406 11.023438 -9.8125 10.703125 -10.1875 C 10.390625 -10.5625 9.941406 -10.75 9.359375 -10.75 C 8.679688 -10.75 8.132812 -10.53125 7.71875 -10.09375 C 7.300781 -9.65625 7.09375 -9.117188 7.09375 -8.484375 L 7.09375 0 L 1.640625 0 L 1.640625 -14.453125 L 6.09375 -14.453125 L 6.453125 -12.25 C 7.023438 -13.019531 7.769531 -13.632812 8.6875 -14.09375 C 9.601562 -14.550781 10.570312 -14.78125 11.59375 -14.78125 Z M 11.59375 -14.78125 "/></g></g></g><g fill="#000000" fill-opacity="1"><g transform="translate(201.962151, 170.673946)"><g><path d="M 12.140625 0 L 11.6875 -2.046875 C 10.625 -0.460938 9.09375 0.328125 7.09375 0.328125 C 5.132812 0.328125 3.625 -0.304688 2.5625 -1.578125 C 1.507812 -2.859375 0.984375 -4.75 0.984375 -7.25 C 0.984375 -9.726562 1.507812 -11.601562 2.5625 -12.875 C 3.625 -14.144531 5.132812 -14.78125 7.09375 -14.78125 C 8.75 -14.78125 10.097656 -14.222656 11.140625 -13.109375 L 11.140625 -19.828125 L 16.578125 -19.828125 L 16.578125 0 Z M 8.78125 -10.75 C 7.207031 -10.75 6.421875 -9.8125 6.421875 -7.9375 L 6.421875 -6.484375 C 6.421875 -4.617188 7.207031 -3.6875 8.78125 -3.6875 C 9.582031 -3.6875 10.179688 -3.96875 10.578125 -4.53125 C 10.984375 -5.101562 11.1875 -5.84375 11.1875 -6.75 L 11.1875 -7.65625 C 11.1875 -8.570312 10.984375 -9.316406 10.578125 -9.890625 C 10.179688 -10.460938 9.582031 -10.75 8.78125 -10.75 Z M 8.78125 -10.75 "/></g></g></g><g fill="#000000" fill-opacity="1"><g transform="translate(220.215305, 170.673946)"><g><path d="M 14.78125 -18.828125 L 22.265625 -18.828125 L 15.515625 -11.078125 L 22.40625 0 L 15.265625 0 L 11.359375 -6.890625 L 8.078125 -4.21875 L 8.078125 0 L 2.03125 0 L 2.03125 -18.828125 L 8.078125 -18.828125 L 8.078125 -10.78125 Z M 14.78125 -18.828125 "/></g></g></g><g fill="#000000" fill-opacity="1"><g transform="translate(243.011221, 170.673946)"><g><path d="M 1.828125 -16.140625 L 1.828125 -19.828125 L 7.28125 -19.828125 L 7.28125 -16.140625 Z M 1.828125 0 L 1.828125 -14.453125 L 7.28125 -14.453125 L 7.28125 0 Z M 1.828125 0 "/></g></g></g><g fill="#000000" fill-opacity="1"><g transform="translate(252.124122, 170.673946)"><g><path d="M 11.265625 -14.453125 L 11.265625 -10.75 L 8.203125 -10.75 L 8.203125 -5.25 C 8.203125 -4.59375 8.3125 -4.113281 8.53125 -3.8125 C 8.75 -3.507812 9.148438 -3.359375 9.734375 -3.359375 L 11.265625 -3.359375 L 11.265625 -0.171875 C 10.828125 -0.015625 10.257812 0.101562 9.5625 0.1875 C 8.875 0.28125 8.273438 0.328125 7.765625 0.328125 C 6.160156 0.328125 4.925781 0.0351562 4.0625 -0.546875 C 3.195312 -1.128906 2.765625 -2.125 2.765625 -3.53125 L 2.765625 -10.75 L 0.734375 -10.75 L 0.734375 -14.453125 L 2.984375 -14.453125 L 4.15625 -18.828125 L 8.203125 -18.828125 L 8.203125 -14.453125 Z M 11.265625 -14.453125 "/></g></g></g><g fill="#000000" fill-opacity="1"><g transform="translate(12.390169, 203.527691)"><g/></g></g><g fill="#000000" fill-opacity="1"><g transform="translate(28.498702, 203.527691)"><g><path d="M 0.953125 0 L 0.953125 -9.78125 L 3 -9.78125 L 3 -1.578125 L 8.25 -1.578125 L 8.25 0 Z M 0.953125 0 "/></g></g></g><g fill="#000000" fill-opacity="1"><g transform="translate(39.079876, 203.527691)"><g><path d="M 0.953125 0 L 0.953125 -9.78125 L 8.640625 -9.78125 L 8.640625 -8.203125 L 3 -8.203125 L 3 -5.734375 L 8.21875 -5.734375 L 8.21875 -4.15625 L 3 -4.15625 L 3 -1.578125 L 8.921875 -1.578125 L 8.921875 0 Z M 0.953125 0 "/></g></g></g><g fill="#000000" fill-opacity="1"><g transform="translate(50.458587, 203.527691)"><g><path d="M 5.59375 -1.46875 C 6.125 -1.46875 6.640625 -1.546875 7.140625 -1.703125 C 7.640625 -1.859375 8.023438 -2.054688 8.296875 -2.296875 L 8.296875 -3.640625 L 5.921875 -3.640625 L 5.921875 -5.15625 L 10.171875 -5.15625 L 10.171875 -1.5625 C 9.660156 -1.03125 8.988281 -0.613281 8.15625 -0.3125 C 7.320312 -0.0078125 6.453125 0.140625 5.546875 0.140625 C 3.953125 0.140625 2.722656 -0.296875 1.859375 -1.171875 C 1.003906 -2.054688 0.578125 -3.3125 0.578125 -4.9375 C 0.578125 -6.550781 1.007812 -7.785156 1.875 -8.640625 C 2.738281 -9.492188 3.976562 -9.921875 5.59375 -9.921875 C 7.882812 -9.921875 9.34375 -9.070312 9.96875 -7.375 L 8.078125 -6.8125 C 7.878906 -7.300781 7.5625 -7.671875 7.125 -7.921875 C 6.6875 -8.179688 6.175781 -8.3125 5.59375 -8.3125 C 4.625 -8.3125 3.890625 -8.019531 3.390625 -7.4375 C 2.890625 -6.851562 2.640625 -6.019531 2.640625 -4.9375 C 2.640625 -3.832031 2.894531 -2.976562 3.40625 -2.375 C 3.925781 -1.769531 4.65625 -1.46875 5.59375 -1.46875 Z M 5.59375 -1.46875 "/></g></g></g><g fill="#000000" fill-opacity="1"><g transform="translate(63.411574, 203.527691)"><g><path d="M 0.953125 0 L 0.953125 -9.78125 L 8.640625 -9.78125 L 8.640625 -8.203125 L 3 -8.203125 L 3 -5.734375 L 8.21875 -5.734375 L 8.21875 -4.15625 L 3 -4.15625 L 3 -1.578125 L 8.921875 -1.578125 L 8.921875 0 Z M 0.953125 0 "/></g></g></g><g fill="#000000" fill-opacity="1"><g transform="translate(74.790285, 203.527691)"><g><path d="M 6.90625 0 L 2.640625 -7.53125 C 2.722656 -6.800781 2.765625 -6.210938 2.765625 -5.765625 L 2.765625 0 L 0.953125 0 L 0.953125 -9.78125 L 3.296875 -9.78125 L 7.609375 -2.1875 C 7.523438 -2.882812 7.484375 -3.519531 7.484375 -4.09375 L 7.484375 -9.78125 L 9.3125 -9.78125 L 9.3125 0 Z M 6.90625 0 "/></g></g></g><g fill="#000000" fill-opacity="1"><g transform="translate(86.952665, 203.527691)"><g><path d="M 9.671875 -4.96875 C 9.671875 -3.957031 9.472656 -3.070312 9.078125 -2.3125 C 8.679688 -1.5625 8.117188 -0.988281 7.390625 -0.59375 C 6.671875 -0.195312 5.84375 0 4.90625 0 L 0.953125 0 L 0.953125 -9.78125 L 4.484375 -9.78125 C 6.140625 -9.78125 7.414062 -9.363281 8.3125 -8.53125 C 9.21875 -7.707031 9.671875 -6.519531 9.671875 -4.96875 Z M 7.609375 -4.96875 C 7.609375 -6.019531 7.332031 -6.820312 6.78125 -7.375 C 6.238281 -7.925781 5.460938 -8.203125 4.453125 -8.203125 L 3 -8.203125 L 3 -1.578125 L 4.734375 -1.578125 C 5.609375 -1.578125 6.304688 -1.878906 6.828125 -2.484375 C 7.347656 -3.097656 7.609375 -3.925781 7.609375 -4.96875 Z M 7.609375 -4.96875 "/></g></g></g><g fill="#000000" fill-opacity="1"><g transform="translate(99.115044, 203.527691)"><g/></g></g><g fill="#000000" fill-opacity="1"><g transform="translate(104.966465, 203.527691)"><g><path d="M 9.078125 0 L 9.078125 -5.921875 C 9.078125 -6.054688 9.078125 -6.191406 9.078125 -6.328125 C 9.078125 -6.460938 9.097656 -7.039062 9.140625 -8.0625 C 8.816406 -6.8125 8.578125 -5.941406 8.421875 -5.453125 L 6.65625 0 L 5.1875 0 L 3.4375 -5.453125 L 2.6875 -8.0625 C 2.738281 -6.988281 2.765625 -6.273438 2.765625 -5.921875 L 2.765625 0 L 0.953125 0 L 0.953125 -9.78125 L 3.6875 -9.78125 L 5.4375 -4.3125 L 5.59375 -3.78125 L 5.921875 -2.46875 L 6.359375 -4.046875 L 8.171875 -9.78125 L 10.890625 -9.78125 L 10.890625 0 Z M 9.078125 0 "/></g></g></g><g fill="#000000" fill-opacity="1"><g transform="translate(118.703123, 203.527691)"><g><path d="M 7.859375 0 L 7 -2.5 L 3.265625 -2.5 L 2.40625 0 L 0.359375 0 L 3.921875 -9.78125 L 6.34375 -9.78125 L 9.890625 0 Z M 5.125 -8.28125 L 5.09375 -8.125 C 5.039062 -7.957031 4.984375 -7.765625 4.921875 -7.546875 C 4.859375 -7.335938 4.460938 -6.171875 3.734375 -4.046875 L 6.546875 -4.046875 L 5.578125 -6.859375 L 5.28125 -7.796875 Z M 5.125 -8.28125 "/></g></g></g><g fill="#000000" fill-opacity="1"><g transform="translate(130.865503, 203.527691)"><g><path d="M 9.671875 -4.96875 C 9.671875 -3.957031 9.472656 -3.070312 9.078125 -2.3125 C 8.679688 -1.5625 8.117188 -0.988281 7.390625 -0.59375 C 6.671875 -0.195312 5.84375 0 4.90625 0 L 0.953125 0 L 0.953125 -9.78125 L 4.484375 -9.78125 C 6.140625 -9.78125 7.414062 -9.363281 8.3125 -8.53125 C 9.21875 -7.707031 9.671875 -6.519531 9.671875 -4.96875 Z M 7.609375 -4.96875 C 7.609375 -6.019531 7.332031 -6.820312 6.78125 -7.375 C 6.238281 -7.925781 5.460938 -8.203125 4.453125 -8.203125 L 3 -8.203125 L 3 -1.578125 L 4.734375 -1.578125 C 5.609375 -1.578125 6.304688 -1.878906 6.828125 -2.484375 C 7.347656 -3.097656 7.609375 -3.925781 7.609375 -4.96875 Z M 7.609375 -4.96875 "/></g></g></g><g fill="#000000" fill-opacity="1"><g transform="translate(143.027882, 203.527691)"><g><path d="M 0.953125 0 L 0.953125 -9.78125 L 8.640625 -9.78125 L 8.640625 -8.203125 L 3 -8.203125 L 3 -5.734375 L 8.21875 -5.734375 L 8.21875 -4.15625 L 3 -4.15625 L 3 -1.578125 L 8.921875 -1.578125 L 8.921875 0 Z M 0.953125 0 "/></g></g></g><g fill="#000000" fill-opacity="1"><g transform="translate(154.406594, 203.527691)"><g/></g></g><g fill="#000000" fill-opacity="1"><g transform="translate(160.258015, 203.527691)"><g><path d="M 0.953125 0 L 0.953125 -9.78125 L 8.640625 -9.78125 L 8.640625 -8.203125 L 3 -8.203125 L 3 -5.734375 L 8.21875 -5.734375 L 8.21875 -4.15625 L 3 -4.15625 L 3 -1.578125 L 8.921875 -1.578125 L 8.921875 0 Z M 0.953125 0 "/></g></g></g><g fill="#000000" fill-opacity="1"><g transform="translate(171.636726, 203.527691)"><g><path d="M 7.859375 0 L 7 -2.5 L 3.265625 -2.5 L 2.40625 0 L 0.359375 0 L 3.921875 -9.78125 L 6.34375 -9.78125 L 9.890625 0 Z M 5.125 -8.28125 L 5.09375 -8.125 C 5.039062 -7.957031 4.984375 -7.765625 4.921875 -7.546875 C 4.859375 -7.335938 4.460938 -6.171875 3.734375 -4.046875 L 6.546875 -4.046875 L 5.578125 -6.859375 L 5.28125 -7.796875 Z M 5.125 -8.28125 "/></g></g></g><g fill="#000000" fill-opacity="1"><g transform="translate(183.799106, 203.527691)"><g><path d="M 8.921875 -2.8125 C 8.921875 -1.851562 8.566406 -1.117188 7.859375 -0.609375 C 7.148438 -0.109375 6.109375 0.140625 4.734375 0.140625 C 3.484375 0.140625 2.5 -0.078125 1.78125 -0.515625 C 1.070312 -0.960938 0.613281 -1.640625 0.40625 -2.546875 L 2.390625 -2.875 C 2.523438 -2.351562 2.785156 -1.972656 3.171875 -1.734375 C 3.554688 -1.503906 4.097656 -1.390625 4.796875 -1.390625 C 6.222656 -1.390625 6.9375 -1.828125 6.9375 -2.703125 C 6.9375 -2.984375 6.851562 -3.210938 6.6875 -3.390625 C 6.519531 -3.566406 6.285156 -3.710938 5.984375 -3.828125 C 5.691406 -3.953125 5.125 -4.101562 4.28125 -4.28125 C 3.550781 -4.445312 3.039062 -4.582031 2.75 -4.6875 C 2.457031 -4.789062 2.195312 -4.910156 1.96875 -5.046875 C 1.738281 -5.191406 1.539062 -5.363281 1.375 -5.5625 C 1.21875 -5.757812 1.09375 -5.992188 1 -6.265625 C 0.914062 -6.535156 0.875 -6.84375 0.875 -7.1875 C 0.875 -8.070312 1.203125 -8.75 1.859375 -9.21875 C 2.523438 -9.6875 3.492188 -9.921875 4.765625 -9.921875 C 5.972656 -9.921875 6.878906 -9.734375 7.484375 -9.359375 C 8.097656 -8.984375 8.492188 -8.359375 8.671875 -7.484375 L 6.6875 -7.203125 C 6.582031 -7.628906 6.375 -7.945312 6.0625 -8.15625 C 5.75 -8.375 5.300781 -8.484375 4.71875 -8.484375 C 3.476562 -8.484375 2.859375 -8.09375 2.859375 -7.3125 C 2.859375 -7.050781 2.921875 -6.835938 3.046875 -6.671875 C 3.179688 -6.515625 3.378906 -6.378906 3.640625 -6.265625 C 3.898438 -6.160156 4.425781 -6.019531 5.21875 -5.84375 C 6.15625 -5.644531 6.828125 -5.460938 7.234375 -5.296875 C 7.640625 -5.128906 7.957031 -4.929688 8.1875 -4.703125 C 8.425781 -4.472656 8.609375 -4.203125 8.734375 -3.890625 C 8.859375 -3.585938 8.921875 -3.226562 8.921875 -2.8125 Z M 8.921875 -2.8125 "/></g></g></g><g fill="#000000" fill-opacity="1"><g transform="translate(195.177817, 203.527691)"><g><path d="M 5.765625 -4.015625 L 5.765625 0 L 3.734375 0 L 3.734375 -4.015625 L 0.25 -9.78125 L 2.390625 -9.78125 L 4.734375 -5.640625 L 7.109375 -9.78125 L 9.25 -9.78125 Z M 5.765625 -4.015625 "/></g></g></g><g fill="#000000" fill-opacity="1"><g transform="translate(206.556528, 203.527691)"><g/></g></g><g fill="#000000" fill-opacity="1"><g transform="translate(212.407961, 203.527691)"><g><path d="M 3 -8.203125 L 3 -5.171875 L 8 -5.171875 L 8 -3.59375 L 3 -3.59375 L 3 0 L 0.953125 0 L 0.953125 -9.78125 L 8.171875 -9.78125 L 8.171875 -8.203125 Z M 3 -8.203125 "/></g></g></g><g fill="#000000" fill-opacity="1"><g transform="translate(222.989144, 203.527691)"><g><path d="M 10.46875 -4.9375 C 10.46875 -3.914062 10.265625 -3.019531 9.859375 -2.25 C 9.453125 -1.476562 8.875 -0.882812 8.125 -0.46875 C 7.375 -0.0625 6.5 0.140625 5.5 0.140625 C 3.96875 0.140625 2.765625 -0.3125 1.890625 -1.21875 C 1.015625 -2.125 0.578125 -3.363281 0.578125 -4.9375 C 0.578125 -6.507812 1.007812 -7.734375 1.875 -8.609375 C 2.75 -9.484375 3.960938 -9.921875 5.515625 -9.921875 C 7.066406 -9.921875 8.28125 -9.476562 9.15625 -8.59375 C 10.03125 -7.707031 10.46875 -6.488281 10.46875 -4.9375 Z M 8.375 -4.9375 C 8.375 -5.988281 8.125 -6.8125 7.625 -7.40625 C 7.125 -8.007812 6.421875 -8.3125 5.515625 -8.3125 C 4.597656 -8.3125 3.890625 -8.015625 3.390625 -7.421875 C 2.890625 -6.828125 2.640625 -6 2.640625 -4.9375 C 2.640625 -3.863281 2.894531 -3.015625 3.40625 -2.390625 C 3.914062 -1.773438 4.613281 -1.46875 5.5 -1.46875 C 6.414062 -1.46875 7.125 -1.769531 7.625 -2.375 C 8.125 -2.976562 8.375 -3.832031 8.375 -4.9375 Z M 8.375 -4.9375 "/></g></g></g><g fill="#000000" fill-opacity="1"><g transform="translate(235.942139, 203.527691)"><g><path d="M 7.671875 0 L 5.40625 -3.71875 L 3 -3.71875 L 3 0 L 0.953125 0 L 0.953125 -9.78125 L 5.84375 -9.78125 C 7.007812 -9.78125 7.90625 -9.53125 8.53125 -9.03125 C 9.164062 -8.53125 9.484375 -7.804688 9.484375 -6.859375 C 9.484375 -6.179688 9.289062 -5.59375 8.90625 -5.09375 C 8.519531 -4.59375 7.992188 -4.265625 7.328125 -4.109375 L 9.984375 0 Z M 7.421875 -6.78125 C 7.421875 -7.71875 6.820312 -8.1875 5.625 -8.1875 L 3 -8.1875 L 3 -5.296875 L 5.671875 -5.296875 C 6.253906 -5.296875 6.691406 -5.425781 6.984375 -5.6875 C 7.273438 -5.945312 7.421875 -6.3125 7.421875 -6.78125 Z M 7.421875 -6.78125 "/></g></g></g><g fill="#000000" fill-opacity="1"><g transform="translate(248.10453, 203.527691)"><g/></g></g><g fill="#000000" fill-opacity="1"><g transform="translate(253.955963, 203.527691)"><g><path d="M 9.078125 0 L 9.078125 -5.921875 C 9.078125 -6.054688 9.078125 -6.191406 9.078125 -6.328125 C 9.078125 -6.460938 9.097656 -7.039062 9.140625 -8.0625 C 8.816406 -6.8125 8.578125 -5.941406 8.421875 -5.453125 L 6.65625 0 L 5.1875 0 L 3.4375 -5.453125 L 2.6875 -8.0625 C 2.738281 -6.988281 2.765625 -6.273438 2.765625 -5.921875 L 2.765625 0 L 0.953125 0 L 0.953125 -9.78125 L 3.6875 -9.78125 L 5.4375 -4.3125 L 5.59375 -3.78125 L 5.921875 -2.46875 L 6.359375 -4.046875 L 8.171875 -9.78125 L 10.890625 -9.78125 L 10.890625 0 Z M 9.078125 0 "/></g></g></g><g fill="#000000" fill-opacity="1"><g transform="translate(267.692626, 203.527691)"><g><path d="M 7.859375 0 L 7 -2.5 L 3.265625 -2.5 L 2.40625 0 L 0.359375 0 L 3.921875 -9.78125 L 6.34375 -9.78125 L 9.890625 0 Z M 5.125 -8.28125 L 5.09375 -8.125 C 5.039062 -7.957031 4.984375 -7.765625 4.921875 -7.546875 C 4.859375 -7.335938 4.460938 -6.171875 3.734375 -4.046875 L 6.546875 -4.046875 L 5.578125 -6.859375 L 5.28125 -7.796875 Z M 5.125 -8.28125 "/></g></g></g><g fill="#000000" fill-opacity="1"><g transform="translate(279.855017, 203.527691)"><g><path d="M 5.359375 -8.203125 L 5.359375 0 L 3.3125 0 L 3.3125 -8.203125 L 0.15625 -8.203125 L 0.15625 -9.78125 L 8.53125 -9.78125 L 8.53125 -8.203125 Z M 5.359375 -8.203125 "/></g></g></g><g fill="#000000" fill-opacity="1"><g transform="translate(290.436201, 203.527691)"><g><path d="M 9 -6.6875 C 9 -6.050781 8.851562 -5.484375 8.5625 -4.984375 C 8.28125 -4.492188 7.867188 -4.113281 7.328125 -3.84375 C 6.796875 -3.570312 6.160156 -3.4375 5.421875 -3.4375 L 3 -3.4375 L 3 0 L 0.953125 0 L 0.953125 -9.78125 L 5.34375 -9.78125 C 6.519531 -9.78125 7.421875 -9.507812 8.046875 -8.96875 C 8.679688 -8.4375 9 -7.675781 9 -6.6875 Z M 6.9375 -6.65625 C 6.9375 -7.675781 6.328125 -8.1875 5.109375 -8.1875 L 3 -8.1875 L 3 -5.015625 L 5.171875 -5.015625 C 5.734375 -5.015625 6.164062 -5.15625 6.46875 -5.4375 C 6.78125 -5.71875 6.9375 -6.125 6.9375 -6.65625 Z M 6.9375 -6.65625 "/></g></g></g><g fill="#000000" fill-opacity="1"><g transform="translate(301.814924, 203.527691)"><g><path d="M 0.953125 0 L 0.953125 -9.78125 L 3 -9.78125 L 3 -1.578125 L 8.25 -1.578125 L 8.25 0 Z M 0.953125 0 "/></g></g></g><g fill="#000000" fill-opacity="1"><g transform="translate(312.396108, 203.527691)"><g><path d="M 10.46875 -4.9375 C 10.46875 -3.914062 10.265625 -3.019531 9.859375 -2.25 C 9.453125 -1.476562 8.875 -0.882812 8.125 -0.46875 C 7.375 -0.0625 6.5 0.140625 5.5 0.140625 C 3.96875 0.140625 2.765625 -0.3125 1.890625 -1.21875 C 1.015625 -2.125 0.578125 -3.363281 0.578125 -4.9375 C 0.578125 -6.507812 1.007812 -7.734375 1.875 -8.609375 C 2.75 -9.484375 3.960938 -9.921875 5.515625 -9.921875 C 7.066406 -9.921875 8.28125 -9.476562 9.15625 -8.59375 C 10.03125 -7.707031 10.46875 -6.488281 10.46875 -4.9375 Z M 8.375 -4.9375 C 8.375 -5.988281 8.125 -6.8125 7.625 -7.40625 C 7.125 -8.007812 6.421875 -8.3125 5.515625 -8.3125 C 4.597656 -8.3125 3.890625 -8.015625 3.390625 -7.421875 C 2.890625 -6.828125 2.640625 -6 2.640625 -4.9375 C 2.640625 -3.863281 2.894531 -3.015625 3.40625 -2.390625 C 3.914062 -1.773438 4.613281 -1.46875 5.5 -1.46875 C 6.414062 -1.46875 7.125 -1.769531 7.625 -2.375 C 8.125 -2.976562 8.375 -3.832031 8.375 -4.9375 Z M 8.375 -4.9375 "/></g></g></g><g fill="#000000" fill-opacity="1"><g transform="translate(325.349102, 203.527691)"><g><path d="M 5.359375 -8.203125 L 5.359375 0 L 3.3125 0 L 3.3125 -8.203125 L 0.15625 -8.203125 L 0.15625 -9.78125 L 8.53125 -9.78125 L 8.53125 -8.203125 Z M 5.359375 -8.203125 "/></g></g></g><g fill="#000000" fill-opacity="1"><g transform="translate(335.930286, 203.527691)"><g><path d="M 0.953125 0 L 0.953125 -9.78125 L 3 -9.78125 L 3 -1.578125 L 8.25 -1.578125 L 8.25 0 Z M 0.953125 0 "/></g></g></g><g fill="#000000" fill-opacity="1"><g transform="translate(346.51147, 203.527691)"><g><path d="M 0.953125 0 L 0.953125 -9.78125 L 3 -9.78125 L 3 0 Z M 0.953125 0 "/></g></g></g><g fill="#000000" fill-opacity="1"><g transform="translate(352.362903, 203.527691)"><g><path d="M 9.625 -2.796875 C 9.625 -1.898438 9.289062 -1.207031 8.625 -0.71875 C 7.957031 -0.238281 7.03125 0 5.84375 0 L 0.953125 0 L 0.953125 -9.78125 L 5.421875 -9.78125 C 6.617188 -9.78125 7.523438 -9.570312 8.140625 -9.15625 C 8.753906 -8.75 9.0625 -8.140625 9.0625 -7.328125 C 9.0625 -6.765625 8.90625 -6.289062 8.59375 -5.90625 C 8.289062 -5.53125 7.820312 -5.273438 7.1875 -5.140625 C 7.976562 -5.046875 8.582031 -4.796875 9 -4.390625 C 9.414062 -3.992188 9.625 -3.460938 9.625 -2.796875 Z M 7 -7.046875 C 7 -7.484375 6.859375 -7.796875 6.578125 -7.984375 C 6.296875 -8.171875 5.878906 -8.265625 5.328125 -8.265625 L 3 -8.265625 L 3 -5.84375 L 5.34375 -5.84375 C 5.925781 -5.84375 6.347656 -5.941406 6.609375 -6.140625 C 6.867188 -6.335938 7 -6.640625 7 -7.046875 Z M 7.5625 -2.953125 C 7.5625 -3.867188 6.90625 -4.328125 5.59375 -4.328125 L 3 -4.328125 L 3 -1.515625 L 5.671875 -1.515625 C 6.328125 -1.515625 6.804688 -1.632812 7.109375 -1.875 C 7.410156 -2.113281 7.5625 -2.472656 7.5625 -2.953125 Z M 7.5625 -2.953125 "/></g></g></g></svg>